<svg xmlns="http://www.w3.org/2000/svg" xmlns:xlink="http://www.w3.org/1999/xlink" width="444" height="79" viewBox="0 0 444 79">
  <defs>
    <linearGradient id="linear-gradient" x1="0.5" x2="0.5" y2="1" gradientUnits="objectBoundingBox">
      <stop offset="0" stop-color="#9bd33a"/>
      <stop offset="1" stop-color="#75ab18"/>
    </linearGradient>
    <filter id="Path_2693" x="0" y="0" width="444" height="79" filterUnits="userSpaceOnUse">
      <feOffset dy="3" input="SourceAlpha"/>
      <feGaussianBlur stdDeviation="3" result="blur"/>
      <feFlood flood-opacity="0.161"/>
      <feComposite operator="in" in2="blur"/>
      <feComposite in="SourceGraphic"/>
    </filter>
  </defs>
  <g id="Add_To_Cart_Button" transform="translate(9 6)">
    <g transform="matrix(1, 0, 0, 1, -9, -6)" filter="url(#Path_2693)">
      <path id="Path_2693-2" data-name="Path 2693" d="M4,0H422a4,4,0,0,1,4,4V57a4,4,0,0,1-4,4H4a4,4,0,0,1-4-4V4A4,4,0,0,1,4,0Z" transform="translate(9 6)" fill="url(#linear-gradient)"/>
    </g>
    <g id="Group_869" data-name="Group 869" transform="translate(-1219.713 -1590)">
      <text id="_add_to_cart" data-name="+ add to cart" transform="translate(1450.072 1629)" fill="#fff" font-size="24" font-family="BarlowCondensed-Bold, Barlow Condensed" font-weight="700" letter-spacing="0.009em"><tspan x="-64" y="0">+ ADD TO CART</tspan></text>
      <path id="cart-shopping" d="M18.195,16.344a1.856,1.856,0,0,0-1.851,1.886,1.851,1.851,0,1,0,3.7,0A1.834,1.834,0,0,0,18.195,16.344Zm-11.315,0A1.856,1.856,0,0,0,5.029,18.23a1.851,1.851,0,1,0,3.7,0A1.834,1.834,0,0,0,6.88,16.344Zm15.5-14.587a1.248,1.248,0,0,0-1-.5H4.758L4.7.767A.946.946,0,0,0,3.772,0H.908A.929.929,0,0,0,0,.908a.994.994,0,0,0,.908.978H2.956L5.324,14.321a1.014,1.014,0,0,0,.962.766H19.173a.936.936,0,0,0,.943-.908.949.949,0,0,0-.943-.978H7.068l-.361-1.886h12.51a1.257,1.257,0,0,0,1.209-.912L22.581,2.9A1.3,1.3,0,0,0,22.375,1.757Z" transform="translate(1346.713 1610.577)" fill="#fff"/>
    </g>
  </g>
</svg>
