<svg xmlns="http://www.w3.org/2000/svg" width="2038.98" height="369.918" viewBox="0 0 2038.98 369.918">
  <g id="background_transiition_4" transform="translate(44.519 -14251.037)">
    <path id="Path_3015" data-name="Path 3015" d="M-14227.418-17380.332l40.1-23.16,39.821,23.16v46.205l-39.892,23-40.029-23Z" transform="translate(14223.361 31724.105)" fill="#2d3d68" stroke="rgba(255,255,255,0.31)" stroke-width="1"/>
    <path id="Path_3016" data-name="Path 3016" d="M-14227.418-17380.332l40.1-23.16,39.821,23.16v46.205l-39.892,23-40.029-23Z" transform="translate(14303.282 31724.107)" fill="#2d3d68" stroke="rgba(255,255,255,0.31)" stroke-width="1"/>
    <path id="Path_3017" data-name="Path 3017" d="M-14227.418-17380.332l40.1-23.16,39.821,23.16v46.205l-39.892,23-40.029-23Z" transform="translate(14383.203 31724.105)" fill="#2d3d68" stroke="rgba(255,255,255,0.31)" stroke-width="1"/>
    <path id="Path_3018" data-name="Path 3018" d="M-14227.418-17380.332l40.1-23.16,39.821,23.16v46.205l-39.892,23-40.029-23Z" transform="translate(14463.123 31724.107)" fill="#2d3d68" stroke="rgba(255,255,255,0.31)" stroke-width="1"/>
    <path id="Path_3019" data-name="Path 3019" d="M-14227.418-17380.332l40.1-23.16,39.821,23.16v46.205l-39.892,23-40.029-23Z" transform="translate(14543.044 31724.105)" fill="#2d3d68" stroke="rgba(255,255,255,0.31)" stroke-width="1"/>
    <path id="Path_3020" data-name="Path 3020" d="M-14227.418-17380.332l40.1-23.16,39.821,23.16v46.205l-39.892,23-40.029-23Z" transform="translate(14622.964 31724.105)" fill="#2d3d68" stroke="rgba(255,255,255,0.31)" stroke-width="1"/>
    <path id="Path_3021" data-name="Path 3021" d="M-14227.418-17380.332l40.1-23.16,39.821,23.16v46.205l-39.892,23-40.029-23Z" transform="translate(14702.885 31724.107)" fill="#2d3d68" stroke="rgba(255,255,255,0.31)" stroke-width="1"/>
    <path id="Path_3022" data-name="Path 3022" d="M-14227.418-17380.332l40.1-23.16,39.821,23.16v46.205l-39.892,23-40.029-23Z" transform="translate(14782.807 31724.105)" fill="#2d3d68" stroke="rgba(255,255,255,0.31)" stroke-width="1"/>
    <path id="Path_3023" data-name="Path 3023" d="M-14227.418-17380.332l40.1-23.16,39.821,23.16v46.205l-39.892,23-40.029-23Z" transform="translate(14862.728 31724.107)" fill="#2d3d68" stroke="rgba(255,255,255,0.31)" stroke-width="1"/>
    <path id="Path_3024" data-name="Path 3024" d="M-14227.418-17380.332l40.1-23.16,39.821,23.16v46.205l-39.892,23-40.029-23Z" transform="translate(14942.647 31724.105)" fill="#2d3d68" stroke="rgba(255,255,255,0.31)" stroke-width="1"/>
    <path id="Path_3025" data-name="Path 3025" d="M-14227.418-17380.332l40.1-23.16,39.821,23.16v46.205l-39.892,23-40.029-23Z" transform="translate(15022.568 31724.107)" fill="#2d3d68" stroke="rgba(255,255,255,0.31)" stroke-width="1"/>
    <path id="Path_3026" data-name="Path 3026" d="M-14227.418-17380.332l40.1-23.16,39.821,23.16v46.205l-39.892,23-40.029-23Z" transform="translate(15102.489 31724.105)" fill="#2d3d68" stroke="rgba(255,255,255,0.31)" stroke-width="1"/>
    <path id="Path_3027" data-name="Path 3027" d="M-14227.418-17380.332l40.1-23.16,39.821,23.16v46.205l-39.892,23-40.029-23Z" transform="translate(14543.044 31724.105)" fill="#2d3d68" stroke="rgba(255,255,255,0.76)" stroke-width="1"/>
    <path id="Path_3028" data-name="Path 3028" d="M-14227.418-17380.332l40.1-23.16,39.821,23.16v46.205l-39.892,23-40.029-23Z" transform="translate(14622.964 31724.105)" fill="#2d3d68" stroke="rgba(255,255,255,0.31)" stroke-width="1"/>
    <path id="Path_3029" data-name="Path 3029" d="M-14227.418-17380.332l40.1-23.16,39.821,23.16v46.205l-39.892,23-40.029-23Z" transform="translate(14702.885 31724.107)" fill="#2d3d68" stroke="rgba(255,255,255,0.31)" stroke-width="1"/>
    <path id="Path_3030" data-name="Path 3030" d="M-14227.418-17380.332l40.1-23.16,39.821,23.16v46.205l-39.892,23-40.029-23Z" transform="translate(15182.41 31724.107)" fill="#2d3d68" stroke="#fff" stroke-width="1"/>
    <path id="Path_3031" data-name="Path 3031" d="M-14227.418-17380.332l40.1-23.16,39.821,23.16v46.205l-39.892,23-40.029-23Z" transform="translate(15262.331 31724.105)" fill="#2d3d68" stroke="rgba(255,255,255,0.31)" stroke-width="1"/>
    <path id="Path_3032" data-name="Path 3032" d="M-14227.418-17380.332l40.1-23.16,39.821,23.16v46.205l-39.892,23-40.029-23Z" transform="translate(15342.252 31724.105)" fill="#2d3d68" stroke="rgba(255,255,255,0.31)" stroke-width="1"/>
    <path id="Path_3033" data-name="Path 3033" d="M-14227.418-17380.332l40.1-23.16,39.821,23.16v46.205l-39.892,23-40.029-23Z" transform="translate(15422.173 31724.107)" fill="#2d3d68" stroke="rgba(255,255,255,0.31)" stroke-width="1"/>
    <path id="Path_3034" data-name="Path 3034" d="M-14227.418-17380.332l40.1-23.16,39.821,23.16v46.205l-39.892,23-40.029-23Z" transform="translate(15502.093 31724.105)" fill="#2d3d68" stroke="rgba(255,255,255,0.31)" stroke-width="1"/>
    <path id="Path_3035" data-name="Path 3035" d="M-14227.418-17380.332l40.1-23.16,39.821,23.16v46.205l-39.892,23-40.029-23Z" transform="translate(15582.015 31724.107)" fill="#2d3d68" stroke="rgba(255,255,255,0.31)" stroke-width="1"/>
    <path id="Path_3036" data-name="Path 3036" d="M-14227.418-17380.332l40.1-23.16,39.821,23.16v46.205l-39.892,23-40.029-23Z" transform="translate(15661.935 31724.105)" fill="#2d3d68" stroke="rgba(255,255,255,0.31)" stroke-width="1"/>
    <path id="Path_3037" data-name="Path 3037" d="M-14227.418-17380.332l40.1-23.16,39.821,23.16v46.205l-39.892,23-40.029-23Z" transform="translate(15741.854 31724.107)" fill="#2d3d68" stroke="rgba(255,255,255,0.31)" stroke-width="1"/>
    <path id="Path_3038" data-name="Path 3038" d="M-14227.418-17380.332l40.1-23.16,39.821,23.16v46.205l-39.892,23-40.029-23Z" transform="translate(15821.777 31724.105)" fill="#2d3d68" stroke="rgba(255,255,255,0.96)" stroke-width="1"/>
    <path id="Path_3039" data-name="Path 3039" d="M-14227.418-17380.332l40.1-23.16,39.821,23.16v46.205l-39.892,23-40.029-23Z" transform="translate(15901.697 31724.107)" fill="#2d3d68" stroke="rgba(255,255,255,0.31)" stroke-width="1"/>
    <path id="Path_3040" data-name="Path 3040" d="M-14227.418-17380.332l40.1-23.16,39.821,23.16v46.205l-39.892,23-40.029-23Z" transform="translate(15981.617 31724.105)" fill="#2d3d68" stroke="rgba(255,255,255,0.31)" stroke-width="1"/>
    <path id="Path_3041" data-name="Path 3041" d="M-14227.418-17380.332l40.1-23.16,39.821,23.16v46.205l-39.892,23-40.029-23Z" transform="translate(16101.5 31793.5)" fill="#2d3d68" stroke="rgba(255,255,255,0.31)" stroke-width="1"/>
    <path id="Path_3042" data-name="Path 3042" d="M-14227.418-17380.332l40.1-23.16,39.821,23.16v46.205l-39.892,23-40.029-23Z" transform="translate(14263.321 31793.502)" fill="#fff" stroke="rgba(43,58,99,0.53)" stroke-width="1"/>
    <path id="Path_3043" data-name="Path 3043" d="M-14227.418-17380.332l40.1-23.16,39.821,23.16v46.205l-39.892,23-40.029-23Z" transform="translate(14343.242 31793.5)" fill="#fff" stroke="#16368b" stroke-width="1"/>
    <path id="Path_3044" data-name="Path 3044" d="M-14227.418-17380.332l40.1-23.16,39.821,23.16v46.205l-39.892,23-40.029-23Z" transform="translate(14423.163 31793.502)" fill="#fff" stroke="rgba(43,58,99,0.53)" stroke-width="1"/>
    <path id="Path_3045" data-name="Path 3045" d="M-14227.418-17380.332l40.1-23.16,39.821,23.16v46.205l-39.892,23-40.029-23Z" transform="translate(14503.083 31793.5)" fill="#fff" stroke="#2b3a63" stroke-width="1"/>
    <path id="Path_3046" data-name="Path 3046" d="M-14227.418-17380.332l40.1-23.16,39.821,23.16v46.205l-39.892,23-40.029-23Z" transform="translate(14583.004 31793.502)" fill="#fff" stroke="#2b3a63" stroke-width="1"/>
    <path id="Path_3047" data-name="Path 3047" d="M-14227.418-17380.332l40.1-23.16,39.821,23.16v46.205l-39.892,23-40.029-23Z" transform="translate(14662.925 31793.5)" fill="#fff" stroke="#2b3a63" stroke-width="1"/>
    <path id="Path_3048" data-name="Path 3048" d="M-14227.418-17380.332l40.1-23.16,39.821,23.16v46.205l-39.892,23-40.029-23Z" transform="translate(14742.847 31793.5)" fill="#fff" stroke="#2b3a63" stroke-width="1"/>
    <path id="Path_3049" data-name="Path 3049" d="M-14227.418-17380.332l40.1-23.16,39.821,23.16v46.205l-39.892,23-40.029-23Z" transform="translate(14822.768 31793.502)" fill="#fff" stroke="#2b3a63" stroke-width="1"/>
    <path id="Path_3050" data-name="Path 3050" d="M-14227.418-17380.332l40.1-23.16,39.821,23.16v46.205l-39.892,23-40.029-23Z" transform="translate(14902.688 31793.5)" fill="#fff" stroke="rgba(43,58,99,0.33)" stroke-width="1"/>
    <path id="Path_3051" data-name="Path 3051" d="M-14227.418-17380.332l40.1-23.16,39.821,23.16v46.205l-39.892,23-40.029-23Z" transform="translate(14982.607 31793.502)" fill="#fff" stroke="rgba(43,58,99,0.33)" stroke-width="1"/>
    <path id="Path_3052" data-name="Path 3052" d="M-14227.418-17380.332l40.1-23.16,39.821,23.16v46.205l-39.892,23-40.029-23Z" transform="translate(15062.528 31793.5)" fill="#fff" stroke="#2b3a63" stroke-width="1"/>
    <path id="Path_3053" data-name="Path 3053" d="M-14227.418-17380.332l40.1-23.16,39.821,23.16v46.205l-39.892,23-40.029-23Z" transform="translate(15143.4 31793.5)" fill="#fff" stroke="#2b3a63" stroke-width="1"/>
    <path id="Path_3054" data-name="Path 3054" d="M-14227.418-17380.332l40.1-23.16,39.821,23.16v46.205l-39.892,23-40.029-23Z" transform="translate(15222.371 31793.5)" fill="#fff" stroke="#2b3a63" stroke-width="1"/>
    <path id="Path_3055" data-name="Path 3055" d="M-14227.418-17380.332l40.1-23.16,39.821,23.16v46.205l-39.892,23-40.029-23Z" transform="translate(15302.292 31793.502)" fill="#fff" stroke="#2b3a63" stroke-width="1"/>
    <path id="Path_3056" data-name="Path 3056" d="M-14227.418-17380.332l40.1-23.16,39.821,23.16v46.205l-39.892,23-40.029-23Z" transform="translate(15382.213 31793.5)" fill="#fff" stroke="rgba(43,58,99,0.37)" stroke-width="1"/>
    <path id="Path_3057" data-name="Path 3057" d="M-14227.418-17380.332l40.1-23.16,39.821,23.16v46.205l-39.892,23-40.029-23Z" transform="translate(15462.133 31793.5)" fill="#fff" stroke="rgba(43,58,99,0.37)" stroke-width="1"/>
    <path id="Path_3058" data-name="Path 3058" d="M-14227.418-17380.332l40.1-23.16,39.821,23.16v46.205l-39.892,23-40.029-23Z" transform="translate(15542.055 31793.502)" fill="#fff" stroke="rgba(43,58,99,0.37)" stroke-width="1"/>
    <path id="Path_3059" data-name="Path 3059" d="M-14227.418-17380.332l40.1-23.16,39.821,23.16v46.205l-39.892,23-40.029-23Z" transform="translate(15621.975 31793.5)" fill="#fff" stroke="rgba(43,58,99,0.37)" stroke-width="1"/>
    <path id="Path_3060" data-name="Path 3060" d="M-14227.418-17380.332l40.1-23.16,39.821,23.16v46.205l-39.892,23-40.029-23Z" transform="translate(15701.895 31793.502)" fill="#fff" stroke="rgba(43,58,99,0.37)" stroke-width="1"/>
    <path id="Path_3061" data-name="Path 3061" d="M-14227.418-17380.332l40.1-23.16,39.821,23.16v46.205l-39.892,23-40.029-23Z" transform="translate(15781.815 31793.5)" fill="#fff" stroke="rgba(43,58,99,0.37)" stroke-width="1"/>
    <path id="Path_3062" data-name="Path 3062" d="M-14227.418-17380.332l40.1-23.16,39.821,23.16v46.205l-39.892,23-40.029-23Z" transform="translate(15861.737 31793.502)" fill="#fff" stroke="#16368b" stroke-width="1"/>
    <path id="Path_3063" data-name="Path 3063" d="M-14227.418-17380.332l40.1-23.16,39.821,23.16v46.205l-39.892,23-40.029-23Z" transform="translate(15941.657 31793.5)" fill="#fff" stroke="#16368b" stroke-width="1"/>
    <path id="Path_3064" data-name="Path 3064" d="M-14227.418-17380.332l40.1-23.16,39.821,23.16v46.205l-39.892,23-40.029-23Z" transform="translate(16021.579 31793.502)" fill="#fff" stroke="#2b3a63" stroke-width="1"/>
    <path id="Path_3065" data-name="Path 3065" d="M-14227.418-17380.332l40.1-23.16,39.821,23.16v46.205l-39.892,23-40.029-23Z" transform="translate(16061.538 31724.107)" fill="#fff" stroke="#2b3a63" stroke-width="1"/>
    <path id="Path_3066" data-name="Path 3066" d="M-14227.418-17380.332l40.1-23.16,39.821,23.16v46.205l-39.892,23-40.029-23Z" transform="translate(16141.459 31724.107)" fill="#2d3d68" stroke="rgba(255,255,255,0.31)" stroke-width="1"/>
    <path id="Path_3067" data-name="Path 3067" d="M-14227.418-17380.332l40.1-23.16,39.821,23.16v46.205l-39.892,23-40.029-23Z" transform="translate(14183.399 31793.5)" fill="#fff" stroke="rgba(43,58,99,0.53)" stroke-width="1"/>
    <path id="Path_3068" data-name="Path 3068" d="M-14227.418-17380.332l40.1-23.16,39.821,23.16v46.205l-39.892,23-40.029-23Z" transform="translate(14223.361 31862.5)" fill="#fff" stroke="#2b3a63" stroke-width="1"/>
    <path id="Path_3069" data-name="Path 3069" d="M-14227.418-17380.332l40.1-23.16,39.821,23.16v46.205l-39.892,23-40.029-23Z" transform="translate(14383.2 31862.5)" fill="#fff" stroke="#16368b" stroke-width="1"/>
    <path id="Path_3070" data-name="Path 3070" d="M-14227.418-17380.332l40.1-23.16,39.821,23.16v46.205l-39.892,23-40.029-23Z" transform="translate(14263.322 31931.502)" fill="#fff" stroke="#16368b" stroke-width="1"/>
    <path id="Path_3071" data-name="Path 3071" d="M-14227.418-17380.332l40.1-23.16,39.821,23.16v46.205l-39.892,23-40.029-23Z" transform="translate(15981.618 31862.502)" fill="#fff" stroke="#16368b" stroke-width="1"/>
    <path id="Path_3072" data-name="Path 3072" d="M-14227.418-17380.332l40.1-23.16,39.821,23.16v46.205l-39.892,23-40.029-23Z" transform="translate(14343.243 31655.107)" fill="#2d3d68" stroke="rgba(255,255,255,0.31)" stroke-width="1"/>
  </g>
</svg>
