<svg id="envelope" xmlns="http://www.w3.org/2000/svg" width="29" height="21.75" viewBox="0 0 29 21.75">
  <path id="envelope-2" data-name="envelope" d="M14.5,80.313a4.329,4.329,0,0,1-2.671-.929L0,70.185V83.031A2.719,2.719,0,0,0,2.719,85.75H26.281A2.719,2.719,0,0,0,29,83.031V70.185l-11.827,9.2A4.363,4.363,0,0,1,14.5,80.313ZM.923,68.6l12.019,9.351a2.539,2.539,0,0,0,3.119,0L28.08,68.6A2.559,2.559,0,0,0,29,66.719,2.719,2.719,0,0,0,26.281,64H2.719A2.719,2.719,0,0,0,0,66.719,2.391,2.391,0,0,0,.923,68.6Z" transform="translate(0 -64)" fill="#97ce36"/>
</svg>
