<svg id="Gluten_icon_small" xmlns="http://www.w3.org/2000/svg" xmlns:xlink="http://www.w3.org/1999/xlink" width="14.112" height="44.803" viewBox="0 0 14.112 44.803">
  <defs>
    <clipPath id="clip-path">
      <rect id="Rectangle_647" data-name="Rectangle 647" width="14.112" height="44.803" fill="none" stroke="#75ab18" stroke-width="1.5"/>
    </clipPath>
  </defs>
  <g id="Group_1014" data-name="Group 1014" clip-path="url(#clip-path)">
    <path id="Path_2539" data-name="Path 2539" d="M1.977,35.672c-.413,3.353.735,6.441,3.057,7.9a6.205,6.205,0,0,0,2.976.912,6.821,6.821,0,0,0-.039-4.1A7.473,7.473,0,0,0,1.977,35.672Z" transform="translate(-1.335 -25.139)" fill="none" stroke="#75ab18" stroke-linecap="round" stroke-linejoin="round" stroke-width="1.5"/>
    <path id="Path_2540" data-name="Path 2540" d="M30.113,36.119c.344,3.36-.867,6.424-3.219,7.839a6.2,6.2,0,0,1-2.994.85,6.821,6.821,0,0,1,.124-4.1A7.472,7.472,0,0,1,30.113,36.119Z" transform="translate(-16.66 -25.454)" fill="none" stroke="#75ab18" stroke-linecap="round" stroke-linejoin="round" stroke-width="1.5"/>
    <path id="Path_2541" data-name="Path 2541" d="M2.515,69.607c-.413,3.352.735,6.441,3.057,7.9a6.205,6.205,0,0,0,2.976.912,6.821,6.821,0,0,0-.039-4.1A7.473,7.473,0,0,0,2.515,69.607Z" transform="translate(-1.714 -49.053)" fill="none" stroke="#75ab18" stroke-linecap="round" stroke-linejoin="round" stroke-width="1.5"/>
    <path id="Path_2542" data-name="Path 2542" d="M30.652,70.053c.344,3.36-.867,6.424-3.219,7.839a6.2,6.2,0,0,1-2.994.85,6.821,6.821,0,0,1,.124-4.1A7.474,7.474,0,0,1,30.652,70.053Z" transform="translate(-17.04 -49.368)" fill="none" stroke="#75ab18" stroke-linecap="round" stroke-linejoin="round" stroke-width="1.5"/>
    <path id="Path_2543" data-name="Path 2543" d="M1.582,105.2c-.413,3.353.735,6.441,3.058,7.9a6.2,6.2,0,0,0,2.976.912,6.821,6.821,0,0,0-.039-4.1A7.473,7.473,0,0,0,1.582,105.2Z" transform="translate(-1.057 -74.136)" fill="none" stroke="#75ab18" stroke-linecap="round" stroke-linejoin="round" stroke-width="1.5"/>
    <path id="Path_2544" data-name="Path 2544" d="M29.719,105.647c.344,3.36-.867,6.424-3.219,7.839a6.2,6.2,0,0,1-2.994.85,6.823,6.823,0,0,1,.124-4.1A7.473,7.473,0,0,1,29.719,105.647Z" transform="translate(-16.383 -74.451)" fill="none" stroke="#75ab18" stroke-linecap="round" stroke-linejoin="round" stroke-width="1.5"/>
    <line id="Line_83" data-name="Line 83" y1="6.765" x2="0.08" transform="translate(3.469 4.413)" fill="none" stroke="#75ab18" stroke-linecap="round" stroke-linejoin="round" stroke-width="1.5"/>
    <line id="Line_84" data-name="Line 84" x1="0.056" y1="6.636" transform="translate(10.855 4.508)" fill="none" stroke="#75ab18" stroke-linecap="round" stroke-linejoin="round" stroke-width="1.5"/>
    <path id="Path_2545" data-name="Path 2545" d="M22.3,45.417l.53-29.345L22.96,1.5" transform="translate(-15.718 -1.057)" fill="none" stroke="#75ab18" stroke-linecap="round" stroke-linejoin="round" stroke-width="1.5"/>
  </g>
</svg>
