<svg id="GMO_icon_small" xmlns="http://www.w3.org/2000/svg" xmlns:xlink="http://www.w3.org/1999/xlink" width="14.495" height="44.803" viewBox="0 0 14.495 44.803">
  <defs>
    <clipPath id="clip-path">
      <rect id="Rectangle_645" data-name="Rectangle 645" width="14.495" height="44.803" fill="none" stroke="#75ab18" stroke-width="1.5"/>
    </clipPath>
  </defs>
  <line id="Line_76" data-name="Line 76" x1="3.977" y1="0.02" transform="translate(5.327 29.676)" fill="none" stroke="#75ab18" stroke-linecap="round" stroke-linejoin="round" stroke-width="1.5"/>
  <line id="Line_77" data-name="Line 77" x1="3.977" y1="0.02" transform="translate(5.39 14.946)" fill="none" stroke="#75ab18" stroke-linecap="round" stroke-linejoin="round" stroke-width="1.5"/>
  <g id="Group_1010" data-name="Group 1010">
    <g id="Group_1009" data-name="Group 1009" clip-path="url(#clip-path)">
      <path id="Path_2527" data-name="Path 2527" d="M18.85,56.422c.013-2.449-4.011-2.469-4-4.918s4.035-2.429,4.048-4.878-4.011-2.47-4-4.919" transform="translate(-9.524 -26.745)" fill="none" stroke="#75ab18" stroke-linecap="round" stroke-linejoin="round" stroke-width="1.5"/>
      <path id="Path_2528" data-name="Path 2528" d="M24.681,43.121a1.958,1.958,0,0,0,.547-1.357" transform="translate(-15.827 -26.782)" fill="none" stroke="#75ab18" stroke-linecap="round" stroke-linejoin="round" stroke-width="1.5"/>
      <path id="Path_2529" data-name="Path 2529" d="M15.265,53.869a1.873,1.873,0,0,1-.344-1.177A2.012,2.012,0,0,1,15.6,51.2" transform="translate(-9.568 -32.832)" fill="none" stroke="#75ab18" stroke-linecap="round" stroke-linejoin="round" stroke-width="1.5"/>
      <path id="Path_2530" data-name="Path 2530" d="M24.723,68.2a1.974,1.974,0,0,0,.077-2.49" transform="translate(-15.854 -42.138)" fill="none" stroke="#75ab18" stroke-linecap="round" stroke-linejoin="round" stroke-width="1.5"/>
      <path id="Path_2531" data-name="Path 2531" d="M14.782,80.107a1.984,1.984,0,0,1,.62-1.434" transform="translate(-9.479 -50.451)" fill="none" stroke="#75ab18" stroke-linecap="round" stroke-linejoin="round" stroke-width="1.5"/>
      <line id="Line_78" data-name="Line 78" x1="0.011" y2="8.62" transform="translate(7.242 35.645)" fill="none" stroke="#75ab18" stroke-linecap="round" stroke-linejoin="round" stroke-width="1.5"/>
      <path id="Path_2532" data-name="Path 2532" d="M15.3,4.07l-7.488-.05a.523.523,0,0,1-.52-.526L7.3,2.021A.523.523,0,0,1,7.822,1.5l8.442.008a.524.524,0,0,1,.523.526l-.007,1.52a.523.523,0,0,1-.525.521l-.955,0" transform="translate(-4.676 -0.962)" fill="none" stroke="#75ab18" stroke-linecap="round" stroke-linejoin="round" stroke-width="1.5"/>
      <path id="Path_2533" data-name="Path 2533" d="M9.384,36l-.06,19.741,3.993,2.969,3.927-2.921.038-17.5" transform="translate(-5.979 -23.084)" fill="none" stroke="#75ab18" stroke-linecap="round" stroke-linejoin="round" stroke-width="1.5"/>
      <line id="Line_79" data-name="Line 79" y1="5.852" x2="0.011" transform="translate(5.832 3.078)" fill="none" stroke="#75ab18" stroke-linecap="round" stroke-linejoin="round" stroke-width="1.5"/>
      <line id="Line_80" data-name="Line 80" y1="5.842" x2="0.008" transform="translate(8.711 3.097)" fill="none" stroke="#75ab18" stroke-linecap="round" stroke-linejoin="round" stroke-width="1.5"/>
      <path id="Path_2534" data-name="Path 2534" d="M13.7,28.912h.41c.443,0,.8-.753.808-1.686l0-.633c0-.932-.353-1.689-.8-1.691l-7.92-.06v.034l-3.753-.012c-.52,0-.945.864-.948,1.934v.044c0,1.07.415,1.939.936,1.941l11.3.123" transform="translate(-0.962 -15.932)" fill="none" stroke="#75ab18" stroke-linecap="round" stroke-linejoin="round" stroke-width="1.5"/>
      <line id="Line_81" data-name="Line 81" x2="6.592" y2="0.033" transform="translate(3.345 32.654)" fill="none" stroke="#75ab18" stroke-linecap="round" stroke-linejoin="round" stroke-width="1.5"/>
      <line id="Line_82" data-name="Line 82" x2="1.328" y2="0.007" transform="translate(9.937 32.694)" fill="none" stroke="#75ab18" stroke-linecap="round" stroke-linejoin="round" stroke-width="1.5"/>
    </g>
  </g>
</svg>
