<svg xmlns="http://www.w3.org/2000/svg" xmlns:xlink="http://www.w3.org/1999/xlink" width="126" height="126" viewBox="0 0 126 126">
  <defs>
    <filter id="Ellipse_162" x="0" y="0" width="126" height="126" filterUnits="userSpaceOnUse">
      <feOffset dy="3" input="SourceAlpha"/>
      <feGaussianBlur stdDeviation="3" result="blur"/>
      <feFlood flood-opacity="0.161"/>
      <feComposite operator="in" in2="blur"/>
      <feComposite in="SourceGraphic"/>
    </filter>
    <linearGradient id="linear-gradient" x1="0.5" x2="0.5" y2="1" gradientUnits="objectBoundingBox">
      <stop offset="0" stop-color="#9bd33a"/>
      <stop offset="1" stop-color="#75ab18"/>
    </linearGradient>
  </defs>
  <g id="money-back-guarantee-desktop" transform="translate(9 6)">
    <g transform="matrix(1, 0, 0, 1, -9, -6)" filter="url(#Ellipse_162)">
      <circle id="Ellipse_162-2" data-name="Ellipse 162" cx="54" cy="54" r="54" transform="translate(9 6)" fill="#fff"/>
    </g>
    <path id="_30-days-money-back" data-name="30-days-money-back" d="M27.725,74.307l1.589.81.3-2.573Zm10.707,1.347a.828.828,0,0,0-.424-.371c-.1-.038-.409-.121-.931-.257l-1-.25-.4,1.612.946.235a5.137,5.137,0,0,0,1.173.212.7.7,0,0,0,.424-.182.808.808,0,0,0,.25-.446.723.723,0,0,0-.038-.552m0,0a.828.828,0,0,0-.424-.371c-.1-.038-.409-.121-.931-.257l-1-.25-.4,1.612.946.235a5.137,5.137,0,0,0,1.173.212.7.7,0,0,0,.424-.182.808.808,0,0,0,.25-.446.723.723,0,0,0-.038-.552M27.725,74.307l1.589.81.3-2.573Zm0,0,1.589.81.3-2.573Zm10.707,1.347a.828.828,0,0,0-.424-.371c-.1-.038-.409-.121-.931-.257l-1-.25-.4,1.612.946.235a5.137,5.137,0,0,0,1.173.212.7.7,0,0,0,.424-.182.808.808,0,0,0,.25-.446.723.723,0,0,0-.038-.552m6.379.749-.757,2.474,1.786-.091Zm0,0-.757,2.474,1.786-.091Zm-6.379-.749a.828.828,0,0,0-.424-.371c-.1-.038-.409-.121-.931-.257l-1-.25-.4,1.612.946.235a5.137,5.137,0,0,0,1.173.212.7.7,0,0,0,.424-.182.808.808,0,0,0,.25-.446.723.723,0,0,0-.038-.552M27.725,74.307l1.589.81.3-2.573Zm0,0,1.589.81.3-2.573Zm10.707,1.347a.828.828,0,0,0-.424-.371c-.1-.038-.409-.121-.931-.257l-1-.25-.4,1.612.946.235a5.137,5.137,0,0,0,1.173.212.7.7,0,0,0,.424-.182.808.808,0,0,0,.25-.446.723.723,0,0,0-.038-.552m6.379.749-.757,2.474,1.786-.091Zm0,0-.757,2.474,1.786-.091Zm-6.379-.749a.828.828,0,0,0-.424-.371c-.1-.038-.409-.121-.931-.257l-1-.25-.4,1.612.946.235a5.137,5.137,0,0,0,1.173.212.7.7,0,0,0,.424-.182.808.808,0,0,0,.25-.446.723.723,0,0,0-.038-.552M27.725,74.307l1.589.81.3-2.573ZM68.9,52.568a25.343,25.343,0,0,1-48.232.008H4.639a40.9,40.9,0,0,0,80.308,0H68.9ZM18.69,61.557A1.788,1.788,0,0,0,17.48,60.7a2.34,2.34,0,0,0-1.65.462,2.557,2.557,0,0,0-1.18,1.385A1.736,1.736,0,0,0,14.9,64a2.267,2.267,0,0,0,.59.613,2.911,2.911,0,0,0,.719.386l.7-.454-.825-1.271.923-.6,1.551,2.391-2.187,1.423a3.541,3.541,0,0,1-1.249-.62A4.482,4.482,0,0,1,13.991,64.7a3.612,3.612,0,0,1-.613-1.733,2.724,2.724,0,0,1,.409-1.634,3.948,3.948,0,0,1,1.256-1.271,3.745,3.745,0,0,1,1.756-.628,2.894,2.894,0,0,1,1.7.393,3.429,3.429,0,0,1,1.127,1.135,3.145,3.145,0,0,1,.605,1.877,2.335,2.335,0,0,1-.7,1.513l-.923-.969a1.371,1.371,0,0,0,.356-.855,1.5,1.5,0,0,0-.272-.969m4.094,10.836a1.911,1.911,0,0,1-.855.318,2.027,2.027,0,0,1-.923-.151,3.274,3.274,0,0,1-1.044-.734,3.606,3.606,0,0,1-.87-1.143,2.117,2.117,0,0,1-.159-.938,1.845,1.845,0,0,1,.235-.779,7.914,7.914,0,0,1,1.059-1.286l2.429-2.512.953.916-2.459,2.55a7.345,7.345,0,0,0-.726.817,1.085,1.085,0,0,0-.159.742,1.4,1.4,0,0,0,.462.779,1.348,1.348,0,0,0,.772.424.92.92,0,0,0,.636-.166,8.164,8.164,0,0,0,.817-.757l2.512-2.6.953.916-2.4,2.49a8.712,8.712,0,0,1-1.233,1.12m7.529,6.137-1.279-.651L29.2,76.3,26.87,75.109l-1.158,1.082-1.249-.636,5.244-4.676,1.249.636Zm9.5-2.073a1.761,1.761,0,0,1-.711,1.075,2.05,2.05,0,0,1-1.4.272,3.207,3.207,0,0,1,.552.7,7.971,7.971,0,0,1,.469,1.211l.469,1.43-1.536-.386-.583-1.612a8.667,8.667,0,0,0-.446-1.1,1.079,1.079,0,0,0-.318-.363,2.147,2.147,0,0,0-.628-.235l-.257-.061-.658,2.648-1.286-.318,1.581-6.349,2.7.673a4.733,4.733,0,0,1,1.438.537,1.5,1.5,0,0,1,.59.795,2.019,2.019,0,0,1,.023,1.082m7.151,4.858-.651-1.453L43.707,80l-.462,1.513-1.4.076,2.2-6.666,1.392-.076,2.959,6.4Zm8.445-1.438L51.7,76.5l1.173,4.1-1.18.341-1.8-6.288,1.233-.356L54.9,77.765l-1.2-4.2,1.18-.341,1.8,6.288Zm6.3-2.5-2.8-4.661-1.665,1-.568-.946,4.457-2.679.568.946-1.657,1,2.8,4.661Zm5.577-3.723-4.29-4.941,3.662-3.186.726.832L64.72,68.67l.953,1.1,2.482-2.157.726.832L66.4,70.6l1.165,1.347,2.762-2.4.726.832Zm6.19-6.054-5.357-3.753L70.9,59.87l.908.636L69.782,63.4l1.188.832,1.884-2.694.9.628-1.884,2.694,1.46,1.022,2.1-3,.9.636ZM44.055,78.878l1.786-.091-1.029-2.376Zm-6.046-3.594c-.1-.038-.409-.121-.931-.257l-1-.25-.4,1.612.946.235a5.137,5.137,0,0,0,1.173.212.7.7,0,0,0,.424-.182.808.808,0,0,0,.25-.446.74.74,0,0,0-.462-.923m-8.694-.166.3-2.573-1.892,1.763Zm-1.589-.81,1.589.81.3-2.573Zm10.707,1.347a.828.828,0,0,0-.424-.371c-.1-.038-.409-.121-.931-.257l-1-.25-.4,1.612.946.235a5.137,5.137,0,0,0,1.173.212.7.7,0,0,0,.424-.182.808.808,0,0,0,.25-.446.723.723,0,0,0-.038-.552m6.379.749-.757,2.474,1.786-.091Zm0,0-.757,2.474,1.786-.091Zm-6.379-.749a.828.828,0,0,0-.424-.371c-.1-.038-.409-.121-.931-.257l-1-.25-.4,1.612.946.235a5.137,5.137,0,0,0,1.173.212.7.7,0,0,0,.424-.182.808.808,0,0,0,.25-.446.723.723,0,0,0-.038-.552M27.725,74.307l1.589.81.3-2.573Zm0,0,1.589.81.3-2.573Zm10.707,1.347a.828.828,0,0,0-.424-.371c-.1-.038-.409-.121-.931-.257l-1-.25-.4,1.612.946.235a5.137,5.137,0,0,0,1.173.212.7.7,0,0,0,.424-.182.808.808,0,0,0,.25-.446.723.723,0,0,0-.038-.552m6.379.749-.757,2.474,1.786-.091Zm0,0-.757,2.474,1.786-.091Zm-6.379-.749a.828.828,0,0,0-.424-.371c-.1-.038-.409-.121-.931-.257l-1-.25-.4,1.612.946.235a5.137,5.137,0,0,0,1.173.212.7.7,0,0,0,.424-.182.808.808,0,0,0,.25-.446.723.723,0,0,0-.038-.552M27.725,74.307l1.589.81.3-2.573Zm0,0,1.589.81.3-2.573Zm0,0,1.589.81.3-2.573ZM25.712,17.623A2.488,2.488,0,0,0,24.29,16.6a1.658,1.658,0,0,0-1.37.371,1.7,1.7,0,0,0-.7,1.256,2.5,2.5,0,0,0,.643,1.642,2.457,2.457,0,0,0,1.445,1.014,1.763,1.763,0,0,0,2.051-1.6,2.543,2.543,0,0,0-.651-1.665m0,0A2.488,2.488,0,0,0,24.29,16.6a1.658,1.658,0,0,0-1.37.371,1.7,1.7,0,0,0-.7,1.256,2.5,2.5,0,0,0,.643,1.642,2.457,2.457,0,0,0,1.445,1.014,1.763,1.763,0,0,0,2.051-1.6,2.543,2.543,0,0,0-.651-1.665m0,0A2.488,2.488,0,0,0,24.29,16.6a1.658,1.658,0,0,0-1.37.371,1.7,1.7,0,0,0-.7,1.256,2.5,2.5,0,0,0,.643,1.642,2.457,2.457,0,0,0,1.445,1.014,1.763,1.763,0,0,0,2.051-1.6,2.543,2.543,0,0,0-.651-1.665m0,0A2.488,2.488,0,0,0,24.29,16.6a1.658,1.658,0,0,0-1.37.371,1.7,1.7,0,0,0-.7,1.256,2.5,2.5,0,0,0,.643,1.642,2.457,2.457,0,0,0,1.445,1.014,1.763,1.763,0,0,0,2.051-1.6,2.543,2.543,0,0,0-.651-1.665m0,0A2.488,2.488,0,0,0,24.29,16.6a1.658,1.658,0,0,0-1.37.371,1.7,1.7,0,0,0-.7,1.256,2.5,2.5,0,0,0,.643,1.642,2.457,2.457,0,0,0,1.445,1.014,1.763,1.763,0,0,0,2.051-1.6,2.543,2.543,0,0,0-.651-1.665m29-3.587a.84.84,0,0,0-.318-.393,4.777,4.777,0,0,0-1.1-.393l-1.029-.272L51.8,14.665l1.18.318a6.522,6.522,0,0,0,.885.2.841.841,0,0,0,.53-.129.783.783,0,0,0,.325-.492.871.871,0,0,0-.015-.522m.454-2.717a.768.768,0,0,0-.424-.348c-.121-.045-.484-.151-1.082-.318l-.734-.2-.393,1.46.832.227q.749.2.931.227a.844.844,0,0,0,.575-.091.686.686,0,0,0,.318-.446.635.635,0,0,0-.023-.515m4.026,4.389,1.589.81.3-2.573Zm0,0,1.589.81.3-2.573ZM55.163,11.32a.768.768,0,0,0-.424-.348c-.121-.045-.484-.151-1.082-.318l-.734-.2-.393,1.46.832.227q.749.2.931.227a.844.844,0,0,0,.575-.091.686.686,0,0,0,.318-.446.635.635,0,0,0-.023-.515m-.454,2.717a.84.84,0,0,0-.318-.393,4.777,4.777,0,0,0-1.1-.393l-1.029-.272L51.8,14.665l1.18.318a6.522,6.522,0,0,0,.885.2.841.841,0,0,0,.53-.129.783.783,0,0,0,.325-.492.871.871,0,0,0-.015-.522m-29,3.587A2.488,2.488,0,0,0,24.29,16.6a1.658,1.658,0,0,0-1.37.371,1.7,1.7,0,0,0-.7,1.256,2.5,2.5,0,0,0,.643,1.642,2.457,2.457,0,0,0,1.445,1.014,1.763,1.763,0,0,0,2.051-1.6,2.543,2.543,0,0,0-.651-1.665m0,0A2.488,2.488,0,0,0,24.29,16.6a1.658,1.658,0,0,0-1.37.371,1.7,1.7,0,0,0-.7,1.256,2.5,2.5,0,0,0,.643,1.642,2.457,2.457,0,0,0,1.445,1.014,1.763,1.763,0,0,0,2.051-1.6,2.543,2.543,0,0,0-.651-1.665m29-3.587a.84.84,0,0,0-.318-.393,4.777,4.777,0,0,0-1.1-.393l-1.029-.272L51.8,14.665l1.18.318a6.522,6.522,0,0,0,.885.2.841.841,0,0,0,.53-.129.783.783,0,0,0,.325-.492.871.871,0,0,0-.015-.522m.454-2.717a.768.768,0,0,0-.424-.348c-.121-.045-.484-.151-1.082-.318l-.734-.2-.393,1.46.832.227q.749.2.931.227a.844.844,0,0,0,.575-.091.686.686,0,0,0,.318-.446.635.635,0,0,0-.023-.515m4.026,4.389,1.589.81.3-2.573Zm0,0,1.589.81.3-2.573ZM55.163,11.32a.768.768,0,0,0-.424-.348c-.121-.045-.484-.151-1.082-.318l-.734-.2-.393,1.46.832.227q.749.2.931.227a.844.844,0,0,0,.575-.091.686.686,0,0,0,.318-.446.635.635,0,0,0-.023-.515m-.454,2.717a.84.84,0,0,0-.318-.393,4.777,4.777,0,0,0-1.1-.393l-1.029-.272L51.8,14.665l1.18.318a6.522,6.522,0,0,0,.885.2.841.841,0,0,0,.53-.129.783.783,0,0,0,.325-.492.871.871,0,0,0-.015-.522m-29,3.587A2.488,2.488,0,0,0,24.29,16.6a1.658,1.658,0,0,0-1.37.371,1.7,1.7,0,0,0-.7,1.256,2.5,2.5,0,0,0,.643,1.642,2.457,2.457,0,0,0,1.445,1.014,1.763,1.763,0,0,0,2.051-1.6,2.543,2.543,0,0,0-.651-1.665m0,0A2.488,2.488,0,0,0,24.29,16.6a1.658,1.658,0,0,0-1.37.371,1.7,1.7,0,0,0-.7,1.256,2.5,2.5,0,0,0,.643,1.642,2.457,2.457,0,0,0,1.445,1.014,1.763,1.763,0,0,0,2.051-1.6,2.543,2.543,0,0,0-.651-1.665m29-3.587a.84.84,0,0,0-.318-.393,4.777,4.777,0,0,0-1.1-.393l-1.029-.272L51.8,14.665l1.18.318a6.522,6.522,0,0,0,.885.2.841.841,0,0,0,.53-.129.783.783,0,0,0,.325-.492.871.871,0,0,0-.015-.522m.454-2.717a.768.768,0,0,0-.424-.348c-.121-.045-.484-.151-1.082-.318l-.734-.2-.393,1.46.832.227q.749.2.931.227a.844.844,0,0,0,.575-.091.686.686,0,0,0,.318-.446.635.635,0,0,0-.023-.515m4.026,4.389,1.589.81.3-2.573Zm0,0,1.589.81.3-2.573ZM55.163,11.32a.768.768,0,0,0-.424-.348c-.121-.045-.484-.151-1.082-.318l-.734-.2-.393,1.46.832.227q.749.2.931.227a.844.844,0,0,0,.575-.091.686.686,0,0,0,.318-.446.635.635,0,0,0-.023-.515m-.454,2.717a.84.84,0,0,0-.318-.393,4.777,4.777,0,0,0-1.1-.393l-1.029-.272L51.8,14.665l1.18.318a6.522,6.522,0,0,0,.885.2.841.841,0,0,0,.53-.129.783.783,0,0,0,.325-.492.871.871,0,0,0-.015-.522m-29,3.587A2.488,2.488,0,0,0,24.29,16.6a1.658,1.658,0,0,0-1.37.371,1.7,1.7,0,0,0-.7,1.256,2.5,2.5,0,0,0,.643,1.642,2.457,2.457,0,0,0,1.445,1.014,1.763,1.763,0,0,0,2.051-1.6,2.543,2.543,0,0,0-.651-1.665m0,0A2.488,2.488,0,0,0,24.29,16.6a1.658,1.658,0,0,0-1.37.371,1.7,1.7,0,0,0-.7,1.256,2.5,2.5,0,0,0,.643,1.642,2.457,2.457,0,0,0,1.445,1.014,1.763,1.763,0,0,0,2.051-1.6,2.543,2.543,0,0,0-.651-1.665m29-3.587a.84.84,0,0,0-.318-.393,4.777,4.777,0,0,0-1.1-.393l-1.029-.272L51.8,14.665l1.18.318a6.522,6.522,0,0,0,.885.2.841.841,0,0,0,.53-.129.783.783,0,0,0,.325-.492.871.871,0,0,0-.015-.522m.454-2.717a.768.768,0,0,0-.424-.348c-.121-.045-.484-.151-1.082-.318l-.734-.2-.393,1.46.832.227q.749.2.931.227a.844.844,0,0,0,.575-.091.686.686,0,0,0,.318-.446.635.635,0,0,0-.023-.515m4.026,4.389,1.589.81.3-2.573Zm0,0,1.589.81.3-2.573ZM55.163,11.32a.768.768,0,0,0-.424-.348c-.121-.045-.484-.151-1.082-.318l-.734-.2-.393,1.46.832.227q.749.2.931.227a.844.844,0,0,0,.575-.091.686.686,0,0,0,.318-.446.635.635,0,0,0-.023-.515m-.454,2.717a.84.84,0,0,0-.318-.393,4.777,4.777,0,0,0-1.1-.393l-1.029-.272L51.8,14.665l1.18.318a6.522,6.522,0,0,0,.885.2.841.841,0,0,0,.53-.129.783.783,0,0,0,.325-.492.871.871,0,0,0-.015-.522m-29,3.587A2.488,2.488,0,0,0,24.29,16.6a1.658,1.658,0,0,0-1.37.371,1.7,1.7,0,0,0-.7,1.256,2.5,2.5,0,0,0,.643,1.642,2.457,2.457,0,0,0,1.445,1.014,1.763,1.763,0,0,0,2.051-1.6,2.543,2.543,0,0,0-.651-1.665m0,0A2.488,2.488,0,0,0,24.29,16.6a1.658,1.658,0,0,0-1.37.371,1.7,1.7,0,0,0-.7,1.256,2.5,2.5,0,0,0,.643,1.642,2.457,2.457,0,0,0,1.445,1.014,1.763,1.763,0,0,0,2.051-1.6,2.543,2.543,0,0,0-.651-1.665m29-3.587a.84.84,0,0,0-.318-.393,4.777,4.777,0,0,0-1.1-.393l-1.029-.272L51.8,14.665l1.18.318a6.522,6.522,0,0,0,.885.2.841.841,0,0,0,.53-.129.783.783,0,0,0,.325-.492.871.871,0,0,0-.015-.522m.454-2.717a.768.768,0,0,0-.424-.348c-.121-.045-.484-.151-1.082-.318l-.734-.2-.393,1.46.832.227q.749.2.931.227a.844.844,0,0,0,.575-.091.686.686,0,0,0,.318-.446.635.635,0,0,0-.023-.515m4.026,4.389,1.589.81.3-2.573Zm0,0,1.589.81.3-2.573ZM55.163,11.32a.768.768,0,0,0-.424-.348c-.121-.045-.484-.151-1.082-.318l-.734-.2-.393,1.46.832.227q.749.2.931.227a.844.844,0,0,0,.575-.091.686.686,0,0,0,.318-.446.635.635,0,0,0-.023-.515m-.454,2.717a.84.84,0,0,0-.318-.393,4.777,4.777,0,0,0-1.1-.393l-1.029-.272L51.8,14.665l1.18.318a6.522,6.522,0,0,0,.885.2.841.841,0,0,0,.53-.129.783.783,0,0,0,.325-.492.871.871,0,0,0-.015-.522m-29,3.587A2.488,2.488,0,0,0,24.29,16.6a1.658,1.658,0,0,0-1.37.371,1.7,1.7,0,0,0-.7,1.256,2.5,2.5,0,0,0,.643,1.642,2.457,2.457,0,0,0,1.445,1.014,1.763,1.763,0,0,0,2.051-1.6,2.543,2.543,0,0,0-.651-1.665m0,0A2.488,2.488,0,0,0,24.29,16.6a1.658,1.658,0,0,0-1.37.371,1.7,1.7,0,0,0-.7,1.256,2.5,2.5,0,0,0,.643,1.642,2.457,2.457,0,0,0,1.445,1.014,1.763,1.763,0,0,0,2.051-1.6,2.543,2.543,0,0,0-.651-1.665m29-3.587a.84.84,0,0,0-.318-.393,4.777,4.777,0,0,0-1.1-.393l-1.029-.272L51.8,14.665l1.18.318a6.522,6.522,0,0,0,.885.2.841.841,0,0,0,.53-.129.783.783,0,0,0,.325-.492.871.871,0,0,0-.015-.522m.454-2.717a.768.768,0,0,0-.424-.348c-.121-.045-.484-.151-1.082-.318l-.734-.2-.393,1.46.832.227q.749.2.931.227a.844.844,0,0,0,.575-.091.686.686,0,0,0,.318-.446.635.635,0,0,0-.023-.515m4.026,4.389,1.589.81.3-2.573Zm0,0,1.589.81.3-2.573ZM55.163,11.32a.768.768,0,0,0-.424-.348c-.121-.045-.484-.151-1.082-.318l-.734-.2-.393,1.46.832.227q.749.2.931.227a.844.844,0,0,0,.575-.091.686.686,0,0,0,.318-.446.635.635,0,0,0-.023-.515m-.772,2.323a4.777,4.777,0,0,0-1.1-.393l-1.029-.272L51.8,14.665l1.18.318a6.522,6.522,0,0,0,.885.2.841.841,0,0,0,.53-.129.783.783,0,0,0,.325-.492.873.873,0,0,0-.008-.522.813.813,0,0,0-.325-.393m-28.679,3.98A2.488,2.488,0,0,0,24.29,16.6a1.658,1.658,0,0,0-1.37.371,1.7,1.7,0,0,0-.7,1.256,2.5,2.5,0,0,0,.643,1.642,2.457,2.457,0,0,0,1.445,1.014,1.763,1.763,0,0,0,2.051-1.6,2.543,2.543,0,0,0-.651-1.665M44.789,3.889A40.908,40.908,0,0,0,4.639,37H20.68A25.34,25.34,0,0,1,68.9,37H84.946A40.923,40.923,0,0,0,44.789,3.889M22.33,25.1l-4-3.239,3.186,4.253-.8.991-4.82-2.232,4,3.239-.772.953-5.085-4.116,1.241-1.536L19.492,25.3l-2.732-3.723,1.249-1.544,5.085,4.116Zm5.327-5.811a3.03,3.03,0,0,1-1.264,2.119,3.082,3.082,0,0,1-2.376.726,3.371,3.371,0,0,1-2.187-1.4,4.165,4.165,0,0,1-.795-1.506,3.242,3.242,0,0,1-.076-1.082,2.583,2.583,0,0,1,.3-.984,3.579,3.579,0,0,1,.953-1.075,3.088,3.088,0,0,1,2.376-.719A3.409,3.409,0,0,1,26.81,16.8a3.455,3.455,0,0,1,.847,2.49m5.554-2-4.147-2.822,1.733,3.9-1.12.5-2.664-5.978,1.173-.522,4.222,2.906-1.778-4,1.12-.5,2.664,5.978Zm2.55-1.12L34.4,9.769l4.744-1.006.227,1.082-3.451.734.3,1.423,3.216-.681.227,1.075-3.216.681.371,1.74,3.579-.757.227,1.082Zm8.914-3.95.045,2.747L43.4,14.99l-.045-2.754L40.9,8.49l1.551-.03,1.589,2.565L45.5,8.407l1.521-.023Zm10.2,4.041a1.911,1.911,0,0,1-.938.068c-.219-.038-.734-.159-1.551-.371l-2.149-.575,1.695-6.318,2.527.681a8.129,8.129,0,0,1,1.1.363,1.632,1.632,0,0,1,.59.439,1.607,1.607,0,0,1,.341.658,1.492,1.492,0,0,1-.008.795,1.536,1.536,0,0,1-.454.749,1.569,1.569,0,0,1-.795.386,1.709,1.709,0,0,1,.734.81,1.564,1.564,0,0,1,.053,1.037,1.856,1.856,0,0,1-1.15,1.279m6.893,3.67-1.279-.651.166-1.581-2.331-1.188-1.158,1.082-1.249-.636,5.244-4.676,1.249.636ZM66,23.056a2.781,2.781,0,0,1-1.665-.719,2.815,2.815,0,0,1-1.067-2.058,3.394,3.394,0,0,1,.923-2.406,3.587,3.587,0,0,1,2.278-1.4,2.892,2.892,0,0,1,2.278.734,2.7,2.7,0,0,1,1.037,1.8,2.573,2.573,0,0,1-.265,1.354l-1.2-.605a1.357,1.357,0,0,0-.356-1.733,1.484,1.484,0,0,0-1.241-.356,2.568,2.568,0,0,0-1.43,1.006,2.775,2.775,0,0,0-.795,1.642,1.422,1.422,0,0,0,.552,1.15,1.33,1.33,0,0,0,.908.325,1.963,1.963,0,0,0,1.1-.454l.719,1.135A2.859,2.859,0,0,1,66,23.056m4.707,6.621L69.7,28.293l1.43-3.261L69.616,24.8l-1.6,1.165L67.24,24.9l5.3-3.844.779,1.067-2.353,1.71,3.92.454,1.044,1.438-3.511-.492ZM60.778,16.519l.3-2.573-1.892,1.763Zm-6.038-5.554c-.121-.045-.484-.151-1.082-.318l-.734-.2-.393,1.46.832.227q.749.2.931.227a.844.844,0,0,0,.575-.091.686.686,0,0,0,.318-.446.718.718,0,0,0-.03-.522.747.747,0,0,0-.416-.341m-.348,2.679a4.777,4.777,0,0,0-1.1-.393l-1.029-.272L51.8,14.665l1.18.318a6.522,6.522,0,0,0,.885.2.841.841,0,0,0,.53-.129.783.783,0,0,0,.325-.492.873.873,0,0,0-.008-.522.813.813,0,0,0-.325-.393M24.29,16.6a1.658,1.658,0,0,0-1.37.371,1.7,1.7,0,0,0-.7,1.256,2.5,2.5,0,0,0,.643,1.642,2.457,2.457,0,0,0,1.445,1.014,1.763,1.763,0,0,0,2.051-1.6,2.5,2.5,0,0,0-.651-1.657A2.471,2.471,0,0,0,24.29,16.6m1.423,1.022A2.488,2.488,0,0,0,24.29,16.6a1.658,1.658,0,0,0-1.37.371,1.7,1.7,0,0,0-.7,1.256,2.5,2.5,0,0,0,.643,1.642,2.457,2.457,0,0,0,1.445,1.014,1.763,1.763,0,0,0,2.051-1.6,2.543,2.543,0,0,0-.651-1.665m29-3.587a.84.84,0,0,0-.318-.393,4.777,4.777,0,0,0-1.1-.393l-1.029-.272L51.8,14.665l1.18.318a6.522,6.522,0,0,0,.885.2.841.841,0,0,0,.53-.129.783.783,0,0,0,.325-.492.871.871,0,0,0-.015-.522m.454-2.717a.768.768,0,0,0-.424-.348c-.121-.045-.484-.151-1.082-.318l-.734-.2-.393,1.46.832.227q.749.2.931.227a.844.844,0,0,0,.575-.091.686.686,0,0,0,.318-.446.635.635,0,0,0-.023-.515m4.026,4.389,1.589.81.3-2.573Zm0,0,1.589.81.3-2.573ZM55.163,11.32a.768.768,0,0,0-.424-.348c-.121-.045-.484-.151-1.082-.318l-.734-.2-.393,1.46.832.227q.749.2.931.227a.844.844,0,0,0,.575-.091.686.686,0,0,0,.318-.446.635.635,0,0,0-.023-.515m-.454,2.717a.84.84,0,0,0-.318-.393,4.777,4.777,0,0,0-1.1-.393l-1.029-.272L51.8,14.665l1.18.318a6.522,6.522,0,0,0,.885.2.841.841,0,0,0,.53-.129.783.783,0,0,0,.325-.492.871.871,0,0,0-.015-.522m-29,3.587A2.488,2.488,0,0,0,24.29,16.6a1.658,1.658,0,0,0-1.37.371,1.7,1.7,0,0,0-.7,1.256,2.5,2.5,0,0,0,.643,1.642,2.457,2.457,0,0,0,1.445,1.014,1.763,1.763,0,0,0,2.051-1.6,2.543,2.543,0,0,0-.651-1.665m0,0A2.488,2.488,0,0,0,24.29,16.6a1.658,1.658,0,0,0-1.37.371,1.7,1.7,0,0,0-.7,1.256,2.5,2.5,0,0,0,.643,1.642,2.457,2.457,0,0,0,1.445,1.014,1.763,1.763,0,0,0,2.051-1.6,2.543,2.543,0,0,0-.651-1.665m29-3.587a.84.84,0,0,0-.318-.393,4.777,4.777,0,0,0-1.1-.393l-1.029-.272L51.8,14.665l1.18.318a6.522,6.522,0,0,0,.885.2.841.841,0,0,0,.53-.129.783.783,0,0,0,.325-.492.871.871,0,0,0-.015-.522m.454-2.717a.768.768,0,0,0-.424-.348c-.121-.045-.484-.151-1.082-.318l-.734-.2-.393,1.46.832.227q.749.2.931.227a.844.844,0,0,0,.575-.091.686.686,0,0,0,.318-.446.635.635,0,0,0-.023-.515m4.026,4.389,1.589.81.3-2.573Zm0,0,1.589.81.3-2.573ZM55.163,11.32a.768.768,0,0,0-.424-.348c-.121-.045-.484-.151-1.082-.318l-.734-.2-.393,1.46.832.227q.749.2.931.227a.844.844,0,0,0,.575-.091.686.686,0,0,0,.318-.446.635.635,0,0,0-.023-.515m-.454,2.717a.84.84,0,0,0-.318-.393,4.777,4.777,0,0,0-1.1-.393l-1.029-.272L51.8,14.665l1.18.318a6.522,6.522,0,0,0,.885.2.841.841,0,0,0,.53-.129.783.783,0,0,0,.325-.492.871.871,0,0,0-.015-.522m-29,3.587A2.488,2.488,0,0,0,24.29,16.6a1.658,1.658,0,0,0-1.37.371,1.7,1.7,0,0,0-.7,1.256,2.5,2.5,0,0,0,.643,1.642,2.457,2.457,0,0,0,1.445,1.014,1.763,1.763,0,0,0,2.051-1.6,2.543,2.543,0,0,0-.651-1.665m0,0A2.488,2.488,0,0,0,24.29,16.6a1.658,1.658,0,0,0-1.37.371,1.7,1.7,0,0,0-.7,1.256,2.5,2.5,0,0,0,.643,1.642,2.457,2.457,0,0,0,1.445,1.014,1.763,1.763,0,0,0,2.051-1.6,2.543,2.543,0,0,0-.651-1.665m29-3.587a.84.84,0,0,0-.318-.393,4.777,4.777,0,0,0-1.1-.393l-1.029-.272L51.8,14.665l1.18.318a6.522,6.522,0,0,0,.885.2.841.841,0,0,0,.53-.129.783.783,0,0,0,.325-.492.871.871,0,0,0-.015-.522m.454-2.717a.768.768,0,0,0-.424-.348c-.121-.045-.484-.151-1.082-.318l-.734-.2-.393,1.46.832.227q.749.2.931.227a.844.844,0,0,0,.575-.091.686.686,0,0,0,.318-.446.635.635,0,0,0-.023-.515m4.026,4.389,1.589.81.3-2.573Zm0,0,1.589.81.3-2.573ZM55.163,11.32a.768.768,0,0,0-.424-.348c-.121-.045-.484-.151-1.082-.318l-.734-.2-.393,1.46.832.227q.749.2.931.227a.844.844,0,0,0,.575-.091.686.686,0,0,0,.318-.446.635.635,0,0,0-.023-.515m-.454,2.717a.84.84,0,0,0-.318-.393,4.777,4.777,0,0,0-1.1-.393l-1.029-.272L51.8,14.665l1.18.318a6.522,6.522,0,0,0,.885.2.841.841,0,0,0,.53-.129.783.783,0,0,0,.325-.492.871.871,0,0,0-.015-.522m-29,3.587A2.488,2.488,0,0,0,24.29,16.6a1.658,1.658,0,0,0-1.37.371,1.7,1.7,0,0,0-.7,1.256,2.5,2.5,0,0,0,.643,1.642,2.457,2.457,0,0,0,1.445,1.014,1.763,1.763,0,0,0,2.051-1.6,2.543,2.543,0,0,0-.651-1.665m0,0A2.488,2.488,0,0,0,24.29,16.6a1.658,1.658,0,0,0-1.37.371,1.7,1.7,0,0,0-.7,1.256,2.5,2.5,0,0,0,.643,1.642,2.457,2.457,0,0,0,1.445,1.014,1.763,1.763,0,0,0,2.051-1.6,2.543,2.543,0,0,0-.651-1.665m29-3.587a.84.84,0,0,0-.318-.393,4.777,4.777,0,0,0-1.1-.393l-1.029-.272L51.8,14.665l1.18.318a6.522,6.522,0,0,0,.885.2.841.841,0,0,0,.53-.129.783.783,0,0,0,.325-.492.871.871,0,0,0-.015-.522m.454-2.717a.768.768,0,0,0-.424-.348c-.121-.045-.484-.151-1.082-.318l-.734-.2-.393,1.46.832.227q.749.2.931.227a.844.844,0,0,0,.575-.091.686.686,0,0,0,.318-.446.635.635,0,0,0-.023-.515m4.026,4.389,1.589.81.3-2.573Zm0,0,1.589.81.3-2.573ZM55.163,11.32a.768.768,0,0,0-.424-.348c-.121-.045-.484-.151-1.082-.318l-.734-.2-.393,1.46.832.227q.749.2.931.227a.844.844,0,0,0,.575-.091.686.686,0,0,0,.318-.446.635.635,0,0,0-.023-.515m-.454,2.717a.84.84,0,0,0-.318-.393,4.777,4.777,0,0,0-1.1-.393l-1.029-.272L51.8,14.665l1.18.318a6.522,6.522,0,0,0,.885.2.841.841,0,0,0,.53-.129.783.783,0,0,0,.325-.492.871.871,0,0,0-.015-.522m-29,3.587A2.488,2.488,0,0,0,24.29,16.6a1.658,1.658,0,0,0-1.37.371,1.7,1.7,0,0,0-.7,1.256,2.5,2.5,0,0,0,.643,1.642,2.457,2.457,0,0,0,1.445,1.014,1.763,1.763,0,0,0,2.051-1.6,2.543,2.543,0,0,0-.651-1.665m0,0A2.488,2.488,0,0,0,24.29,16.6a1.658,1.658,0,0,0-1.37.371,1.7,1.7,0,0,0-.7,1.256,2.5,2.5,0,0,0,.643,1.642,2.457,2.457,0,0,0,1.445,1.014,1.763,1.763,0,0,0,2.051-1.6,2.543,2.543,0,0,0-.651-1.665m29-3.587a.84.84,0,0,0-.318-.393,4.777,4.777,0,0,0-1.1-.393l-1.029-.272L51.8,14.665l1.18.318a6.522,6.522,0,0,0,.885.2.841.841,0,0,0,.53-.129.783.783,0,0,0,.325-.492.871.871,0,0,0-.015-.522m.454-2.717a.768.768,0,0,0-.424-.348c-.121-.045-.484-.151-1.082-.318l-.734-.2-.393,1.46.832.227q.749.2.931.227a.844.844,0,0,0,.575-.091.686.686,0,0,0,.318-.446.635.635,0,0,0-.023-.515m4.026,4.389,1.589.81.3-2.573Zm0,0,1.589.81.3-2.573ZM55.163,11.32a.768.768,0,0,0-.424-.348c-.121-.045-.484-.151-1.082-.318l-.734-.2-.393,1.46.832.227q.749.2.931.227a.844.844,0,0,0,.575-.091.686.686,0,0,0,.318-.446.635.635,0,0,0-.023-.515m-.454,2.717a.84.84,0,0,0-.318-.393,4.777,4.777,0,0,0-1.1-.393l-1.029-.272L51.8,14.665l1.18.318a6.522,6.522,0,0,0,.885.2.841.841,0,0,0,.53-.129.783.783,0,0,0,.325-.492.871.871,0,0,0-.015-.522m-29,3.587A2.488,2.488,0,0,0,24.29,16.6a1.658,1.658,0,0,0-1.37.371,1.7,1.7,0,0,0-.7,1.256,2.5,2.5,0,0,0,.643,1.642,2.457,2.457,0,0,0,1.445,1.014,1.763,1.763,0,0,0,2.051-1.6,2.543,2.543,0,0,0-.651-1.665m0,0A2.488,2.488,0,0,0,24.29,16.6a1.658,1.658,0,0,0-1.37.371,1.7,1.7,0,0,0-.7,1.256,2.5,2.5,0,0,0,.643,1.642,2.457,2.457,0,0,0,1.445,1.014,1.763,1.763,0,0,0,2.051-1.6,2.543,2.543,0,0,0-.651-1.665m29-3.587a.84.84,0,0,0-.318-.393,4.777,4.777,0,0,0-1.1-.393l-1.029-.272L51.8,14.665l1.18.318a6.522,6.522,0,0,0,.885.2.841.841,0,0,0,.53-.129.783.783,0,0,0,.325-.492.871.871,0,0,0-.015-.522m.454-2.717a.768.768,0,0,0-.424-.348c-.121-.045-.484-.151-1.082-.318l-.734-.2-.393,1.46.832.227q.749.2.931.227a.844.844,0,0,0,.575-.091.686.686,0,0,0,.318-.446.635.635,0,0,0-.023-.515m0,0a.768.768,0,0,0-.424-.348c-.121-.045-.484-.151-1.082-.318l-.734-.2-.393,1.46.832.227q.749.2.931.227a.844.844,0,0,0,.575-.091.686.686,0,0,0,.318-.446.635.635,0,0,0-.023-.515m-.454,2.717a.84.84,0,0,0-.318-.393,4.777,4.777,0,0,0-1.1-.393l-1.029-.272L51.8,14.665l1.18.318a6.522,6.522,0,0,0,.885.2.841.841,0,0,0,.53-.129.783.783,0,0,0,.325-.492.871.871,0,0,0-.015-.522m-29,3.587A2.488,2.488,0,0,0,24.29,16.6a1.658,1.658,0,0,0-1.37.371,1.7,1.7,0,0,0-.7,1.256,2.5,2.5,0,0,0,.643,1.642,2.457,2.457,0,0,0,1.445,1.014,1.763,1.763,0,0,0,2.051-1.6,2.543,2.543,0,0,0-.651-1.665m0,0A2.488,2.488,0,0,0,24.29,16.6a1.658,1.658,0,0,0-1.37.371,1.7,1.7,0,0,0-.7,1.256,2.5,2.5,0,0,0,.643,1.642,2.457,2.457,0,0,0,1.445,1.014,1.763,1.763,0,0,0,2.051-1.6,2.543,2.543,0,0,0-.651-1.665m0,0A2.488,2.488,0,0,0,24.29,16.6a1.658,1.658,0,0,0-1.37.371,1.7,1.7,0,0,0-.7,1.256,2.5,2.5,0,0,0,.643,1.642,2.457,2.457,0,0,0,1.445,1.014,1.763,1.763,0,0,0,2.051-1.6,2.543,2.543,0,0,0-.651-1.665m0,0A2.488,2.488,0,0,0,24.29,16.6a1.658,1.658,0,0,0-1.37.371,1.7,1.7,0,0,0-.7,1.256,2.5,2.5,0,0,0,.643,1.642,2.457,2.457,0,0,0,1.445,1.014,1.763,1.763,0,0,0,2.051-1.6,2.543,2.543,0,0,0-.651-1.665m0,0A2.488,2.488,0,0,0,24.29,16.6a1.658,1.658,0,0,0-1.37.371,1.7,1.7,0,0,0-.7,1.256,2.5,2.5,0,0,0,.643,1.642,2.457,2.457,0,0,0,1.445,1.014,1.763,1.763,0,0,0,2.051-1.6,2.543,2.543,0,0,0-.651-1.665m16.549,35.61H40.339l-3.5,8.99h1.93l.742-2.043H43.1l.787,2.043h1.975Zm-2.194,5.433,1.211-3.337,1.241,3.337Zm10.987-5.433L48.981,56.79l-2.119-3.556H44.736l3.292,5.206v3.783h1.808V58.447l3.307-5.221H51.054Zm9.489,4.941a2.629,2.629,0,0,0-.991-.916,9.11,9.11,0,0,0-1.96-.651,4.828,4.828,0,0,1-1.672-.6.688.688,0,0,1-.272-.545.669.669,0,0,1,.288-.56,2.051,2.051,0,0,1,1.241-.325,1.83,1.83,0,0,1,1.15.3,1.536,1.536,0,0,1,.5,1l1.816-.076a2.623,2.623,0,0,0-.9-1.983,3.826,3.826,0,0,0-2.55-.742,4.6,4.6,0,0,0-1.771.31,2.49,2.49,0,0,0-1.12.908,2.364,2.364,0,0,0,.446,3.095,4.985,4.985,0,0,0,2.051.893c.757.189,1.241.318,1.453.393a1.474,1.474,0,0,1,.651.386.8.8,0,0,1,.189.545,1.115,1.115,0,0,1-.446.87A2.413,2.413,0,0,1,56,60.437a2.109,2.109,0,0,1-.643-1.309L53.6,59.3a3.438,3.438,0,0,0,1.09,2.3,3.906,3.906,0,0,0,2.618.787,5.1,5.1,0,0,0,1.96-.325,2.527,2.527,0,0,0,1.211-1.006,2.626,2.626,0,0,0,.431-1.445,2.718,2.718,0,0,0-.363-1.438M35.92,55.685a3.868,3.868,0,0,0-.863-1.453A3,3,0,0,0,33.7,53.4a6.5,6.5,0,0,0-1.71-.174H28.671v8.99h3.413a5.368,5.368,0,0,0,1.6-.189,3.117,3.117,0,0,0,1.271-.719,3.861,3.861,0,0,0,.961-1.589A5.975,5.975,0,0,0,36.2,57.8a6.28,6.28,0,0,0-.28-2.119m-1.763,3.693a1.876,1.876,0,0,1-.477.87,1.647,1.647,0,0,1-.734.371,4.792,4.792,0,0,1-1.1.083H30.495V54.747h.817a8.713,8.713,0,0,1,1.491.083,1.706,1.706,0,0,1,.84.424,2.033,2.033,0,0,1,.515.87,5.431,5.431,0,0,1,.182,1.6,5.934,5.934,0,0,1-.182,1.657M77.584,39.946,79.112,43.2l3.564.446-2.618,2.459.673,3.526L77.584,47.9l-3.148,1.733.681-3.526-2.626-2.459,3.564-.446Zm-65.59,0L13.522,43.2l3.564.446L14.46,46.105l.681,3.526L11.994,47.9,8.846,49.632l.673-3.526L6.9,43.646l3.564-.446ZM44.789,0A44.789,44.789,0,1,0,89.577,44.789,44.8,44.8,0,0,0,44.789,0m0,86.982A42.193,42.193,0,1,1,86.982,44.789,42.2,42.2,0,0,1,44.789,86.982M58.636,29.519A6.1,6.1,0,0,0,53.551,27.2a6.075,6.075,0,0,0-5.062,2.293q-2.2,2.769-2.2,9.1,0,6.447,2,8.952a6.386,6.386,0,0,0,5.267,2.512,6.115,6.115,0,0,0,5.07-2.285q2.2-2.781,2.2-9.133-.011-6.368-2.187-9.111m-2.747,14.7A3.37,3.37,0,0,1,54.944,46a2.182,2.182,0,0,1-2.77.008,3.829,3.829,0,0,1-1-1.967,24.878,24.878,0,0,1-.393-5.41,24.418,24.418,0,0,1,.446-5.6,3.46,3.46,0,0,1,.946-1.786,2.2,2.2,0,0,1,2.77,0,3.9,3.9,0,0,1,1,1.967,24.913,24.913,0,0,1,.393,5.418,25.2,25.2,0,0,1-.446,5.592M42.473,39.484A5.188,5.188,0,0,0,39.4,37.638c2.149-1.165,3.224-2.739,3.224-4.7a5.27,5.27,0,0,0-1.574-3.723,6.635,6.635,0,0,0-5.07-2.013,7.862,7.862,0,0,0-3.337.7,5.574,5.574,0,0,0-2.315,1.907,8.844,8.844,0,0,0-1.249,3.246l3.958.666a3.563,3.563,0,0,1,.946-2.225,2.581,2.581,0,0,1,1.877-.764A2.317,2.317,0,0,1,38.319,33.2a2.72,2.72,0,0,1-.916,2.134,3.828,3.828,0,0,1-2.656.757l-.477,3.488a7.567,7.567,0,0,1,1.967-.318,2.747,2.747,0,0,1,2.119.946,3.622,3.622,0,0,1,.87,2.565,3.9,3.9,0,0,1-.908,2.717,3.006,3.006,0,0,1-4.343.166A3.923,3.923,0,0,1,32.9,43.237l-4.147.5a6.865,6.865,0,0,0,2.323,4.578,7.375,7.375,0,0,0,5.04,1.748,7.436,7.436,0,0,0,5.357-2.073,6.736,6.736,0,0,0,2.149-5.024,5.387,5.387,0,0,0-1.15-3.481" transform="matrix(0.985, 0.174, -0.174, 0.985, 17.557, 1.695)" fill="url(#linear-gradient)"/>
  </g>
</svg>
