<svg id="money-back-guarantee-desktop" xmlns="http://www.w3.org/2000/svg" xmlns:xlink="http://www.w3.org/1999/xlink" width="126.271" height="126.271" viewBox="0 0 126.271 126.271">
  <defs>
    <filter id="Ellipse_162" x="0" y="0" width="126.271" height="126.271" filterUnits="userSpaceOnUse">
      <feOffset dy="3" input="SourceAlpha"/>
      <feGaussianBlur stdDeviation="3" result="blur"/>
      <feFlood flood-opacity="0.161"/>
      <feComposite operator="in" in2="blur"/>
      <feComposite in="SourceGraphic"/>
    </filter>
    <linearGradient id="linear-gradient" x1="0.5" x2="0.5" y2="1" gradientUnits="objectBoundingBox">
      <stop offset="0" stop-color="#9bd33a"/>
      <stop offset="1" stop-color="#75ab18"/>
    </linearGradient>
  </defs>
  <g transform="matrix(1, 0, 0, 1, 0, 0)" filter="url(#Ellipse_162)">
    <path id="Ellipse_162-2" data-name="Ellipse 162" d="M63.135,6a53.966,53.966,0,1,1-21.072,4.254A53.965,53.965,0,0,1,63.135,6Z" fill="#fff"/>
  </g>
  <path id="_30-days-money-back" data-name="30-days-money-back" d="M30.031,78.188l1.428,1.076.747-2.487Zm10.337,3.194a.724.724,0,0,0-.052-.123.745.745,0,0,0-.076-.114.883.883,0,0,0-.1-.105,1.158,1.158,0,0,0-.126-.1q-.034-.02-.106-.056l-.181-.088-.256-.12-.331-.152-.943-.42-.677,1.521.893.4q.217.1.4.171t.319.127q.14.052.242.081a.9.9,0,0,0,.164.034.82.82,0,0,0,.122,0,.72.72,0,0,0,.116-.017.66.66,0,0,0,.211-.09.711.711,0,0,0,.1-.071.736.736,0,0,0,.086-.089.856.856,0,0,0,.075-.108,1.09,1.09,0,0,0,.065-.129.9.9,0,0,0,.057-.143.759.759,0,0,0,.029-.141.675.675,0,0,0,0-.137.646.646,0,0,0-.027-.132m0,0a.724.724,0,0,0-.052-.123.745.745,0,0,0-.076-.114.883.883,0,0,0-.1-.105,1.158,1.158,0,0,0-.126-.1q-.034-.02-.106-.056l-.181-.088-.256-.12-.331-.152-.943-.42-.677,1.521.893.4q.217.1.4.171t.319.127q.14.052.242.081a.9.9,0,0,0,.164.034.82.82,0,0,0,.122,0,.72.72,0,0,0,.116-.017.66.66,0,0,0,.211-.09.711.711,0,0,0,.1-.071.736.736,0,0,0,.086-.089.856.856,0,0,0,.075-.108,1.09,1.09,0,0,0,.065-.129.9.9,0,0,0,.057-.143.759.759,0,0,0,.029-.141.675.675,0,0,0,0-.137.646.646,0,0,0-.027-.132M30.031,78.188l1.428,1.076.747-2.487Zm0,0,1.428,1.076.747-2.487Zm10.337,3.194a.724.724,0,0,0-.052-.123.745.745,0,0,0-.076-.114.883.883,0,0,0-.1-.105,1.158,1.158,0,0,0-.126-.1q-.034-.02-.106-.056l-.181-.088-.256-.12-.331-.152-.943-.42-.677,1.521.893.4q.217.1.4.171t.319.127q.14.052.242.081a.9.9,0,0,0,.164.034.82.82,0,0,0,.122,0,.72.72,0,0,0,.116-.017.66.66,0,0,0,.211-.09.711.711,0,0,0,.1-.071.736.736,0,0,0,.086-.089.856.856,0,0,0,.075-.108,1.09,1.09,0,0,0,.065-.129.9.9,0,0,0,.057-.143.759.759,0,0,0,.029-.141.675.675,0,0,0,0-.137.646.646,0,0,0-.027-.132m6.167,1.85-1.178,2.311,1.779.221Zm0,0-1.178,2.311,1.779.221Zm-6.167-1.85a.724.724,0,0,0-.052-.123.745.745,0,0,0-.076-.114.883.883,0,0,0-.1-.105,1.158,1.158,0,0,0-.126-.1q-.034-.02-.106-.056l-.181-.088-.256-.12-.331-.152-.943-.42-.677,1.521.893.4q.217.1.4.171t.319.127q.14.052.242.081a.9.9,0,0,0,.164.034.82.82,0,0,0,.122,0,.72.72,0,0,0,.116-.017.66.66,0,0,0,.211-.09.711.711,0,0,0,.1-.071.736.736,0,0,0,.086-.089.856.856,0,0,0,.075-.108,1.09,1.09,0,0,0,.065-.129.9.9,0,0,0,.057-.143.759.759,0,0,0,.029-.141.675.675,0,0,0,0-.137.646.646,0,0,0-.027-.132M30.031,78.188l1.428,1.076.747-2.487Zm0,0,1.428,1.076.747-2.487Zm10.337,3.194a.724.724,0,0,0-.052-.123.745.745,0,0,0-.076-.114.883.883,0,0,0-.1-.105,1.158,1.158,0,0,0-.126-.1q-.034-.02-.106-.056l-.181-.088-.256-.12-.331-.152-.943-.42-.677,1.521.893.4q.217.1.4.171t.319.127q.14.052.242.081a.9.9,0,0,0,.164.034.82.82,0,0,0,.122,0,.72.72,0,0,0,.116-.017.66.66,0,0,0,.211-.09.711.711,0,0,0,.1-.071.736.736,0,0,0,.086-.089.856.856,0,0,0,.075-.108,1.09,1.09,0,0,0,.065-.129.9.9,0,0,0,.057-.143.759.759,0,0,0,.029-.141.675.675,0,0,0,0-.137.646.646,0,0,0-.027-.132m6.167,1.85-1.178,2.311,1.779.221Zm0,0-1.178,2.311,1.779.221Zm-6.167-1.85a.724.724,0,0,0-.052-.123.745.745,0,0,0-.076-.114.883.883,0,0,0-.1-.105,1.158,1.158,0,0,0-.126-.1q-.034-.02-.106-.056l-.181-.088-.256-.12-.331-.152-.943-.42-.677,1.521.893.4q.217.1.4.171t.319.127q.14.052.242.081a.9.9,0,0,0,.164.034.82.82,0,0,0,.122,0,.72.72,0,0,0,.116-.017.66.66,0,0,0,.211-.09.711.711,0,0,0,.1-.071.736.736,0,0,0,.086-.089.856.856,0,0,0,.075-.108,1.09,1.09,0,0,0,.065-.129.9.9,0,0,0,.057-.143.759.759,0,0,0,.029-.141.675.675,0,0,0,0-.137.646.646,0,0,0-.027-.132M30.031,78.188l1.428,1.076.747-2.487Zm44.44-14.295A25.41,25.41,0,0,1,26.851,55.5l-15.83-2.791a40.762,40.762,0,0,0,2.658,13.837,41.011,41.011,0,0,0,69.4,12.233,40.755,40.755,0,0,0,7.23-12.09L74.469,63.9Zm-51.14.134a2.436,2.436,0,0,0-.194-.366,1.881,1.881,0,0,0-.239-.3,1.624,1.624,0,0,0-.986-.475,1.994,1.994,0,0,0-.409,0,2.684,2.684,0,0,0-.446.084,3.777,3.777,0,0,0-.482.169,4.362,4.362,0,0,0-.491.244,3,3,0,0,0-.4.275,2.139,2.139,0,0,0-.305.306,1.675,1.675,0,0,0-.212.337,1.777,1.777,0,0,0-.125.356,1.639,1.639,0,0,0-.043.365,1.753,1.753,0,0,0,.04.374,2.133,2.133,0,0,0,.122.383q.041.1.091.189t.11.181q.06.088.128.173t.147.165q.078.08.158.152t.16.135q.081.063.162.118t.163.1l.766-.327-.593-1.4,1.015-.429,1.115,2.631-2.407,1.024a2.222,2.222,0,0,1-.272-.136,3.033,3.033,0,0,1-.278-.185q-.14-.1-.284-.232t-.29-.278q-.146-.153-.277-.313t-.244-.329q-.114-.169-.211-.347t-.177-.365a4.56,4.56,0,0,1-.169-.469,3.83,3.83,0,0,1-.107-.459,3.361,3.361,0,0,1-.045-.449,3.121,3.121,0,0,1,.017-.441,2.837,2.837,0,0,1,.079-.424,2.673,2.673,0,0,1,.141-.4,2.713,2.713,0,0,1,.2-.373,2.958,2.958,0,0,1,.265-.348,3.865,3.865,0,0,1,.66-.594,3.993,3.993,0,0,1,.383-.24,4.31,4.31,0,0,1,.418-.2,4.66,4.66,0,0,1,.471-.17,3.958,3.958,0,0,1,.464-.11,3.5,3.5,0,0,1,.457-.049,3.276,3.276,0,0,1,.451.013,3,3,0,0,1,.437.076,2.839,2.839,0,0,1,.415.139,2.885,2.885,0,0,1,.392.2,3.146,3.146,0,0,1,.369.267,2.578,2.578,0,0,1,.262.253,3.085,3.085,0,0,1,.24.3,3.8,3.8,0,0,1,.218.355q.1.19.2.406a4.987,4.987,0,0,1,.194.544,3.625,3.625,0,0,1,.11.508,2.7,2.7,0,0,1,.026.472,2.146,2.146,0,0,1-.059.434,2.309,2.309,0,0,1-.137.4,2.231,2.231,0,0,1-.205.362,2.372,2.372,0,0,1-.274.325,2.747,2.747,0,0,1-.342.288l-.743-1.117a1.557,1.557,0,0,0,.178-.166,1.388,1.388,0,0,0,.143-.186,1.324,1.324,0,0,0,.108-.205,1.363,1.363,0,0,0,.071-.224,1.333,1.333,0,0,0,.043-.247,1.352,1.352,0,0,0,0-.248,1.594,1.594,0,0,0-.049-.251,2.12,2.12,0,0,0-.09-.258m2.155,11.411a2.379,2.379,0,0,1-.229.084,2,2,0,0,1-.225.056,1.787,1.787,0,0,1-.223.027,1.712,1.712,0,0,1-.222,0,1.916,1.916,0,0,1-.222-.035,1.963,1.963,0,0,1-.222-.063,2.075,2.075,0,0,1-.221-.091,2.258,2.258,0,0,1-.22-.121,2.159,2.159,0,0,1-.225-.16,2.842,2.842,0,0,1-.225-.2q-.113-.113-.226-.249t-.227-.294q-.137-.189-.248-.364t-.193-.336a2.932,2.932,0,0,1-.138-.306,1.8,1.8,0,0,1-.081-.274,2.554,2.554,0,0,1-.039-.254,2.249,2.249,0,0,1-.012-.244,1.994,1.994,0,0,1,.015-.234,1.79,1.79,0,0,1,.042-.222,1.986,1.986,0,0,1,.065-.207,1.859,1.859,0,0,1,.084-.19,1.811,1.811,0,0,1,.1-.174,1.841,1.841,0,0,1,.117-.159q.095-.11.221-.233t.286-.257q.159-.135.35-.284t.413-.312l2.835-2.057.782,1.07-2.872,2.09q-.172.123-.312.228t-.247.191q-.108.086-.183.152t-.118.11a1.23,1.23,0,0,0-.121.161,1.1,1.1,0,0,0-.088.171,1.05,1.05,0,0,0-.055.182,1.093,1.093,0,0,0-.022.191.951.951,0,0,0,.016.2,1.191,1.191,0,0,0,.06.209,1.629,1.629,0,0,0,.1.215,2.316,2.316,0,0,0,.143.222,2.513,2.513,0,0,0,.168.2,1.621,1.621,0,0,0,.169.16,1.1,1.1,0,0,0,.173.116.843.843,0,0,0,.178.072,1.023,1.023,0,0,0,.173.032.916.916,0,0,0,.167,0,.9.9,0,0,0,.161-.029.959.959,0,0,0,.155-.058q.076-.039.173-.1t.214-.132q.117-.075.255-.17t.3-.208l2.933-2.133.782,1.07-2.8,2.04q-.238.172-.445.314t-.384.254q-.176.112-.322.193a2.819,2.819,0,0,1-.261.13m6.365,7.369L30.7,81.942l.44-1.532-2.094-1.579-1.331.867-1.122-.845,5.991-3.7,1.122.845Zm9.744-.392a2.278,2.278,0,0,1-.169.311,1.834,1.834,0,0,1-.2.259,1.622,1.622,0,0,1-.516.366,1.529,1.529,0,0,1-.311.1,1.793,1.793,0,0,1-.342.038,2.3,2.3,0,0,1-.373-.025,3.088,3.088,0,0,1-.4-.088q.072.1.134.2t.116.2q.053.1.1.2t.076.192q.032.1.064.227t.064.288q.032.159.063.35t.061.412l.214,1.494-1.449-.648L38.421,84.6q-.038-.226-.073-.413t-.066-.333q-.031-.146-.059-.252t-.051-.171q-.023-.065-.051-.123a1.17,1.17,0,0,0-.059-.11A.985.985,0,0,0,38,83.1a.86.86,0,0,0-.075-.084.817.817,0,0,0-.1-.079q-.056-.04-.129-.083t-.161-.087q-.089-.045-.193-.092l-.243-.1-1.111,2.5-1.215-.538,2.667-5.993,2.55,1.135q.241.106.444.208t.369.2q.165.1.294.191a2.048,2.048,0,0,1,.219.182,1.5,1.5,0,0,1,.165.188,1.444,1.444,0,0,1,.129.211,1.517,1.517,0,0,1,.093.233,1.725,1.725,0,0,1,.057.256,2.084,2.084,0,0,1,.014.274,1.975,1.975,0,0,1-.023.269,2.018,2.018,0,0,1-.06.266,2.219,2.219,0,0,1-.1.263m6.214,6.041-.39-1.548-2.6-.32L44.1,88l-1.4-.169,3.334-6.2,1.388.168,1.807,6.835Zm8.588.051-3.081-3.979.444,4.253-1.225.131-.683-6.522,1.28-.136,3.125,4.079L55.8,81.977l1.225-.131.683,6.522Zm6.652-1.377L61.1,82.041l-1.817.7-.4-1.033,4.867-1.869.4,1.033-1.81.7,1.953,5.089Zm6.154-2.7L65.826,78.8,70,76.292l.572.948-3.033,1.822.75,1.249,2.826-1.7.572.948-2.826,1.7.916,1.533,3.144-1.887.572.948Zm7.165-4.9-4.636-4.638,3.441-3.437.786.786-2.505,2.5,1.028,1.029,2.329-2.332.78.777L75.26,76.543l1.264,1.263,2.591-2.593.778.784Zm-31.01,6.017,1.779.221-.6-2.525Zm-5.343-4.6q-.034-.02-.106-.056l-.181-.088-.256-.12-.331-.152-.943-.42-.677,1.521.893.4q.217.1.4.171t.319.127q.14.052.242.081a.9.9,0,0,0,.164.034.82.82,0,0,0,.122,0,.72.72,0,0,0,.116-.017.66.66,0,0,0,.211-.09.711.711,0,0,0,.1-.071.736.736,0,0,0,.086-.089.856.856,0,0,0,.075-.108,1.09,1.09,0,0,0,.065-.129,1.045,1.045,0,0,0,.054-.148.835.835,0,0,0,.027-.143.7.7,0,0,0,0-.138.651.651,0,0,0-.027-.132.673.673,0,0,0-.048-.119.715.715,0,0,0-.073-.113.81.81,0,0,0-.1-.1.972.972,0,0,0-.127-.094m-8.555-1.678.747-2.487-2.175,1.411Zm-1.428-1.076,1.428,1.076.747-2.487Zm10.337,3.194a.724.724,0,0,0-.052-.123.745.745,0,0,0-.076-.114.883.883,0,0,0-.1-.105,1.158,1.158,0,0,0-.126-.1q-.034-.02-.106-.056l-.181-.088-.256-.12-.331-.152-.943-.42-.677,1.521.893.4q.217.1.4.171t.319.127q.14.052.242.081a.9.9,0,0,0,.164.034.82.82,0,0,0,.122,0,.72.72,0,0,0,.116-.017.66.66,0,0,0,.211-.09.711.711,0,0,0,.1-.071.736.736,0,0,0,.086-.089.856.856,0,0,0,.075-.108,1.09,1.09,0,0,0,.065-.129.9.9,0,0,0,.057-.143.759.759,0,0,0,.029-.141.675.675,0,0,0,0-.137.646.646,0,0,0-.027-.132m6.167,1.85-1.178,2.311,1.779.221Zm0,0-1.178,2.311,1.779.221Zm-6.167-1.85a.724.724,0,0,0-.052-.123.745.745,0,0,0-.076-.114.883.883,0,0,0-.1-.105,1.158,1.158,0,0,0-.126-.1q-.034-.02-.106-.056l-.181-.088-.256-.12-.331-.152-.943-.42-.677,1.521.893.4q.217.1.4.171t.319.127q.14.052.242.081a.9.9,0,0,0,.164.034.82.82,0,0,0,.122,0,.72.72,0,0,0,.116-.017.66.66,0,0,0,.211-.09.711.711,0,0,0,.1-.071.736.736,0,0,0,.086-.089.856.856,0,0,0,.075-.108,1.09,1.09,0,0,0,.065-.129.9.9,0,0,0,.057-.143.759.759,0,0,0,.029-.141.675.675,0,0,0,0-.137.646.646,0,0,0-.027-.132M30.031,78.188l1.428,1.076.747-2.487Zm0,0,1.428,1.076.747-2.487Zm10.337,3.194a.724.724,0,0,0-.052-.123.745.745,0,0,0-.076-.114.883.883,0,0,0-.1-.105,1.158,1.158,0,0,0-.126-.1q-.034-.02-.106-.056l-.181-.088-.256-.12-.331-.152-.943-.42-.677,1.521.893.4q.217.1.4.171t.319.127q.14.052.242.081a.9.9,0,0,0,.164.034.82.82,0,0,0,.122,0,.72.72,0,0,0,.116-.017.66.66,0,0,0,.211-.09.711.711,0,0,0,.1-.071.736.736,0,0,0,.086-.089.856.856,0,0,0,.075-.108,1.09,1.09,0,0,0,.065-.129.9.9,0,0,0,.057-.143.759.759,0,0,0,.029-.141.675.675,0,0,0,0-.137.646.646,0,0,0-.027-.132m6.167,1.85-1.178,2.311,1.779.221Zm0,0-1.178,2.311,1.779.221Zm-6.167-1.85a.724.724,0,0,0-.052-.123.745.745,0,0,0-.076-.114.883.883,0,0,0-.1-.105,1.158,1.158,0,0,0-.126-.1q-.034-.02-.106-.056l-.181-.088-.256-.12-.331-.152-.943-.42-.677,1.521.893.4q.217.1.4.171t.319.127q.14.052.242.081a.9.9,0,0,0,.164.034.82.82,0,0,0,.122,0,.72.72,0,0,0,.116-.017.66.66,0,0,0,.211-.09.711.711,0,0,0,.1-.071.736.736,0,0,0,.086-.089.856.856,0,0,0,.075-.108,1.09,1.09,0,0,0,.065-.129.9.9,0,0,0,.057-.143.759.759,0,0,0,.029-.141.675.675,0,0,0,0-.137.646.646,0,0,0-.027-.132M30.031,78.188l1.428,1.076.747-2.487Zm0,0,1.428,1.076.747-2.487Zm0,0,1.428,1.076.747-2.487Zm7.881-56.313a4.235,4.235,0,0,0-.276-.452,2.928,2.928,0,0,0-.3-.36,2.081,2.081,0,0,0-.317-.268,1.6,1.6,0,0,0-.686-.266,1.549,1.549,0,0,0-.354-.008,1.7,1.7,0,0,0-.356.073,2.087,2.087,0,0,0-.357.152,2.011,2.011,0,0,0-.328.213,1.7,1.7,0,0,0-.26.259,1.623,1.623,0,0,0-.192.3,1.778,1.778,0,0,0-.126.344,1.648,1.648,0,0,0-.044.382,2.094,2.094,0,0,0,.043.416,2.933,2.933,0,0,0,.131.45,4.281,4.281,0,0,0,.219.485,3.991,3.991,0,0,0,.274.447,2.833,2.833,0,0,0,.3.358,2.092,2.092,0,0,0,.326.269,1.692,1.692,0,0,0,.351.179,1.809,1.809,0,0,0,.362.093,1.623,1.623,0,0,0,.358.013,1.662,1.662,0,0,0,.353-.066,1.974,1.974,0,0,0,.665-.353,1.647,1.647,0,0,0,.252-.256,1.625,1.625,0,0,0,.188-.3,1.855,1.855,0,0,0,.125-.348,1.692,1.692,0,0,0,.045-.392,2.135,2.135,0,0,0-.044-.423,2.975,2.975,0,0,0-.133-.455,4.323,4.323,0,0,0-.22-.487m0,0a4.235,4.235,0,0,0-.276-.452,2.928,2.928,0,0,0-.3-.36,2.081,2.081,0,0,0-.317-.268,1.6,1.6,0,0,0-.686-.266,1.549,1.549,0,0,0-.354-.008,1.7,1.7,0,0,0-.356.073,2.087,2.087,0,0,0-.357.152,2.011,2.011,0,0,0-.328.213,1.7,1.7,0,0,0-.26.259,1.623,1.623,0,0,0-.192.3,1.778,1.778,0,0,0-.126.344,1.648,1.648,0,0,0-.044.382,2.094,2.094,0,0,0,.043.416,2.933,2.933,0,0,0,.131.45,4.281,4.281,0,0,0,.219.485,3.991,3.991,0,0,0,.274.447,2.833,2.833,0,0,0,.3.358,2.092,2.092,0,0,0,.326.269,1.692,1.692,0,0,0,.351.179,1.809,1.809,0,0,0,.362.093,1.623,1.623,0,0,0,.358.013,1.662,1.662,0,0,0,.353-.066,1.974,1.974,0,0,0,.665-.353,1.647,1.647,0,0,0,.252-.256,1.625,1.625,0,0,0,.188-.3,1.855,1.855,0,0,0,.125-.348,1.692,1.692,0,0,0,.045-.392,2.135,2.135,0,0,0-.044-.423,2.975,2.975,0,0,0-.133-.455,4.323,4.323,0,0,0-.22-.487m0,0a4.235,4.235,0,0,0-.276-.452,2.928,2.928,0,0,0-.3-.36,2.081,2.081,0,0,0-.317-.268,1.6,1.6,0,0,0-.686-.266,1.549,1.549,0,0,0-.354-.008,1.7,1.7,0,0,0-.356.073,2.087,2.087,0,0,0-.357.152,2.011,2.011,0,0,0-.328.213,1.7,1.7,0,0,0-.26.259,1.623,1.623,0,0,0-.192.3,1.778,1.778,0,0,0-.126.344,1.648,1.648,0,0,0-.044.382,2.094,2.094,0,0,0,.043.416,2.933,2.933,0,0,0,.131.45,4.281,4.281,0,0,0,.219.485,3.991,3.991,0,0,0,.274.447,2.833,2.833,0,0,0,.3.358,2.092,2.092,0,0,0,.326.269,1.692,1.692,0,0,0,.351.179,1.809,1.809,0,0,0,.362.093,1.623,1.623,0,0,0,.358.013,1.662,1.662,0,0,0,.353-.066,1.974,1.974,0,0,0,.665-.353,1.647,1.647,0,0,0,.252-.256,1.625,1.625,0,0,0,.188-.3,1.855,1.855,0,0,0,.125-.348,1.692,1.692,0,0,0,.045-.392,2.135,2.135,0,0,0-.044-.423,2.975,2.975,0,0,0-.133-.455,4.323,4.323,0,0,0-.22-.487m0,0a4.235,4.235,0,0,0-.276-.452,2.928,2.928,0,0,0-.3-.36,2.081,2.081,0,0,0-.317-.268,1.6,1.6,0,0,0-.686-.266,1.549,1.549,0,0,0-.354-.008,1.7,1.7,0,0,0-.356.073,2.087,2.087,0,0,0-.357.152,2.011,2.011,0,0,0-.328.213,1.7,1.7,0,0,0-.26.259,1.623,1.623,0,0,0-.192.3,1.778,1.778,0,0,0-.126.344,1.648,1.648,0,0,0-.044.382,2.094,2.094,0,0,0,.043.416,2.933,2.933,0,0,0,.131.45,4.281,4.281,0,0,0,.219.485,3.991,3.991,0,0,0,.274.447,2.833,2.833,0,0,0,.3.358,2.092,2.092,0,0,0,.326.269,1.692,1.692,0,0,0,.351.179,1.809,1.809,0,0,0,.362.093,1.623,1.623,0,0,0,.358.013,1.662,1.662,0,0,0,.353-.066,1.974,1.974,0,0,0,.665-.353,1.647,1.647,0,0,0,.252-.256,1.625,1.625,0,0,0,.188-.3,1.855,1.855,0,0,0,.125-.348,1.692,1.692,0,0,0,.045-.392,2.135,2.135,0,0,0-.044-.423,2.975,2.975,0,0,0-.133-.455,4.323,4.323,0,0,0-.22-.487m0,0a4.235,4.235,0,0,0-.276-.452,2.928,2.928,0,0,0-.3-.36,2.081,2.081,0,0,0-.317-.268,1.6,1.6,0,0,0-.686-.266,1.549,1.549,0,0,0-.354-.008,1.7,1.7,0,0,0-.356.073,2.087,2.087,0,0,0-.357.152,2.011,2.011,0,0,0-.328.213,1.7,1.7,0,0,0-.26.259,1.623,1.623,0,0,0-.192.3,1.778,1.778,0,0,0-.126.344,1.648,1.648,0,0,0-.044.382,2.094,2.094,0,0,0,.043.416,2.933,2.933,0,0,0,.131.45,4.281,4.281,0,0,0,.219.485,3.991,3.991,0,0,0,.274.447,2.833,2.833,0,0,0,.3.358,2.092,2.092,0,0,0,.326.269,1.692,1.692,0,0,0,.351.179,1.809,1.809,0,0,0,.362.093,1.623,1.623,0,0,0,.358.013,1.662,1.662,0,0,0,.353-.066,1.974,1.974,0,0,0,.665-.353,1.647,1.647,0,0,0,.252-.256,1.625,1.625,0,0,0,.188-.3,1.855,1.855,0,0,0,.125-.348,1.692,1.692,0,0,0,.045-.392,2.135,2.135,0,0,0-.044-.423,2.975,2.975,0,0,0-.133-.455,4.323,4.323,0,0,0-.22-.487m29.252,1.507a.786.786,0,0,0-.086-.236.87.87,0,0,0-.071-.107,1.034,1.034,0,0,0-.089-.1,1.1,1.1,0,0,0-.142-.11q-.09-.061-.218-.133t-.294-.157q-.165-.084-.368-.181l-.969-.448L64.185,23.5l1.11.519.3.135q.134.06.239.1t.181.072a1.174,1.174,0,0,0,.123.039.937.937,0,0,0,.143.025.86.86,0,0,0,.139,0,.815.815,0,0,0,.135-.02.8.8,0,0,0,.129-.042.614.614,0,0,0,.123-.066.687.687,0,0,0,.108-.094.87.87,0,0,0,.094-.121,1.183,1.183,0,0,0,.081-.147,1.218,1.218,0,0,0,.049-.133.948.948,0,0,0,.03-.13.786.786,0,0,0,.009-.128.711.711,0,0,0-.013-.126m.921-2.6a.568.568,0,0,0-.05-.117.664.664,0,0,0-.077-.108.87.87,0,0,0-.1-.1,1.21,1.21,0,0,0-.128-.092q-.042-.025-.126-.069l-.211-.107-.3-.145-.379-.182-.69-.322-.643,1.373.782.369.319.149.253.114q.11.048.187.079t.121.044a1.357,1.357,0,0,0,.159.041.949.949,0,0,0,.15.017.73.73,0,0,0,.141-.009.651.651,0,0,0,.134-.037.616.616,0,0,0,.122-.059.629.629,0,0,0,.106-.084.723.723,0,0,0,.09-.109.907.907,0,0,0,.074-.133.746.746,0,0,0,.06-.131.64.64,0,0,0,.03-.13.607.607,0,0,0,0-.127.636.636,0,0,0-.024-.124m3.21,5.034,1.428,1.076.747-2.487Zm0,0,1.428,1.076.747-2.487Zm-3.21-5.034a.568.568,0,0,0-.05-.117.664.664,0,0,0-.077-.108.87.87,0,0,0-.1-.1,1.21,1.21,0,0,0-.128-.092q-.042-.025-.126-.069l-.211-.107-.3-.145-.379-.182-.69-.322-.643,1.373.782.369.319.149.253.114q.11.048.187.079t.121.044a1.357,1.357,0,0,0,.159.041.949.949,0,0,0,.15.017.73.73,0,0,0,.141-.009.651.651,0,0,0,.134-.037.616.616,0,0,0,.122-.059.629.629,0,0,0,.106-.084.723.723,0,0,0,.09-.109.907.907,0,0,0,.074-.133.746.746,0,0,0,.06-.131.64.64,0,0,0,.03-.13.607.607,0,0,0,0-.127.636.636,0,0,0-.024-.124m-.921,2.6a.786.786,0,0,0-.086-.236.87.87,0,0,0-.071-.107,1.034,1.034,0,0,0-.089-.1,1.1,1.1,0,0,0-.142-.11q-.09-.061-.218-.133t-.294-.157q-.165-.084-.368-.181l-.969-.448L64.185,23.5l1.11.519.3.135q.134.06.239.1t.181.072a1.174,1.174,0,0,0,.123.039.937.937,0,0,0,.143.025.86.86,0,0,0,.139,0,.815.815,0,0,0,.135-.02.8.8,0,0,0,.129-.042.614.614,0,0,0,.123-.066.687.687,0,0,0,.108-.094.87.87,0,0,0,.094-.121,1.183,1.183,0,0,0,.081-.147,1.218,1.218,0,0,0,.049-.133.948.948,0,0,0,.03-.13.786.786,0,0,0,.009-.128.711.711,0,0,0-.013-.126M37.911,21.875a4.235,4.235,0,0,0-.276-.452,2.928,2.928,0,0,0-.3-.36,2.081,2.081,0,0,0-.317-.268,1.6,1.6,0,0,0-.686-.266,1.549,1.549,0,0,0-.354-.008,1.7,1.7,0,0,0-.356.073,2.087,2.087,0,0,0-.357.152,2.011,2.011,0,0,0-.328.213,1.7,1.7,0,0,0-.26.259,1.623,1.623,0,0,0-.192.3,1.778,1.778,0,0,0-.126.344,1.648,1.648,0,0,0-.044.382,2.094,2.094,0,0,0,.043.416,2.933,2.933,0,0,0,.131.45,4.281,4.281,0,0,0,.219.485,3.991,3.991,0,0,0,.274.447,2.833,2.833,0,0,0,.3.358,2.092,2.092,0,0,0,.326.269,1.692,1.692,0,0,0,.351.179,1.809,1.809,0,0,0,.362.093,1.623,1.623,0,0,0,.358.013,1.662,1.662,0,0,0,.353-.066,1.974,1.974,0,0,0,.665-.353,1.647,1.647,0,0,0,.252-.256,1.625,1.625,0,0,0,.188-.3,1.855,1.855,0,0,0,.125-.348,1.692,1.692,0,0,0,.045-.392,2.135,2.135,0,0,0-.044-.423,2.975,2.975,0,0,0-.133-.455,4.323,4.323,0,0,0-.22-.487m0,0a4.235,4.235,0,0,0-.276-.452,2.928,2.928,0,0,0-.3-.36,2.081,2.081,0,0,0-.317-.268,1.6,1.6,0,0,0-.686-.266,1.549,1.549,0,0,0-.354-.008,1.7,1.7,0,0,0-.356.073,2.087,2.087,0,0,0-.357.152,2.011,2.011,0,0,0-.328.213,1.7,1.7,0,0,0-.26.259,1.623,1.623,0,0,0-.192.3,1.778,1.778,0,0,0-.126.344,1.648,1.648,0,0,0-.044.382,2.094,2.094,0,0,0,.043.416,2.933,2.933,0,0,0,.131.45,4.281,4.281,0,0,0,.219.485,3.991,3.991,0,0,0,.274.447,2.833,2.833,0,0,0,.3.358,2.092,2.092,0,0,0,.326.269,1.692,1.692,0,0,0,.351.179,1.809,1.809,0,0,0,.362.093,1.623,1.623,0,0,0,.358.013,1.662,1.662,0,0,0,.353-.066,1.974,1.974,0,0,0,.665-.353,1.647,1.647,0,0,0,.252-.256,1.625,1.625,0,0,0,.188-.3,1.855,1.855,0,0,0,.125-.348,1.692,1.692,0,0,0,.045-.392,2.135,2.135,0,0,0-.044-.423,2.975,2.975,0,0,0-.133-.455,4.323,4.323,0,0,0-.22-.487m29.252,1.507a.786.786,0,0,0-.086-.236.87.87,0,0,0-.071-.107,1.034,1.034,0,0,0-.089-.1,1.1,1.1,0,0,0-.142-.11q-.09-.061-.218-.133t-.294-.157q-.165-.084-.368-.181l-.969-.448L64.185,23.5l1.11.519.3.135q.134.06.239.1t.181.072a1.174,1.174,0,0,0,.123.039.937.937,0,0,0,.143.025.86.86,0,0,0,.139,0,.815.815,0,0,0,.135-.02.8.8,0,0,0,.129-.042.614.614,0,0,0,.123-.066.687.687,0,0,0,.108-.094.87.87,0,0,0,.094-.121,1.183,1.183,0,0,0,.081-.147,1.218,1.218,0,0,0,.049-.133.948.948,0,0,0,.03-.13.786.786,0,0,0,.009-.128.711.711,0,0,0-.013-.126m.921-2.6a.568.568,0,0,0-.05-.117.664.664,0,0,0-.077-.108.87.87,0,0,0-.1-.1,1.21,1.21,0,0,0-.128-.092q-.042-.025-.126-.069l-.211-.107-.3-.145-.379-.182-.69-.322-.643,1.373.782.369.319.149.253.114q.11.048.187.079t.121.044a1.357,1.357,0,0,0,.159.041.949.949,0,0,0,.15.017.73.73,0,0,0,.141-.009.651.651,0,0,0,.134-.037.616.616,0,0,0,.122-.059.629.629,0,0,0,.106-.084.723.723,0,0,0,.09-.109.907.907,0,0,0,.074-.133.746.746,0,0,0,.06-.131.64.64,0,0,0,.03-.13.607.607,0,0,0,0-.127.636.636,0,0,0-.024-.124m3.21,5.034,1.428,1.076.747-2.487Zm0,0,1.428,1.076.747-2.487Zm-3.21-5.034a.568.568,0,0,0-.05-.117.664.664,0,0,0-.077-.108.87.87,0,0,0-.1-.1,1.21,1.21,0,0,0-.128-.092q-.042-.025-.126-.069l-.211-.107-.3-.145-.379-.182-.69-.322-.643,1.373.782.369.319.149.253.114q.11.048.187.079t.121.044a1.357,1.357,0,0,0,.159.041.949.949,0,0,0,.15.017.73.73,0,0,0,.141-.009.651.651,0,0,0,.134-.037.616.616,0,0,0,.122-.059.629.629,0,0,0,.106-.084.723.723,0,0,0,.09-.109.907.907,0,0,0,.074-.133.746.746,0,0,0,.06-.131.64.64,0,0,0,.03-.13.607.607,0,0,0,0-.127.636.636,0,0,0-.024-.124m-.921,2.6a.786.786,0,0,0-.086-.236.87.87,0,0,0-.071-.107,1.034,1.034,0,0,0-.089-.1,1.1,1.1,0,0,0-.142-.11q-.09-.061-.218-.133t-.294-.157q-.165-.084-.368-.181l-.969-.448L64.185,23.5l1.11.519.3.135q.134.06.239.1t.181.072a1.174,1.174,0,0,0,.123.039.937.937,0,0,0,.143.025.86.86,0,0,0,.139,0,.815.815,0,0,0,.135-.02.8.8,0,0,0,.129-.042.614.614,0,0,0,.123-.066.687.687,0,0,0,.108-.094.87.87,0,0,0,.094-.121,1.183,1.183,0,0,0,.081-.147,1.218,1.218,0,0,0,.049-.133.948.948,0,0,0,.03-.13.786.786,0,0,0,.009-.128.711.711,0,0,0-.013-.126M37.911,21.875a4.235,4.235,0,0,0-.276-.452,2.928,2.928,0,0,0-.3-.36,2.081,2.081,0,0,0-.317-.268,1.6,1.6,0,0,0-.686-.266,1.549,1.549,0,0,0-.354-.008,1.7,1.7,0,0,0-.356.073,2.087,2.087,0,0,0-.357.152,2.011,2.011,0,0,0-.328.213,1.7,1.7,0,0,0-.26.259,1.623,1.623,0,0,0-.192.3,1.778,1.778,0,0,0-.126.344,1.648,1.648,0,0,0-.044.382,2.094,2.094,0,0,0,.043.416,2.933,2.933,0,0,0,.131.45,4.281,4.281,0,0,0,.219.485,3.991,3.991,0,0,0,.274.447,2.833,2.833,0,0,0,.3.358,2.092,2.092,0,0,0,.326.269,1.692,1.692,0,0,0,.351.179,1.809,1.809,0,0,0,.362.093,1.623,1.623,0,0,0,.358.013,1.662,1.662,0,0,0,.353-.066,1.974,1.974,0,0,0,.665-.353,1.647,1.647,0,0,0,.252-.256,1.625,1.625,0,0,0,.188-.3,1.855,1.855,0,0,0,.125-.348,1.692,1.692,0,0,0,.045-.392,2.135,2.135,0,0,0-.044-.423,2.975,2.975,0,0,0-.133-.455,4.323,4.323,0,0,0-.22-.487m0,0a4.235,4.235,0,0,0-.276-.452,2.928,2.928,0,0,0-.3-.36,2.081,2.081,0,0,0-.317-.268,1.6,1.6,0,0,0-.686-.266,1.549,1.549,0,0,0-.354-.008,1.7,1.7,0,0,0-.356.073,2.087,2.087,0,0,0-.357.152,2.011,2.011,0,0,0-.328.213,1.7,1.7,0,0,0-.26.259,1.623,1.623,0,0,0-.192.3,1.778,1.778,0,0,0-.126.344,1.648,1.648,0,0,0-.044.382,2.094,2.094,0,0,0,.043.416,2.933,2.933,0,0,0,.131.45,4.281,4.281,0,0,0,.219.485,3.991,3.991,0,0,0,.274.447,2.833,2.833,0,0,0,.3.358,2.092,2.092,0,0,0,.326.269,1.692,1.692,0,0,0,.351.179,1.809,1.809,0,0,0,.362.093,1.623,1.623,0,0,0,.358.013,1.662,1.662,0,0,0,.353-.066,1.974,1.974,0,0,0,.665-.353,1.647,1.647,0,0,0,.252-.256,1.625,1.625,0,0,0,.188-.3,1.855,1.855,0,0,0,.125-.348,1.692,1.692,0,0,0,.045-.392,2.135,2.135,0,0,0-.044-.423,2.975,2.975,0,0,0-.133-.455,4.323,4.323,0,0,0-.22-.487m29.252,1.507a.786.786,0,0,0-.086-.236.87.87,0,0,0-.071-.107,1.034,1.034,0,0,0-.089-.1,1.1,1.1,0,0,0-.142-.11q-.09-.061-.218-.133t-.294-.157q-.165-.084-.368-.181l-.969-.448L64.185,23.5l1.11.519.3.135q.134.06.239.1t.181.072a1.174,1.174,0,0,0,.123.039.937.937,0,0,0,.143.025.86.86,0,0,0,.139,0,.815.815,0,0,0,.135-.02.8.8,0,0,0,.129-.042.614.614,0,0,0,.123-.066.687.687,0,0,0,.108-.094.87.87,0,0,0,.094-.121,1.183,1.183,0,0,0,.081-.147,1.218,1.218,0,0,0,.049-.133.948.948,0,0,0,.03-.13.786.786,0,0,0,.009-.128.711.711,0,0,0-.013-.126m.921-2.6a.568.568,0,0,0-.05-.117.664.664,0,0,0-.077-.108.87.87,0,0,0-.1-.1,1.21,1.21,0,0,0-.128-.092q-.042-.025-.126-.069l-.211-.107-.3-.145-.379-.182-.69-.322-.643,1.373.782.369.319.149.253.114q.11.048.187.079t.121.044a1.357,1.357,0,0,0,.159.041.949.949,0,0,0,.15.017.73.73,0,0,0,.141-.009.651.651,0,0,0,.134-.037.616.616,0,0,0,.122-.059.629.629,0,0,0,.106-.084.723.723,0,0,0,.09-.109.907.907,0,0,0,.074-.133.746.746,0,0,0,.06-.131.64.64,0,0,0,.03-.13.607.607,0,0,0,0-.127.636.636,0,0,0-.024-.124m3.21,5.034,1.428,1.076.747-2.487Zm0,0,1.428,1.076.747-2.487Zm-3.21-5.034a.568.568,0,0,0-.05-.117.664.664,0,0,0-.077-.108.87.87,0,0,0-.1-.1,1.21,1.21,0,0,0-.128-.092q-.042-.025-.126-.069l-.211-.107-.3-.145-.379-.182-.69-.322-.643,1.373.782.369.319.149.253.114q.11.048.187.079t.121.044a1.357,1.357,0,0,0,.159.041.949.949,0,0,0,.15.017.73.73,0,0,0,.141-.009.651.651,0,0,0,.134-.037.616.616,0,0,0,.122-.059.629.629,0,0,0,.106-.084.723.723,0,0,0,.09-.109.907.907,0,0,0,.074-.133.746.746,0,0,0,.06-.131.64.64,0,0,0,.03-.13.607.607,0,0,0,0-.127.636.636,0,0,0-.024-.124m-.921,2.6a.786.786,0,0,0-.086-.236.87.87,0,0,0-.071-.107,1.034,1.034,0,0,0-.089-.1,1.1,1.1,0,0,0-.142-.11q-.09-.061-.218-.133t-.294-.157q-.165-.084-.368-.181l-.969-.448L64.185,23.5l1.11.519.3.135q.134.06.239.1t.181.072a1.174,1.174,0,0,0,.123.039.937.937,0,0,0,.143.025.86.86,0,0,0,.139,0,.815.815,0,0,0,.135-.02.8.8,0,0,0,.129-.042.614.614,0,0,0,.123-.066.687.687,0,0,0,.108-.094.87.87,0,0,0,.094-.121,1.183,1.183,0,0,0,.081-.147,1.218,1.218,0,0,0,.049-.133.948.948,0,0,0,.03-.13.786.786,0,0,0,.009-.128.711.711,0,0,0-.013-.126M37.911,21.875a4.235,4.235,0,0,0-.276-.452,2.928,2.928,0,0,0-.3-.36,2.081,2.081,0,0,0-.317-.268,1.6,1.6,0,0,0-.686-.266,1.549,1.549,0,0,0-.354-.008,1.7,1.7,0,0,0-.356.073,2.087,2.087,0,0,0-.357.152,2.011,2.011,0,0,0-.328.213,1.7,1.7,0,0,0-.26.259,1.623,1.623,0,0,0-.192.3,1.778,1.778,0,0,0-.126.344,1.648,1.648,0,0,0-.044.382,2.094,2.094,0,0,0,.043.416,2.933,2.933,0,0,0,.131.45,4.281,4.281,0,0,0,.219.485,3.991,3.991,0,0,0,.274.447,2.833,2.833,0,0,0,.3.358,2.092,2.092,0,0,0,.326.269,1.692,1.692,0,0,0,.351.179,1.809,1.809,0,0,0,.362.093,1.623,1.623,0,0,0,.358.013,1.662,1.662,0,0,0,.353-.066,1.974,1.974,0,0,0,.665-.353,1.647,1.647,0,0,0,.252-.256,1.625,1.625,0,0,0,.188-.3,1.855,1.855,0,0,0,.125-.348,1.692,1.692,0,0,0,.045-.392,2.135,2.135,0,0,0-.044-.423,2.975,2.975,0,0,0-.133-.455,4.323,4.323,0,0,0-.22-.487m0,0a4.235,4.235,0,0,0-.276-.452,2.928,2.928,0,0,0-.3-.36,2.081,2.081,0,0,0-.317-.268,1.6,1.6,0,0,0-.686-.266,1.549,1.549,0,0,0-.354-.008,1.7,1.7,0,0,0-.356.073,2.087,2.087,0,0,0-.357.152,2.011,2.011,0,0,0-.328.213,1.7,1.7,0,0,0-.26.259,1.623,1.623,0,0,0-.192.3,1.778,1.778,0,0,0-.126.344,1.648,1.648,0,0,0-.044.382,2.094,2.094,0,0,0,.043.416,2.933,2.933,0,0,0,.131.45,4.281,4.281,0,0,0,.219.485,3.991,3.991,0,0,0,.274.447,2.833,2.833,0,0,0,.3.358,2.092,2.092,0,0,0,.326.269,1.692,1.692,0,0,0,.351.179,1.809,1.809,0,0,0,.362.093,1.623,1.623,0,0,0,.358.013,1.662,1.662,0,0,0,.353-.066,1.974,1.974,0,0,0,.665-.353,1.647,1.647,0,0,0,.252-.256,1.625,1.625,0,0,0,.188-.3,1.855,1.855,0,0,0,.125-.348,1.692,1.692,0,0,0,.045-.392,2.135,2.135,0,0,0-.044-.423,2.975,2.975,0,0,0-.133-.455,4.323,4.323,0,0,0-.22-.487m29.252,1.507a.786.786,0,0,0-.086-.236.87.87,0,0,0-.071-.107,1.034,1.034,0,0,0-.089-.1,1.1,1.1,0,0,0-.142-.11q-.09-.061-.218-.133t-.294-.157q-.165-.084-.368-.181l-.969-.448L64.185,23.5l1.11.519.3.135q.134.06.239.1t.181.072a1.174,1.174,0,0,0,.123.039.937.937,0,0,0,.143.025.86.86,0,0,0,.139,0,.815.815,0,0,0,.135-.02.8.8,0,0,0,.129-.042.614.614,0,0,0,.123-.066.687.687,0,0,0,.108-.094.87.87,0,0,0,.094-.121,1.183,1.183,0,0,0,.081-.147,1.218,1.218,0,0,0,.049-.133.948.948,0,0,0,.03-.13.786.786,0,0,0,.009-.128.711.711,0,0,0-.013-.126m.921-2.6a.568.568,0,0,0-.05-.117.664.664,0,0,0-.077-.108.87.87,0,0,0-.1-.1,1.21,1.21,0,0,0-.128-.092q-.042-.025-.126-.069l-.211-.107-.3-.145-.379-.182-.69-.322-.643,1.373.782.369.319.149.253.114q.11.048.187.079t.121.044a1.357,1.357,0,0,0,.159.041.949.949,0,0,0,.15.017.73.73,0,0,0,.141-.009.651.651,0,0,0,.134-.037.616.616,0,0,0,.122-.059.629.629,0,0,0,.106-.084.723.723,0,0,0,.09-.109.907.907,0,0,0,.074-.133.746.746,0,0,0,.06-.131.64.64,0,0,0,.03-.13.607.607,0,0,0,0-.127.636.636,0,0,0-.024-.124m3.21,5.034,1.428,1.076.747-2.487Zm0,0,1.428,1.076.747-2.487Zm-3.21-5.034a.568.568,0,0,0-.05-.117.664.664,0,0,0-.077-.108.87.87,0,0,0-.1-.1,1.21,1.21,0,0,0-.128-.092q-.042-.025-.126-.069l-.211-.107-.3-.145-.379-.182-.69-.322-.643,1.373.782.369.319.149.253.114q.11.048.187.079t.121.044a1.357,1.357,0,0,0,.159.041.949.949,0,0,0,.15.017.73.73,0,0,0,.141-.009.651.651,0,0,0,.134-.037.616.616,0,0,0,.122-.059.629.629,0,0,0,.106-.084.723.723,0,0,0,.09-.109.907.907,0,0,0,.074-.133.746.746,0,0,0,.06-.131.64.64,0,0,0,.03-.13.607.607,0,0,0,0-.127.636.636,0,0,0-.024-.124m-.921,2.6a.786.786,0,0,0-.086-.236.87.87,0,0,0-.071-.107,1.034,1.034,0,0,0-.089-.1,1.1,1.1,0,0,0-.142-.11q-.09-.061-.218-.133t-.294-.157q-.165-.084-.368-.181l-.969-.448L64.185,23.5l1.11.519.3.135q.134.06.239.1t.181.072a1.174,1.174,0,0,0,.123.039.937.937,0,0,0,.143.025.86.86,0,0,0,.139,0,.815.815,0,0,0,.135-.02.8.8,0,0,0,.129-.042.614.614,0,0,0,.123-.066.687.687,0,0,0,.108-.094.87.87,0,0,0,.094-.121,1.183,1.183,0,0,0,.081-.147,1.218,1.218,0,0,0,.049-.133.948.948,0,0,0,.03-.13.786.786,0,0,0,.009-.128.711.711,0,0,0-.013-.126M37.911,21.875a4.235,4.235,0,0,0-.276-.452,2.928,2.928,0,0,0-.3-.36,2.081,2.081,0,0,0-.317-.268,1.6,1.6,0,0,0-.686-.266,1.549,1.549,0,0,0-.354-.008,1.7,1.7,0,0,0-.356.073,2.087,2.087,0,0,0-.357.152,2.011,2.011,0,0,0-.328.213,1.7,1.7,0,0,0-.26.259,1.623,1.623,0,0,0-.192.3,1.778,1.778,0,0,0-.126.344,1.648,1.648,0,0,0-.044.382,2.094,2.094,0,0,0,.043.416,2.933,2.933,0,0,0,.131.45,4.281,4.281,0,0,0,.219.485,3.991,3.991,0,0,0,.274.447,2.833,2.833,0,0,0,.3.358,2.092,2.092,0,0,0,.326.269,1.692,1.692,0,0,0,.351.179,1.809,1.809,0,0,0,.362.093,1.623,1.623,0,0,0,.358.013,1.662,1.662,0,0,0,.353-.066,1.974,1.974,0,0,0,.665-.353,1.647,1.647,0,0,0,.252-.256,1.625,1.625,0,0,0,.188-.3,1.855,1.855,0,0,0,.125-.348,1.692,1.692,0,0,0,.045-.392,2.135,2.135,0,0,0-.044-.423,2.975,2.975,0,0,0-.133-.455,4.323,4.323,0,0,0-.22-.487m0,0a4.235,4.235,0,0,0-.276-.452,2.928,2.928,0,0,0-.3-.36,2.081,2.081,0,0,0-.317-.268,1.6,1.6,0,0,0-.686-.266,1.549,1.549,0,0,0-.354-.008,1.7,1.7,0,0,0-.356.073,2.087,2.087,0,0,0-.357.152,2.011,2.011,0,0,0-.328.213,1.7,1.7,0,0,0-.26.259,1.623,1.623,0,0,0-.192.3,1.778,1.778,0,0,0-.126.344,1.648,1.648,0,0,0-.044.382,2.094,2.094,0,0,0,.043.416,2.933,2.933,0,0,0,.131.45,4.281,4.281,0,0,0,.219.485,3.991,3.991,0,0,0,.274.447,2.833,2.833,0,0,0,.3.358,2.092,2.092,0,0,0,.326.269,1.692,1.692,0,0,0,.351.179,1.809,1.809,0,0,0,.362.093,1.623,1.623,0,0,0,.358.013,1.662,1.662,0,0,0,.353-.066,1.974,1.974,0,0,0,.665-.353,1.647,1.647,0,0,0,.252-.256,1.625,1.625,0,0,0,.188-.3,1.855,1.855,0,0,0,.125-.348,1.692,1.692,0,0,0,.045-.392,2.135,2.135,0,0,0-.044-.423,2.975,2.975,0,0,0-.133-.455,4.323,4.323,0,0,0-.22-.487m29.252,1.507a.786.786,0,0,0-.086-.236.87.87,0,0,0-.071-.107,1.034,1.034,0,0,0-.089-.1,1.1,1.1,0,0,0-.142-.11q-.09-.061-.218-.133t-.294-.157q-.165-.084-.368-.181l-.969-.448L64.185,23.5l1.11.519.3.135q.134.06.239.1t.181.072a1.174,1.174,0,0,0,.123.039.937.937,0,0,0,.143.025.86.86,0,0,0,.139,0,.815.815,0,0,0,.135-.02.8.8,0,0,0,.129-.042.614.614,0,0,0,.123-.066.687.687,0,0,0,.108-.094.87.87,0,0,0,.094-.121,1.183,1.183,0,0,0,.081-.147,1.218,1.218,0,0,0,.049-.133.948.948,0,0,0,.03-.13.786.786,0,0,0,.009-.128.711.711,0,0,0-.013-.126m.921-2.6a.568.568,0,0,0-.05-.117.664.664,0,0,0-.077-.108.87.87,0,0,0-.1-.1,1.21,1.21,0,0,0-.128-.092q-.042-.025-.126-.069l-.211-.107-.3-.145-.379-.182-.69-.322-.643,1.373.782.369.319.149.253.114q.11.048.187.079t.121.044a1.357,1.357,0,0,0,.159.041.949.949,0,0,0,.15.017.73.73,0,0,0,.141-.009.651.651,0,0,0,.134-.037.616.616,0,0,0,.122-.059.629.629,0,0,0,.106-.084.723.723,0,0,0,.09-.109.907.907,0,0,0,.074-.133.746.746,0,0,0,.06-.131.64.64,0,0,0,.03-.13.607.607,0,0,0,0-.127.636.636,0,0,0-.024-.124m3.21,5.034,1.428,1.076.747-2.487Zm0,0,1.428,1.076.747-2.487Zm-3.21-5.034a.568.568,0,0,0-.05-.117.664.664,0,0,0-.077-.108.87.87,0,0,0-.1-.1,1.21,1.21,0,0,0-.128-.092q-.042-.025-.126-.069l-.211-.107-.3-.145-.379-.182-.69-.322-.643,1.373.782.369.319.149.253.114q.11.048.187.079t.121.044a1.357,1.357,0,0,0,.159.041.949.949,0,0,0,.15.017.73.73,0,0,0,.141-.009.651.651,0,0,0,.134-.037.616.616,0,0,0,.122-.059.629.629,0,0,0,.106-.084.723.723,0,0,0,.09-.109.907.907,0,0,0,.074-.133.746.746,0,0,0,.06-.131.64.64,0,0,0,.03-.13.607.607,0,0,0,0-.127.636.636,0,0,0-.024-.124m-.921,2.6a.786.786,0,0,0-.086-.236.87.87,0,0,0-.071-.107,1.034,1.034,0,0,0-.089-.1,1.1,1.1,0,0,0-.142-.11q-.09-.061-.218-.133t-.294-.157q-.165-.084-.368-.181l-.969-.448L64.185,23.5l1.11.519.3.135q.134.06.239.1t.181.072a1.174,1.174,0,0,0,.123.039.937.937,0,0,0,.143.025.86.86,0,0,0,.139,0,.815.815,0,0,0,.135-.02.8.8,0,0,0,.129-.042.614.614,0,0,0,.123-.066.687.687,0,0,0,.108-.094.87.87,0,0,0,.094-.121,1.183,1.183,0,0,0,.081-.147,1.218,1.218,0,0,0,.049-.133.948.948,0,0,0,.03-.13.786.786,0,0,0,.009-.128.711.711,0,0,0-.013-.126M37.911,21.875a4.235,4.235,0,0,0-.276-.452,2.928,2.928,0,0,0-.3-.36,2.081,2.081,0,0,0-.317-.268,1.6,1.6,0,0,0-.686-.266,1.549,1.549,0,0,0-.354-.008,1.7,1.7,0,0,0-.356.073,2.087,2.087,0,0,0-.357.152,2.011,2.011,0,0,0-.328.213,1.7,1.7,0,0,0-.26.259,1.623,1.623,0,0,0-.192.3,1.778,1.778,0,0,0-.126.344,1.648,1.648,0,0,0-.044.382,2.094,2.094,0,0,0,.043.416,2.933,2.933,0,0,0,.131.45,4.281,4.281,0,0,0,.219.485,3.991,3.991,0,0,0,.274.447,2.833,2.833,0,0,0,.3.358,2.092,2.092,0,0,0,.326.269,1.692,1.692,0,0,0,.351.179,1.809,1.809,0,0,0,.362.093,1.623,1.623,0,0,0,.358.013,1.662,1.662,0,0,0,.353-.066,1.974,1.974,0,0,0,.665-.353,1.647,1.647,0,0,0,.252-.256,1.625,1.625,0,0,0,.188-.3,1.855,1.855,0,0,0,.125-.348,1.692,1.692,0,0,0,.045-.392,2.135,2.135,0,0,0-.044-.423,2.975,2.975,0,0,0-.133-.455,4.323,4.323,0,0,0-.22-.487m0,0a4.235,4.235,0,0,0-.276-.452,2.928,2.928,0,0,0-.3-.36,2.081,2.081,0,0,0-.317-.268,1.6,1.6,0,0,0-.686-.266,1.549,1.549,0,0,0-.354-.008,1.7,1.7,0,0,0-.356.073,2.087,2.087,0,0,0-.357.152,2.011,2.011,0,0,0-.328.213,1.7,1.7,0,0,0-.26.259,1.623,1.623,0,0,0-.192.3,1.778,1.778,0,0,0-.126.344,1.648,1.648,0,0,0-.044.382,2.094,2.094,0,0,0,.043.416,2.933,2.933,0,0,0,.131.45,4.281,4.281,0,0,0,.219.485,3.991,3.991,0,0,0,.274.447,2.833,2.833,0,0,0,.3.358,2.092,2.092,0,0,0,.326.269,1.692,1.692,0,0,0,.351.179,1.809,1.809,0,0,0,.362.093,1.623,1.623,0,0,0,.358.013,1.662,1.662,0,0,0,.353-.066,1.974,1.974,0,0,0,.665-.353,1.647,1.647,0,0,0,.252-.256,1.625,1.625,0,0,0,.188-.3,1.855,1.855,0,0,0,.125-.348,1.692,1.692,0,0,0,.045-.392,2.135,2.135,0,0,0-.044-.423,2.975,2.975,0,0,0-.133-.455,4.323,4.323,0,0,0-.22-.487m29.252,1.507a.786.786,0,0,0-.086-.236.87.87,0,0,0-.071-.107,1.034,1.034,0,0,0-.089-.1,1.1,1.1,0,0,0-.142-.11q-.09-.061-.218-.133t-.294-.157q-.165-.084-.368-.181l-.969-.448L64.185,23.5l1.11.519.3.135q.134.06.239.1t.181.072a1.174,1.174,0,0,0,.123.039.937.937,0,0,0,.143.025.86.86,0,0,0,.139,0,.815.815,0,0,0,.135-.02.8.8,0,0,0,.129-.042.614.614,0,0,0,.123-.066.687.687,0,0,0,.108-.094.87.87,0,0,0,.094-.121,1.183,1.183,0,0,0,.081-.147,1.218,1.218,0,0,0,.049-.133.948.948,0,0,0,.03-.13.786.786,0,0,0,.009-.128.711.711,0,0,0-.013-.126m.921-2.6a.568.568,0,0,0-.05-.117.664.664,0,0,0-.077-.108.87.87,0,0,0-.1-.1,1.21,1.21,0,0,0-.128-.092q-.042-.025-.126-.069l-.211-.107-.3-.145-.379-.182-.69-.322-.643,1.373.782.369.319.149.253.114q.11.048.187.079t.121.044a1.357,1.357,0,0,0,.159.041.949.949,0,0,0,.15.017.73.73,0,0,0,.141-.009.651.651,0,0,0,.134-.037.616.616,0,0,0,.122-.059.629.629,0,0,0,.106-.084.723.723,0,0,0,.09-.109.907.907,0,0,0,.074-.133.746.746,0,0,0,.06-.131.64.64,0,0,0,.03-.13.607.607,0,0,0,0-.127.636.636,0,0,0-.024-.124m3.21,5.034,1.428,1.076.747-2.487Zm0,0,1.428,1.076.747-2.487Zm-3.21-5.034a.568.568,0,0,0-.05-.117.664.664,0,0,0-.077-.108.87.87,0,0,0-.1-.1,1.21,1.21,0,0,0-.128-.092q-.042-.025-.126-.069l-.211-.107-.3-.145-.379-.182-.69-.322-.643,1.373.782.369.319.149.253.114q.11.048.187.079t.121.044a1.357,1.357,0,0,0,.159.041.949.949,0,0,0,.15.017.73.73,0,0,0,.141-.009.651.651,0,0,0,.134-.037.616.616,0,0,0,.122-.059.629.629,0,0,0,.106-.084.723.723,0,0,0,.09-.109.907.907,0,0,0,.074-.133.746.746,0,0,0,.06-.131.64.64,0,0,0,.03-.13.607.607,0,0,0,0-.127.636.636,0,0,0-.024-.124m-1.166,2.159a1.1,1.1,0,0,0-.142-.11q-.09-.061-.218-.133t-.294-.157q-.165-.084-.368-.181l-.969-.448L64.185,23.5l1.11.519.3.135q.134.06.239.1t.181.072a1.174,1.174,0,0,0,.123.039.937.937,0,0,0,.143.025.86.86,0,0,0,.139,0,.815.815,0,0,0,.135-.02.8.8,0,0,0,.129-.042.614.614,0,0,0,.123-.066.687.687,0,0,0,.108-.094.87.87,0,0,0,.094-.121,1.183,1.183,0,0,0,.081-.147.991.991,0,0,0,.052-.132.886.886,0,0,0,.03-.13.844.844,0,0,0,.01-.128.856.856,0,0,0-.009-.126.777.777,0,0,0-.034-.122.763.763,0,0,0-.053-.114.837.837,0,0,0-.073-.108,1.007,1.007,0,0,0-.093-.1M37.911,21.875a4.235,4.235,0,0,0-.276-.452,2.928,2.928,0,0,0-.3-.36,2.081,2.081,0,0,0-.317-.268,1.6,1.6,0,0,0-.686-.266,1.549,1.549,0,0,0-.354-.008,1.7,1.7,0,0,0-.356.073,2.087,2.087,0,0,0-.357.152,2.011,2.011,0,0,0-.328.213,1.7,1.7,0,0,0-.26.259,1.623,1.623,0,0,0-.192.3,1.778,1.778,0,0,0-.126.344,1.648,1.648,0,0,0-.044.382,2.094,2.094,0,0,0,.043.416,2.933,2.933,0,0,0,.131.45,4.281,4.281,0,0,0,.219.485,3.991,3.991,0,0,0,.274.447,2.833,2.833,0,0,0,.3.358,2.092,2.092,0,0,0,.326.269,1.692,1.692,0,0,0,.351.179,1.809,1.809,0,0,0,.362.093,1.623,1.623,0,0,0,.358.013,1.662,1.662,0,0,0,.353-.066,1.974,1.974,0,0,0,.665-.353,1.647,1.647,0,0,0,.252-.256,1.625,1.625,0,0,0,.188-.3,1.855,1.855,0,0,0,.125-.348,1.692,1.692,0,0,0,.045-.392,2.135,2.135,0,0,0-.044-.423,2.975,2.975,0,0,0-.133-.455,4.323,4.323,0,0,0-.22-.487M59.136,11.637a41,41,0,0,0-45.4,25.7L29.57,40.132a25.271,25.271,0,0,1,4.743-6.326A25.41,25.41,0,0,1,77.18,48.527l15.838,2.793a40.755,40.755,0,0,0-2.659-13.834A40.937,40.937,0,0,0,59.136,11.637M33.27,28.667l-3.388-3.894,2.4,4.753-.964.839-4.37-3.043,3.388,3.894-.928.807-4.3-4.949,1.493-1.3,3.833,2.594-2.049-4.151,1.5-1.307,4.3,4.949Zm6.271-4.81a2.753,2.753,0,0,1-.574,1.067,3.176,3.176,0,0,1-.463.435,4.059,4.059,0,0,1-.579.37,4.11,4.11,0,0,1-.638.276,3.239,3.239,0,0,1-.625.143,2.786,2.786,0,0,1-1.209-.115,2.79,2.79,0,0,1-.563-.254,3.015,3.015,0,0,1-.508-.379,3.653,3.653,0,0,1-.451-.5,4.769,4.769,0,0,1-.393-.627q-.117-.22-.208-.432t-.156-.416a3.746,3.746,0,0,1-.1-.4,3.042,3.042,0,0,1-.053-.379q-.008-.137-.005-.273t.016-.27q.014-.135.039-.269t.064-.269q.038-.132.087-.256t.108-.239a2.533,2.533,0,0,1,.128-.221,2.426,2.426,0,0,1,.147-.2,2.86,2.86,0,0,1,.226-.249,3.279,3.279,0,0,1,.263-.232q.141-.112.3-.215t.338-.2a4.053,4.053,0,0,1,.633-.272,3.228,3.228,0,0,1,.623-.141,2.822,2.822,0,0,1,1.215.117,2.784,2.784,0,0,1,.569.256,3.027,3.027,0,0,1,.513.385,3.716,3.716,0,0,1,.457.514,4.931,4.931,0,0,1,.4.643,5.067,5.067,0,0,1,.3.692,3.769,3.769,0,0,1,.168.664,3.054,3.054,0,0,1,.033.637,2.82,2.82,0,0,1-.1.612m5.831-1.005-3.6-3.508L42.8,23.493l-1.193.3-1.589-6.366,1.249-.311,3.663,3.6-1.06-4.254,1.193-.3,1.589,6.366Zm2.713-.662-.23-6.557,4.859-.168.036,1.108-3.534.124.051,1.457,3.294-.113.037,1.1-3.294.113.063,1.783,3.665-.124.036,1.108Zm9.488-2.348-.433,2.72-1.3-.207.435-2.727L54.495,15.5l1.537.24,1.122,2.809,1.9-2.331,1.506.242Zm9.367,5.765a1.543,1.543,0,0,1-.22.022,1.767,1.767,0,0,1-.231-.009,2.066,2.066,0,0,1-.24-.039,2.438,2.438,0,0,1-.247-.07q-.079-.028-.21-.082t-.314-.133l-.419-.184-.524-.237-2.022-.942,2.773-5.943L67.664,19.1q.176.083.329.159t.281.145q.129.069.233.131t.184.116a1.857,1.857,0,0,1,.152.115,1.671,1.671,0,0,1,.135.127,1.573,1.573,0,0,1,.118.14,1.556,1.556,0,0,1,.1.154,1.485,1.485,0,0,1,.084.161,1.538,1.538,0,0,1,.065.172,1.663,1.663,0,0,1,.046.183,1.861,1.861,0,0,1,.026.194,1.518,1.518,0,0,1,0,.2,1.464,1.464,0,0,1-.023.2,1.494,1.494,0,0,1-.05.195,1.606,1.606,0,0,1-.077.193,1.485,1.485,0,0,1-.242.373,1.566,1.566,0,0,1-.158.154,1.716,1.716,0,0,1-.179.133,1.64,1.64,0,0,1-.2.106,1.549,1.549,0,0,1-.426.121,1.663,1.663,0,0,1-.226.015,2.112,2.112,0,0,1,.213.211,1.779,1.779,0,0,1,.168.225,1.6,1.6,0,0,1,.123.239,1.559,1.559,0,0,1,.08.252,1.489,1.489,0,0,1,.025.518,1.6,1.6,0,0,1-.055.258,1.988,1.988,0,0,1-.2.453,1.9,1.9,0,0,1-.128.183,1.99,1.99,0,0,1-.15.169,2.132,2.132,0,0,1-.172.155q-.093.067-.19.125a2.081,2.081,0,0,1-.2.1,1.81,1.81,0,0,1-.2.079,1.617,1.617,0,0,1-.211.052m6.167,4.823-1.149-.865.44-1.532L70.3,26.455l-1.331.867-1.122-.845,5.991-3.7,1.122.845Zm3.632,3.822a2.408,2.408,0,0,1-.411-.135,2.544,2.544,0,0,1-.39-.211,2.956,2.956,0,0,1-.369-.288,3.69,3.69,0,0,1-.349-.366,3.384,3.384,0,0,1-.358-.515,2.835,2.835,0,0,1-.235-.542,2.676,2.676,0,0,1-.112-.568,2.9,2.9,0,0,1,.148-1.19,3.042,3.042,0,0,1,.267-.568,3.656,3.656,0,0,1,.4-.539,4.781,4.781,0,0,1,.529-.51,5.484,5.484,0,0,1,.628-.455,4,4,0,0,1,.624-.317,3.125,3.125,0,0,1,.621-.177,2.746,2.746,0,0,1,.619-.037,2.851,2.851,0,0,1,.6.1,2.7,2.7,0,0,1,.552.218,2.957,2.957,0,0,1,.508.342,3.669,3.669,0,0,1,.465.466,3.582,3.582,0,0,1,.335.468,2.84,2.84,0,0,1,.23.482,2.452,2.452,0,0,1,.145,1.009,2,2,0,0,1-.045.311,2.3,2.3,0,0,1-.1.318,2.822,2.822,0,0,1-.15.326,3.626,3.626,0,0,1-.205.335L79.6,31.4a1.725,1.725,0,0,0,.138-.212,1.422,1.422,0,0,0,.1-.22,1.264,1.264,0,0,0,.056-.227A1.245,1.245,0,0,0,79.9,30.5a1.271,1.271,0,0,0-.093-.456,1.421,1.421,0,0,0-.109-.215,1.73,1.73,0,0,0-.151-.207,1.781,1.781,0,0,0-.249-.244,1.487,1.487,0,0,0-.277-.177,1.412,1.412,0,0,0-.305-.108,1.547,1.547,0,0,0-.333-.038,1.45,1.45,0,0,0-.359.044,2.069,2.069,0,0,0-.384.138,3.158,3.158,0,0,0-.409.233,4.857,4.857,0,0,0-.435.329,5.648,5.648,0,0,0-.423.393,3.524,3.524,0,0,0-.319.378,2.184,2.184,0,0,0-.216.363,1.426,1.426,0,0,0-.112.349,1.575,1.575,0,0,0-.024.334,1.372,1.372,0,0,0,.049.317,1.4,1.4,0,0,0,.123.3,1.65,1.65,0,0,0,.2.282,1.525,1.525,0,0,0,.182.182,1.33,1.33,0,0,0,.2.14,1.285,1.285,0,0,0,.219.1,1.38,1.38,0,0,0,.238.058,1.3,1.3,0,0,0,.259.012,1.686,1.686,0,0,0,.281-.039,2.273,2.273,0,0,0,.3-.09,3.088,3.088,0,0,0,.321-.141l.512,1.246a4.088,4.088,0,0,1-.493.189,3.146,3.146,0,0,1-.473.108,2.549,2.549,0,0,1-.452.026,2.248,2.248,0,0,1-.432-.056m3.494,7.356-.753-1.542,1.98-2.971-1.455-.488-1.779.873-.584-1.189,5.9-2.873.584,1.189L81.5,35.886,85.3,37.017l.781,1.6-3.381-1.1Zm-7.511-14.72.747-2.487-2.175,1.411Zm-4.995-6.535q-.042-.025-.126-.069l-.211-.107-.3-.145-.379-.182-.69-.322L65.382,20.9l.782.369.319.149.253.114q.11.048.187.079t.121.044a1.356,1.356,0,0,0,.159.041.948.948,0,0,0,.15.017.73.73,0,0,0,.141-.009.651.651,0,0,0,.134-.037.616.616,0,0,0,.122-.059.628.628,0,0,0,.106-.084.723.723,0,0,0,.09-.109.908.908,0,0,0,.074-.133,1.023,1.023,0,0,0,.053-.137.78.78,0,0,0,.028-.132.642.642,0,0,0,0-.128.6.6,0,0,0-.023-.124.549.549,0,0,0-.046-.109.656.656,0,0,0-.073-.106.829.829,0,0,0-.1-.1,1.081,1.081,0,0,0-.131-.093m-.81,2.584a1.1,1.1,0,0,0-.142-.11q-.09-.061-.218-.133t-.294-.157q-.165-.084-.368-.181l-.969-.448L64.185,23.5l1.11.519.3.135q.134.06.239.1t.181.072a1.174,1.174,0,0,0,.123.039.937.937,0,0,0,.143.025.86.86,0,0,0,.139,0,.815.815,0,0,0,.135-.02.8.8,0,0,0,.129-.042.614.614,0,0,0,.123-.066.687.687,0,0,0,.108-.094.87.87,0,0,0,.094-.121,1.183,1.183,0,0,0,.081-.147.991.991,0,0,0,.052-.132.886.886,0,0,0,.03-.13.844.844,0,0,0,.01-.128.856.856,0,0,0-.009-.126.777.777,0,0,0-.034-.122.763.763,0,0,0-.053-.114.837.837,0,0,0-.073-.108,1.007,1.007,0,0,0-.093-.1M36.685,20.619a1.614,1.614,0,0,0-.349-.089,1.549,1.549,0,0,0-.354-.008,1.7,1.7,0,0,0-.356.073,2.087,2.087,0,0,0-.357.152,2.011,2.011,0,0,0-.328.213,1.7,1.7,0,0,0-.26.259,1.623,1.623,0,0,0-.192.3,1.778,1.778,0,0,0-.126.344,1.648,1.648,0,0,0-.044.382,2.094,2.094,0,0,0,.043.416,2.933,2.933,0,0,0,.131.45,4.281,4.281,0,0,0,.219.485,3.991,3.991,0,0,0,.274.447,2.833,2.833,0,0,0,.3.358,2.092,2.092,0,0,0,.326.269,1.692,1.692,0,0,0,.351.179,1.809,1.809,0,0,0,.362.093,1.623,1.623,0,0,0,.358.013,1.662,1.662,0,0,0,.353-.066,1.974,1.974,0,0,0,.665-.353,1.647,1.647,0,0,0,.252-.256,1.625,1.625,0,0,0,.188-.3,1.855,1.855,0,0,0,.125-.348,1.688,1.688,0,0,0,.045-.388,2.109,2.109,0,0,0-.043-.421,2.9,2.9,0,0,0-.133-.454,4.145,4.145,0,0,0-.223-.487,4.207,4.207,0,0,0-.275-.456,2.9,2.9,0,0,0-.3-.362,2.064,2.064,0,0,0-.317-.269,1.6,1.6,0,0,0-.337-.177m1.227,1.256a4.235,4.235,0,0,0-.276-.452,2.928,2.928,0,0,0-.3-.36,2.081,2.081,0,0,0-.317-.268,1.6,1.6,0,0,0-.686-.266,1.549,1.549,0,0,0-.354-.008,1.7,1.7,0,0,0-.356.073,2.087,2.087,0,0,0-.357.152,2.011,2.011,0,0,0-.328.213,1.7,1.7,0,0,0-.26.259,1.623,1.623,0,0,0-.192.3,1.778,1.778,0,0,0-.126.344,1.648,1.648,0,0,0-.044.382,2.094,2.094,0,0,0,.043.416,2.933,2.933,0,0,0,.131.45,4.281,4.281,0,0,0,.219.485,3.991,3.991,0,0,0,.274.447,2.833,2.833,0,0,0,.3.358,2.092,2.092,0,0,0,.326.269,1.692,1.692,0,0,0,.351.179,1.809,1.809,0,0,0,.362.093,1.623,1.623,0,0,0,.358.013,1.662,1.662,0,0,0,.353-.066,1.974,1.974,0,0,0,.665-.353,1.647,1.647,0,0,0,.252-.256,1.625,1.625,0,0,0,.188-.3,1.855,1.855,0,0,0,.125-.348,1.692,1.692,0,0,0,.045-.392,2.135,2.135,0,0,0-.044-.423,2.975,2.975,0,0,0-.133-.455,4.323,4.323,0,0,0-.22-.487m29.252,1.507a.786.786,0,0,0-.086-.236.87.87,0,0,0-.071-.107,1.034,1.034,0,0,0-.089-.1,1.1,1.1,0,0,0-.142-.11q-.09-.061-.218-.133t-.294-.157q-.165-.084-.368-.181l-.969-.448L64.185,23.5l1.11.519.3.135q.134.06.239.1t.181.072a1.174,1.174,0,0,0,.123.039.937.937,0,0,0,.143.025.86.86,0,0,0,.139,0,.815.815,0,0,0,.135-.02.8.8,0,0,0,.129-.042.614.614,0,0,0,.123-.066.687.687,0,0,0,.108-.094.87.87,0,0,0,.094-.121,1.183,1.183,0,0,0,.081-.147,1.218,1.218,0,0,0,.049-.133.948.948,0,0,0,.03-.13.786.786,0,0,0,.009-.128.711.711,0,0,0-.013-.126m.921-2.6a.568.568,0,0,0-.05-.117.664.664,0,0,0-.077-.108.87.87,0,0,0-.1-.1,1.21,1.21,0,0,0-.128-.092q-.042-.025-.126-.069l-.211-.107-.3-.145-.379-.182-.69-.322-.643,1.373.782.369.319.149.253.114q.11.048.187.079t.121.044a1.357,1.357,0,0,0,.159.041.949.949,0,0,0,.15.017.73.73,0,0,0,.141-.009.651.651,0,0,0,.134-.037.616.616,0,0,0,.122-.059.629.629,0,0,0,.106-.084.723.723,0,0,0,.09-.109.907.907,0,0,0,.074-.133.746.746,0,0,0,.06-.131.64.64,0,0,0,.03-.13.607.607,0,0,0,0-.127.636.636,0,0,0-.024-.124m3.21,5.034,1.428,1.076.747-2.487Zm0,0,1.428,1.076.747-2.487Zm-3.21-5.034a.568.568,0,0,0-.05-.117.664.664,0,0,0-.077-.108.87.87,0,0,0-.1-.1,1.21,1.21,0,0,0-.128-.092q-.042-.025-.126-.069l-.211-.107-.3-.145-.379-.182-.69-.322-.643,1.373.782.369.319.149.253.114q.11.048.187.079t.121.044a1.357,1.357,0,0,0,.159.041.949.949,0,0,0,.15.017.73.73,0,0,0,.141-.009.651.651,0,0,0,.134-.037.616.616,0,0,0,.122-.059.629.629,0,0,0,.106-.084.723.723,0,0,0,.09-.109.907.907,0,0,0,.074-.133.746.746,0,0,0,.06-.131.64.64,0,0,0,.03-.13.607.607,0,0,0,0-.127.636.636,0,0,0-.024-.124m-.921,2.6a.786.786,0,0,0-.086-.236.87.87,0,0,0-.071-.107,1.034,1.034,0,0,0-.089-.1,1.1,1.1,0,0,0-.142-.11q-.09-.061-.218-.133t-.294-.157q-.165-.084-.368-.181l-.969-.448L64.185,23.5l1.11.519.3.135q.134.06.239.1t.181.072a1.174,1.174,0,0,0,.123.039.937.937,0,0,0,.143.025.86.86,0,0,0,.139,0,.815.815,0,0,0,.135-.02.8.8,0,0,0,.129-.042.614.614,0,0,0,.123-.066.687.687,0,0,0,.108-.094.87.87,0,0,0,.094-.121,1.183,1.183,0,0,0,.081-.147,1.218,1.218,0,0,0,.049-.133.948.948,0,0,0,.03-.13.786.786,0,0,0,.009-.128.711.711,0,0,0-.013-.126M37.911,21.875a4.235,4.235,0,0,0-.276-.452,2.928,2.928,0,0,0-.3-.36,2.081,2.081,0,0,0-.317-.268,1.6,1.6,0,0,0-.686-.266,1.549,1.549,0,0,0-.354-.008,1.7,1.7,0,0,0-.356.073,2.087,2.087,0,0,0-.357.152,2.011,2.011,0,0,0-.328.213,1.7,1.7,0,0,0-.26.259,1.623,1.623,0,0,0-.192.3,1.778,1.778,0,0,0-.126.344,1.648,1.648,0,0,0-.044.382,2.094,2.094,0,0,0,.043.416,2.933,2.933,0,0,0,.131.45,4.281,4.281,0,0,0,.219.485,3.991,3.991,0,0,0,.274.447,2.833,2.833,0,0,0,.3.358,2.092,2.092,0,0,0,.326.269,1.692,1.692,0,0,0,.351.179,1.809,1.809,0,0,0,.362.093,1.623,1.623,0,0,0,.358.013,1.662,1.662,0,0,0,.353-.066,1.974,1.974,0,0,0,.665-.353,1.647,1.647,0,0,0,.252-.256,1.625,1.625,0,0,0,.188-.3,1.855,1.855,0,0,0,.125-.348,1.692,1.692,0,0,0,.045-.392,2.135,2.135,0,0,0-.044-.423,2.975,2.975,0,0,0-.133-.455,4.323,4.323,0,0,0-.22-.487m0,0a4.235,4.235,0,0,0-.276-.452,2.928,2.928,0,0,0-.3-.36,2.081,2.081,0,0,0-.317-.268,1.6,1.6,0,0,0-.686-.266,1.549,1.549,0,0,0-.354-.008,1.7,1.7,0,0,0-.356.073,2.087,2.087,0,0,0-.357.152,2.011,2.011,0,0,0-.328.213,1.7,1.7,0,0,0-.26.259,1.623,1.623,0,0,0-.192.3,1.778,1.778,0,0,0-.126.344,1.648,1.648,0,0,0-.044.382,2.094,2.094,0,0,0,.043.416,2.933,2.933,0,0,0,.131.45,4.281,4.281,0,0,0,.219.485,3.991,3.991,0,0,0,.274.447,2.833,2.833,0,0,0,.3.358,2.092,2.092,0,0,0,.326.269,1.692,1.692,0,0,0,.351.179,1.809,1.809,0,0,0,.362.093,1.623,1.623,0,0,0,.358.013,1.662,1.662,0,0,0,.353-.066,1.974,1.974,0,0,0,.665-.353,1.647,1.647,0,0,0,.252-.256,1.625,1.625,0,0,0,.188-.3,1.855,1.855,0,0,0,.125-.348,1.692,1.692,0,0,0,.045-.392,2.135,2.135,0,0,0-.044-.423,2.975,2.975,0,0,0-.133-.455,4.323,4.323,0,0,0-.22-.487m29.252,1.507a.786.786,0,0,0-.086-.236.87.87,0,0,0-.071-.107,1.034,1.034,0,0,0-.089-.1,1.1,1.1,0,0,0-.142-.11q-.09-.061-.218-.133t-.294-.157q-.165-.084-.368-.181l-.969-.448L64.185,23.5l1.11.519.3.135q.134.06.239.1t.181.072a1.174,1.174,0,0,0,.123.039.937.937,0,0,0,.143.025.86.86,0,0,0,.139,0,.815.815,0,0,0,.135-.02.8.8,0,0,0,.129-.042.614.614,0,0,0,.123-.066.687.687,0,0,0,.108-.094.87.87,0,0,0,.094-.121,1.183,1.183,0,0,0,.081-.147,1.218,1.218,0,0,0,.049-.133.948.948,0,0,0,.03-.13.786.786,0,0,0,.009-.128.711.711,0,0,0-.013-.126m.921-2.6a.568.568,0,0,0-.05-.117.664.664,0,0,0-.077-.108.87.87,0,0,0-.1-.1,1.21,1.21,0,0,0-.128-.092q-.042-.025-.126-.069l-.211-.107-.3-.145-.379-.182-.69-.322-.643,1.373.782.369.319.149.253.114q.11.048.187.079t.121.044a1.357,1.357,0,0,0,.159.041.949.949,0,0,0,.15.017.73.73,0,0,0,.141-.009.651.651,0,0,0,.134-.037.616.616,0,0,0,.122-.059.629.629,0,0,0,.106-.084.723.723,0,0,0,.09-.109.907.907,0,0,0,.074-.133.746.746,0,0,0,.06-.131.64.64,0,0,0,.03-.13.607.607,0,0,0,0-.127.636.636,0,0,0-.024-.124m3.21,5.034,1.428,1.076.747-2.487Zm0,0,1.428,1.076.747-2.487Zm-3.21-5.034a.568.568,0,0,0-.05-.117.664.664,0,0,0-.077-.108.87.87,0,0,0-.1-.1,1.21,1.21,0,0,0-.128-.092q-.042-.025-.126-.069l-.211-.107-.3-.145-.379-.182-.69-.322-.643,1.373.782.369.319.149.253.114q.11.048.187.079t.121.044a1.357,1.357,0,0,0,.159.041.949.949,0,0,0,.15.017.73.73,0,0,0,.141-.009.651.651,0,0,0,.134-.037.616.616,0,0,0,.122-.059.629.629,0,0,0,.106-.084.723.723,0,0,0,.09-.109.907.907,0,0,0,.074-.133.746.746,0,0,0,.06-.131.64.64,0,0,0,.03-.13.607.607,0,0,0,0-.127.636.636,0,0,0-.024-.124m-.921,2.6a.786.786,0,0,0-.086-.236.87.87,0,0,0-.071-.107,1.034,1.034,0,0,0-.089-.1,1.1,1.1,0,0,0-.142-.11q-.09-.061-.218-.133t-.294-.157q-.165-.084-.368-.181l-.969-.448L64.185,23.5l1.11.519.3.135q.134.06.239.1t.181.072a1.174,1.174,0,0,0,.123.039.937.937,0,0,0,.143.025.86.86,0,0,0,.139,0,.815.815,0,0,0,.135-.02.8.8,0,0,0,.129-.042.614.614,0,0,0,.123-.066.687.687,0,0,0,.108-.094.87.87,0,0,0,.094-.121,1.183,1.183,0,0,0,.081-.147,1.218,1.218,0,0,0,.049-.133.948.948,0,0,0,.03-.13.786.786,0,0,0,.009-.128.711.711,0,0,0-.013-.126M37.911,21.875a4.235,4.235,0,0,0-.276-.452,2.928,2.928,0,0,0-.3-.36,2.081,2.081,0,0,0-.317-.268,1.6,1.6,0,0,0-.686-.266,1.549,1.549,0,0,0-.354-.008,1.7,1.7,0,0,0-.356.073,2.087,2.087,0,0,0-.357.152,2.011,2.011,0,0,0-.328.213,1.7,1.7,0,0,0-.26.259,1.623,1.623,0,0,0-.192.3,1.778,1.778,0,0,0-.126.344,1.648,1.648,0,0,0-.044.382,2.094,2.094,0,0,0,.043.416,2.933,2.933,0,0,0,.131.45,4.281,4.281,0,0,0,.219.485,3.991,3.991,0,0,0,.274.447,2.833,2.833,0,0,0,.3.358,2.092,2.092,0,0,0,.326.269,1.692,1.692,0,0,0,.351.179,1.809,1.809,0,0,0,.362.093,1.623,1.623,0,0,0,.358.013,1.662,1.662,0,0,0,.353-.066,1.974,1.974,0,0,0,.665-.353,1.647,1.647,0,0,0,.252-.256,1.625,1.625,0,0,0,.188-.3,1.855,1.855,0,0,0,.125-.348,1.692,1.692,0,0,0,.045-.392,2.135,2.135,0,0,0-.044-.423,2.975,2.975,0,0,0-.133-.455,4.323,4.323,0,0,0-.22-.487m0,0a4.235,4.235,0,0,0-.276-.452,2.928,2.928,0,0,0-.3-.36,2.081,2.081,0,0,0-.317-.268,1.6,1.6,0,0,0-.686-.266,1.549,1.549,0,0,0-.354-.008,1.7,1.7,0,0,0-.356.073,2.087,2.087,0,0,0-.357.152,2.011,2.011,0,0,0-.328.213,1.7,1.7,0,0,0-.26.259,1.623,1.623,0,0,0-.192.3,1.778,1.778,0,0,0-.126.344,1.648,1.648,0,0,0-.044.382,2.094,2.094,0,0,0,.043.416,2.933,2.933,0,0,0,.131.45,4.281,4.281,0,0,0,.219.485,3.991,3.991,0,0,0,.274.447,2.833,2.833,0,0,0,.3.358,2.092,2.092,0,0,0,.326.269,1.692,1.692,0,0,0,.351.179,1.809,1.809,0,0,0,.362.093,1.623,1.623,0,0,0,.358.013,1.662,1.662,0,0,0,.353-.066,1.974,1.974,0,0,0,.665-.353,1.647,1.647,0,0,0,.252-.256,1.625,1.625,0,0,0,.188-.3,1.855,1.855,0,0,0,.125-.348,1.692,1.692,0,0,0,.045-.392,2.135,2.135,0,0,0-.044-.423,2.975,2.975,0,0,0-.133-.455,4.323,4.323,0,0,0-.22-.487m29.252,1.507a.786.786,0,0,0-.086-.236.87.87,0,0,0-.071-.107,1.034,1.034,0,0,0-.089-.1,1.1,1.1,0,0,0-.142-.11q-.09-.061-.218-.133t-.294-.157q-.165-.084-.368-.181l-.969-.448L64.185,23.5l1.11.519.3.135q.134.06.239.1t.181.072a1.174,1.174,0,0,0,.123.039.937.937,0,0,0,.143.025.86.86,0,0,0,.139,0,.815.815,0,0,0,.135-.02.8.8,0,0,0,.129-.042.614.614,0,0,0,.123-.066.687.687,0,0,0,.108-.094.87.87,0,0,0,.094-.121,1.183,1.183,0,0,0,.081-.147,1.218,1.218,0,0,0,.049-.133.948.948,0,0,0,.03-.13.786.786,0,0,0,.009-.128.711.711,0,0,0-.013-.126m.921-2.6a.568.568,0,0,0-.05-.117.664.664,0,0,0-.077-.108.87.87,0,0,0-.1-.1,1.21,1.21,0,0,0-.128-.092q-.042-.025-.126-.069l-.211-.107-.3-.145-.379-.182-.69-.322-.643,1.373.782.369.319.149.253.114q.11.048.187.079t.121.044a1.357,1.357,0,0,0,.159.041.949.949,0,0,0,.15.017.73.73,0,0,0,.141-.009.651.651,0,0,0,.134-.037.616.616,0,0,0,.122-.059.629.629,0,0,0,.106-.084.723.723,0,0,0,.09-.109.907.907,0,0,0,.074-.133.746.746,0,0,0,.06-.131.64.64,0,0,0,.03-.13.607.607,0,0,0,0-.127.636.636,0,0,0-.024-.124m3.21,5.034,1.428,1.076.747-2.487Zm0,0,1.428,1.076.747-2.487Zm-3.21-5.034a.568.568,0,0,0-.05-.117.664.664,0,0,0-.077-.108.87.87,0,0,0-.1-.1,1.21,1.21,0,0,0-.128-.092q-.042-.025-.126-.069l-.211-.107-.3-.145-.379-.182-.69-.322-.643,1.373.782.369.319.149.253.114q.11.048.187.079t.121.044a1.357,1.357,0,0,0,.159.041.949.949,0,0,0,.15.017.73.73,0,0,0,.141-.009.651.651,0,0,0,.134-.037.616.616,0,0,0,.122-.059.629.629,0,0,0,.106-.084.723.723,0,0,0,.09-.109.907.907,0,0,0,.074-.133.746.746,0,0,0,.06-.131.64.64,0,0,0,.03-.13.607.607,0,0,0,0-.127.636.636,0,0,0-.024-.124m-.921,2.6a.786.786,0,0,0-.086-.236.87.87,0,0,0-.071-.107,1.034,1.034,0,0,0-.089-.1,1.1,1.1,0,0,0-.142-.11q-.09-.061-.218-.133t-.294-.157q-.165-.084-.368-.181l-.969-.448L64.185,23.5l1.11.519.3.135q.134.06.239.1t.181.072a1.174,1.174,0,0,0,.123.039.937.937,0,0,0,.143.025.86.86,0,0,0,.139,0,.815.815,0,0,0,.135-.02.8.8,0,0,0,.129-.042.614.614,0,0,0,.123-.066.687.687,0,0,0,.108-.094.87.87,0,0,0,.094-.121,1.183,1.183,0,0,0,.081-.147,1.218,1.218,0,0,0,.049-.133.948.948,0,0,0,.03-.13.786.786,0,0,0,.009-.128.711.711,0,0,0-.013-.126M37.911,21.875a4.235,4.235,0,0,0-.276-.452,2.928,2.928,0,0,0-.3-.36,2.081,2.081,0,0,0-.317-.268,1.6,1.6,0,0,0-.686-.266,1.549,1.549,0,0,0-.354-.008,1.7,1.7,0,0,0-.356.073,2.087,2.087,0,0,0-.357.152,2.011,2.011,0,0,0-.328.213,1.7,1.7,0,0,0-.26.259,1.623,1.623,0,0,0-.192.3,1.778,1.778,0,0,0-.126.344,1.648,1.648,0,0,0-.044.382,2.094,2.094,0,0,0,.043.416,2.933,2.933,0,0,0,.131.45,4.281,4.281,0,0,0,.219.485,3.991,3.991,0,0,0,.274.447,2.833,2.833,0,0,0,.3.358,2.092,2.092,0,0,0,.326.269,1.692,1.692,0,0,0,.351.179,1.809,1.809,0,0,0,.362.093,1.623,1.623,0,0,0,.358.013,1.662,1.662,0,0,0,.353-.066,1.974,1.974,0,0,0,.665-.353,1.647,1.647,0,0,0,.252-.256,1.625,1.625,0,0,0,.188-.3,1.855,1.855,0,0,0,.125-.348,1.692,1.692,0,0,0,.045-.392,2.135,2.135,0,0,0-.044-.423,2.975,2.975,0,0,0-.133-.455,4.323,4.323,0,0,0-.22-.487m0,0a4.235,4.235,0,0,0-.276-.452,2.928,2.928,0,0,0-.3-.36,2.081,2.081,0,0,0-.317-.268,1.6,1.6,0,0,0-.686-.266,1.549,1.549,0,0,0-.354-.008,1.7,1.7,0,0,0-.356.073,2.087,2.087,0,0,0-.357.152,2.011,2.011,0,0,0-.328.213,1.7,1.7,0,0,0-.26.259,1.623,1.623,0,0,0-.192.3,1.778,1.778,0,0,0-.126.344,1.648,1.648,0,0,0-.044.382,2.094,2.094,0,0,0,.043.416,2.933,2.933,0,0,0,.131.45,4.281,4.281,0,0,0,.219.485,3.991,3.991,0,0,0,.274.447,2.833,2.833,0,0,0,.3.358,2.092,2.092,0,0,0,.326.269,1.692,1.692,0,0,0,.351.179,1.809,1.809,0,0,0,.362.093,1.623,1.623,0,0,0,.358.013,1.662,1.662,0,0,0,.353-.066,1.974,1.974,0,0,0,.665-.353,1.647,1.647,0,0,0,.252-.256,1.625,1.625,0,0,0,.188-.3,1.855,1.855,0,0,0,.125-.348,1.692,1.692,0,0,0,.045-.392,2.135,2.135,0,0,0-.044-.423,2.975,2.975,0,0,0-.133-.455,4.323,4.323,0,0,0-.22-.487m29.252,1.507a.786.786,0,0,0-.086-.236.87.87,0,0,0-.071-.107,1.034,1.034,0,0,0-.089-.1,1.1,1.1,0,0,0-.142-.11q-.09-.061-.218-.133t-.294-.157q-.165-.084-.368-.181l-.969-.448L64.185,23.5l1.11.519.3.135q.134.06.239.1t.181.072a1.174,1.174,0,0,0,.123.039.937.937,0,0,0,.143.025.86.86,0,0,0,.139,0,.815.815,0,0,0,.135-.02.8.8,0,0,0,.129-.042.614.614,0,0,0,.123-.066.687.687,0,0,0,.108-.094.87.87,0,0,0,.094-.121,1.183,1.183,0,0,0,.081-.147,1.218,1.218,0,0,0,.049-.133.948.948,0,0,0,.03-.13.786.786,0,0,0,.009-.128.711.711,0,0,0-.013-.126m.921-2.6a.568.568,0,0,0-.05-.117.664.664,0,0,0-.077-.108.87.87,0,0,0-.1-.1,1.21,1.21,0,0,0-.128-.092q-.042-.025-.126-.069l-.211-.107-.3-.145-.379-.182-.69-.322-.643,1.373.782.369.319.149.253.114q.11.048.187.079t.121.044a1.357,1.357,0,0,0,.159.041.949.949,0,0,0,.15.017.73.73,0,0,0,.141-.009.651.651,0,0,0,.134-.037.616.616,0,0,0,.122-.059.629.629,0,0,0,.106-.084.723.723,0,0,0,.09-.109.907.907,0,0,0,.074-.133.746.746,0,0,0,.06-.131.64.64,0,0,0,.03-.13.607.607,0,0,0,0-.127.636.636,0,0,0-.024-.124m3.21,5.034,1.428,1.076.747-2.487Zm0,0,1.428,1.076.747-2.487Zm-3.21-5.034a.568.568,0,0,0-.05-.117.664.664,0,0,0-.077-.108.87.87,0,0,0-.1-.1,1.21,1.21,0,0,0-.128-.092q-.042-.025-.126-.069l-.211-.107-.3-.145-.379-.182-.69-.322-.643,1.373.782.369.319.149.253.114q.11.048.187.079t.121.044a1.357,1.357,0,0,0,.159.041.949.949,0,0,0,.15.017.73.73,0,0,0,.141-.009.651.651,0,0,0,.134-.037.616.616,0,0,0,.122-.059.629.629,0,0,0,.106-.084.723.723,0,0,0,.09-.109.907.907,0,0,0,.074-.133.746.746,0,0,0,.06-.131.64.64,0,0,0,.03-.13.607.607,0,0,0,0-.127.636.636,0,0,0-.024-.124m-.921,2.6a.786.786,0,0,0-.086-.236.87.87,0,0,0-.071-.107,1.034,1.034,0,0,0-.089-.1,1.1,1.1,0,0,0-.142-.11q-.09-.061-.218-.133t-.294-.157q-.165-.084-.368-.181l-.969-.448L64.185,23.5l1.11.519.3.135q.134.06.239.1t.181.072a1.174,1.174,0,0,0,.123.039.937.937,0,0,0,.143.025.86.86,0,0,0,.139,0,.815.815,0,0,0,.135-.02.8.8,0,0,0,.129-.042.614.614,0,0,0,.123-.066.687.687,0,0,0,.108-.094.87.87,0,0,0,.094-.121,1.183,1.183,0,0,0,.081-.147,1.218,1.218,0,0,0,.049-.133.948.948,0,0,0,.03-.13.786.786,0,0,0,.009-.128.711.711,0,0,0-.013-.126M37.911,21.875a4.235,4.235,0,0,0-.276-.452,2.928,2.928,0,0,0-.3-.36,2.081,2.081,0,0,0-.317-.268,1.6,1.6,0,0,0-.686-.266,1.549,1.549,0,0,0-.354-.008,1.7,1.7,0,0,0-.356.073,2.087,2.087,0,0,0-.357.152,2.011,2.011,0,0,0-.328.213,1.7,1.7,0,0,0-.26.259,1.623,1.623,0,0,0-.192.3,1.778,1.778,0,0,0-.126.344,1.648,1.648,0,0,0-.044.382,2.094,2.094,0,0,0,.043.416,2.933,2.933,0,0,0,.131.45,4.281,4.281,0,0,0,.219.485,3.991,3.991,0,0,0,.274.447,2.833,2.833,0,0,0,.3.358,2.092,2.092,0,0,0,.326.269,1.692,1.692,0,0,0,.351.179,1.809,1.809,0,0,0,.362.093,1.623,1.623,0,0,0,.358.013,1.662,1.662,0,0,0,.353-.066,1.974,1.974,0,0,0,.665-.353,1.647,1.647,0,0,0,.252-.256,1.625,1.625,0,0,0,.188-.3,1.855,1.855,0,0,0,.125-.348,1.692,1.692,0,0,0,.045-.392,2.135,2.135,0,0,0-.044-.423,2.975,2.975,0,0,0-.133-.455,4.323,4.323,0,0,0-.22-.487m0,0a4.235,4.235,0,0,0-.276-.452,2.928,2.928,0,0,0-.3-.36,2.081,2.081,0,0,0-.317-.268,1.6,1.6,0,0,0-.686-.266,1.549,1.549,0,0,0-.354-.008,1.7,1.7,0,0,0-.356.073,2.087,2.087,0,0,0-.357.152,2.011,2.011,0,0,0-.328.213,1.7,1.7,0,0,0-.26.259,1.623,1.623,0,0,0-.192.3,1.778,1.778,0,0,0-.126.344,1.648,1.648,0,0,0-.044.382,2.094,2.094,0,0,0,.043.416,2.933,2.933,0,0,0,.131.45,4.281,4.281,0,0,0,.219.485,3.991,3.991,0,0,0,.274.447,2.833,2.833,0,0,0,.3.358,2.092,2.092,0,0,0,.326.269,1.692,1.692,0,0,0,.351.179,1.809,1.809,0,0,0,.362.093,1.623,1.623,0,0,0,.358.013,1.662,1.662,0,0,0,.353-.066,1.974,1.974,0,0,0,.665-.353,1.647,1.647,0,0,0,.252-.256,1.625,1.625,0,0,0,.188-.3,1.855,1.855,0,0,0,.125-.348,1.692,1.692,0,0,0,.045-.392,2.135,2.135,0,0,0-.044-.423,2.975,2.975,0,0,0-.133-.455,4.323,4.323,0,0,0-.22-.487m29.252,1.507a.786.786,0,0,0-.086-.236.87.87,0,0,0-.071-.107,1.034,1.034,0,0,0-.089-.1,1.1,1.1,0,0,0-.142-.11q-.09-.061-.218-.133t-.294-.157q-.165-.084-.368-.181l-.969-.448L64.185,23.5l1.11.519.3.135q.134.06.239.1t.181.072a1.174,1.174,0,0,0,.123.039.937.937,0,0,0,.143.025.86.86,0,0,0,.139,0,.815.815,0,0,0,.135-.02.8.8,0,0,0,.129-.042.614.614,0,0,0,.123-.066.687.687,0,0,0,.108-.094.87.87,0,0,0,.094-.121,1.183,1.183,0,0,0,.081-.147,1.218,1.218,0,0,0,.049-.133.948.948,0,0,0,.03-.13.786.786,0,0,0,.009-.128.711.711,0,0,0-.013-.126m.921-2.6a.568.568,0,0,0-.05-.117.664.664,0,0,0-.077-.108.87.87,0,0,0-.1-.1,1.21,1.21,0,0,0-.128-.092q-.042-.025-.126-.069l-.211-.107-.3-.145-.379-.182-.69-.322-.643,1.373.782.369.319.149.253.114q.11.048.187.079t.121.044a1.357,1.357,0,0,0,.159.041.949.949,0,0,0,.15.017.73.73,0,0,0,.141-.009.651.651,0,0,0,.134-.037.616.616,0,0,0,.122-.059.629.629,0,0,0,.106-.084.723.723,0,0,0,.09-.109.907.907,0,0,0,.074-.133.746.746,0,0,0,.06-.131.64.64,0,0,0,.03-.13.607.607,0,0,0,0-.127.636.636,0,0,0-.024-.124m3.21,5.034,1.428,1.076.747-2.487Zm0,0,1.428,1.076.747-2.487Zm-3.21-5.034a.568.568,0,0,0-.05-.117.664.664,0,0,0-.077-.108.87.87,0,0,0-.1-.1,1.21,1.21,0,0,0-.128-.092q-.042-.025-.126-.069l-.211-.107-.3-.145-.379-.182-.69-.322-.643,1.373.782.369.319.149.253.114q.11.048.187.079t.121.044a1.357,1.357,0,0,0,.159.041.949.949,0,0,0,.15.017.73.73,0,0,0,.141-.009.651.651,0,0,0,.134-.037.616.616,0,0,0,.122-.059.629.629,0,0,0,.106-.084.723.723,0,0,0,.09-.109.907.907,0,0,0,.074-.133.746.746,0,0,0,.06-.131.64.64,0,0,0,.03-.13.607.607,0,0,0,0-.127.636.636,0,0,0-.024-.124m-.921,2.6a.786.786,0,0,0-.086-.236.87.87,0,0,0-.071-.107,1.034,1.034,0,0,0-.089-.1,1.1,1.1,0,0,0-.142-.11q-.09-.061-.218-.133t-.294-.157q-.165-.084-.368-.181l-.969-.448L64.185,23.5l1.11.519.3.135q.134.06.239.1t.181.072a1.174,1.174,0,0,0,.123.039.937.937,0,0,0,.143.025.86.86,0,0,0,.139,0,.815.815,0,0,0,.135-.02.8.8,0,0,0,.129-.042.614.614,0,0,0,.123-.066.687.687,0,0,0,.108-.094.87.87,0,0,0,.094-.121,1.183,1.183,0,0,0,.081-.147,1.218,1.218,0,0,0,.049-.133.948.948,0,0,0,.03-.13.786.786,0,0,0,.009-.128.711.711,0,0,0-.013-.126M37.911,21.875a4.235,4.235,0,0,0-.276-.452,2.928,2.928,0,0,0-.3-.36,2.081,2.081,0,0,0-.317-.268,1.6,1.6,0,0,0-.686-.266,1.549,1.549,0,0,0-.354-.008,1.7,1.7,0,0,0-.356.073,2.087,2.087,0,0,0-.357.152,2.011,2.011,0,0,0-.328.213,1.7,1.7,0,0,0-.26.259,1.623,1.623,0,0,0-.192.3,1.778,1.778,0,0,0-.126.344,1.648,1.648,0,0,0-.044.382,2.094,2.094,0,0,0,.043.416,2.933,2.933,0,0,0,.131.45,4.281,4.281,0,0,0,.219.485,3.991,3.991,0,0,0,.274.447,2.833,2.833,0,0,0,.3.358,2.092,2.092,0,0,0,.326.269,1.692,1.692,0,0,0,.351.179,1.809,1.809,0,0,0,.362.093,1.623,1.623,0,0,0,.358.013,1.662,1.662,0,0,0,.353-.066,1.974,1.974,0,0,0,.665-.353,1.647,1.647,0,0,0,.252-.256,1.625,1.625,0,0,0,.188-.3,1.855,1.855,0,0,0,.125-.348,1.692,1.692,0,0,0,.045-.392,2.135,2.135,0,0,0-.044-.423,2.975,2.975,0,0,0-.133-.455,4.323,4.323,0,0,0-.22-.487m0,0a4.235,4.235,0,0,0-.276-.452,2.928,2.928,0,0,0-.3-.36,2.081,2.081,0,0,0-.317-.268,1.6,1.6,0,0,0-.686-.266,1.549,1.549,0,0,0-.354-.008,1.7,1.7,0,0,0-.356.073,2.087,2.087,0,0,0-.357.152,2.011,2.011,0,0,0-.328.213,1.7,1.7,0,0,0-.26.259,1.623,1.623,0,0,0-.192.3,1.778,1.778,0,0,0-.126.344,1.648,1.648,0,0,0-.044.382,2.094,2.094,0,0,0,.043.416,2.933,2.933,0,0,0,.131.45,4.281,4.281,0,0,0,.219.485,3.991,3.991,0,0,0,.274.447,2.833,2.833,0,0,0,.3.358,2.092,2.092,0,0,0,.326.269,1.692,1.692,0,0,0,.351.179,1.809,1.809,0,0,0,.362.093,1.623,1.623,0,0,0,.358.013,1.662,1.662,0,0,0,.353-.066,1.974,1.974,0,0,0,.665-.353,1.647,1.647,0,0,0,.252-.256,1.625,1.625,0,0,0,.188-.3,1.855,1.855,0,0,0,.125-.348,1.692,1.692,0,0,0,.045-.392,2.135,2.135,0,0,0-.044-.423,2.975,2.975,0,0,0-.133-.455,4.323,4.323,0,0,0-.22-.487m29.252,1.507a.786.786,0,0,0-.086-.236.87.87,0,0,0-.071-.107,1.034,1.034,0,0,0-.089-.1,1.1,1.1,0,0,0-.142-.11q-.09-.061-.218-.133t-.294-.157q-.165-.084-.368-.181l-.969-.448L64.185,23.5l1.11.519.3.135q.134.06.239.1t.181.072a1.174,1.174,0,0,0,.123.039.937.937,0,0,0,.143.025.86.86,0,0,0,.139,0,.815.815,0,0,0,.135-.02.8.8,0,0,0,.129-.042.614.614,0,0,0,.123-.066.687.687,0,0,0,.108-.094.87.87,0,0,0,.094-.121,1.183,1.183,0,0,0,.081-.147,1.218,1.218,0,0,0,.049-.133.948.948,0,0,0,.03-.13.786.786,0,0,0,.009-.128.711.711,0,0,0-.013-.126m.921-2.6a.568.568,0,0,0-.05-.117.664.664,0,0,0-.077-.108.87.87,0,0,0-.1-.1,1.21,1.21,0,0,0-.128-.092q-.042-.025-.126-.069l-.211-.107-.3-.145-.379-.182-.69-.322-.643,1.373.782.369.319.149.253.114q.11.048.187.079t.121.044a1.357,1.357,0,0,0,.159.041.949.949,0,0,0,.15.017.73.73,0,0,0,.141-.009.651.651,0,0,0,.134-.037.616.616,0,0,0,.122-.059.629.629,0,0,0,.106-.084.723.723,0,0,0,.09-.109.907.907,0,0,0,.074-.133.746.746,0,0,0,.06-.131.64.64,0,0,0,.03-.13.607.607,0,0,0,0-.127.636.636,0,0,0-.024-.124m0,0a.568.568,0,0,0-.05-.117.664.664,0,0,0-.077-.108.87.87,0,0,0-.1-.1,1.21,1.21,0,0,0-.128-.092q-.042-.025-.126-.069l-.211-.107-.3-.145-.379-.182-.69-.322-.643,1.373.782.369.319.149.253.114q.11.048.187.079t.121.044a1.357,1.357,0,0,0,.159.041.949.949,0,0,0,.15.017.73.73,0,0,0,.141-.009.651.651,0,0,0,.134-.037.616.616,0,0,0,.122-.059.629.629,0,0,0,.106-.084.723.723,0,0,0,.09-.109.907.907,0,0,0,.074-.133.746.746,0,0,0,.06-.131.64.64,0,0,0,.03-.13.607.607,0,0,0,0-.127.636.636,0,0,0-.024-.124m-.921,2.6a.786.786,0,0,0-.086-.236.87.87,0,0,0-.071-.107,1.034,1.034,0,0,0-.089-.1,1.1,1.1,0,0,0-.142-.11q-.09-.061-.218-.133t-.294-.157q-.165-.084-.368-.181l-.969-.448L64.185,23.5l1.11.519.3.135q.134.06.239.1t.181.072a1.174,1.174,0,0,0,.123.039.937.937,0,0,0,.143.025.86.86,0,0,0,.139,0,.815.815,0,0,0,.135-.02.8.8,0,0,0,.129-.042.614.614,0,0,0,.123-.066.687.687,0,0,0,.108-.094.87.87,0,0,0,.094-.121,1.183,1.183,0,0,0,.081-.147,1.218,1.218,0,0,0,.049-.133.948.948,0,0,0,.03-.13.786.786,0,0,0,.009-.128.711.711,0,0,0-.013-.126M37.911,21.875a4.235,4.235,0,0,0-.276-.452,2.928,2.928,0,0,0-.3-.36,2.081,2.081,0,0,0-.317-.268,1.6,1.6,0,0,0-.686-.266,1.549,1.549,0,0,0-.354-.008,1.7,1.7,0,0,0-.356.073,2.087,2.087,0,0,0-.357.152,2.011,2.011,0,0,0-.328.213,1.7,1.7,0,0,0-.26.259,1.623,1.623,0,0,0-.192.3,1.778,1.778,0,0,0-.126.344,1.648,1.648,0,0,0-.044.382,2.094,2.094,0,0,0,.043.416,2.933,2.933,0,0,0,.131.45,4.281,4.281,0,0,0,.219.485,3.991,3.991,0,0,0,.274.447,2.833,2.833,0,0,0,.3.358,2.092,2.092,0,0,0,.326.269,1.692,1.692,0,0,0,.351.179,1.809,1.809,0,0,0,.362.093,1.623,1.623,0,0,0,.358.013,1.662,1.662,0,0,0,.353-.066,1.974,1.974,0,0,0,.665-.353,1.647,1.647,0,0,0,.252-.256,1.625,1.625,0,0,0,.188-.3,1.855,1.855,0,0,0,.125-.348,1.692,1.692,0,0,0,.045-.392,2.135,2.135,0,0,0-.044-.423,2.975,2.975,0,0,0-.133-.455,4.323,4.323,0,0,0-.22-.487m0,0a4.235,4.235,0,0,0-.276-.452,2.928,2.928,0,0,0-.3-.36,2.081,2.081,0,0,0-.317-.268,1.6,1.6,0,0,0-.686-.266,1.549,1.549,0,0,0-.354-.008,1.7,1.7,0,0,0-.356.073,2.087,2.087,0,0,0-.357.152,2.011,2.011,0,0,0-.328.213,1.7,1.7,0,0,0-.26.259,1.623,1.623,0,0,0-.192.3,1.778,1.778,0,0,0-.126.344,1.648,1.648,0,0,0-.044.382,2.094,2.094,0,0,0,.043.416,2.933,2.933,0,0,0,.131.45,4.281,4.281,0,0,0,.219.485,3.991,3.991,0,0,0,.274.447,2.833,2.833,0,0,0,.3.358,2.092,2.092,0,0,0,.326.269,1.692,1.692,0,0,0,.351.179,1.809,1.809,0,0,0,.362.093,1.623,1.623,0,0,0,.358.013,1.662,1.662,0,0,0,.353-.066,1.974,1.974,0,0,0,.665-.353,1.647,1.647,0,0,0,.252-.256,1.625,1.625,0,0,0,.188-.3,1.855,1.855,0,0,0,.125-.348,1.692,1.692,0,0,0,.045-.392,2.135,2.135,0,0,0-.044-.423,2.975,2.975,0,0,0-.133-.455,4.323,4.323,0,0,0-.22-.487m0,0a4.235,4.235,0,0,0-.276-.452,2.928,2.928,0,0,0-.3-.36,2.081,2.081,0,0,0-.317-.268,1.6,1.6,0,0,0-.686-.266,1.549,1.549,0,0,0-.354-.008,1.7,1.7,0,0,0-.356.073,2.087,2.087,0,0,0-.357.152,2.011,2.011,0,0,0-.328.213,1.7,1.7,0,0,0-.26.259,1.623,1.623,0,0,0-.192.3,1.778,1.778,0,0,0-.126.344,1.648,1.648,0,0,0-.044.382,2.094,2.094,0,0,0,.043.416,2.933,2.933,0,0,0,.131.45,4.281,4.281,0,0,0,.219.485,3.991,3.991,0,0,0,.274.447,2.833,2.833,0,0,0,.3.358,2.092,2.092,0,0,0,.326.269,1.692,1.692,0,0,0,.351.179,1.809,1.809,0,0,0,.362.093,1.623,1.623,0,0,0,.358.013,1.662,1.662,0,0,0,.353-.066,1.974,1.974,0,0,0,.665-.353,1.647,1.647,0,0,0,.252-.256,1.625,1.625,0,0,0,.188-.3,1.855,1.855,0,0,0,.125-.348,1.692,1.692,0,0,0,.045-.392,2.135,2.135,0,0,0-.044-.423,2.975,2.975,0,0,0-.133-.455,4.323,4.323,0,0,0-.22-.487m0,0a4.235,4.235,0,0,0-.276-.452,2.928,2.928,0,0,0-.3-.36,2.081,2.081,0,0,0-.317-.268,1.6,1.6,0,0,0-.686-.266,1.549,1.549,0,0,0-.354-.008,1.7,1.7,0,0,0-.356.073,2.087,2.087,0,0,0-.357.152,2.011,2.011,0,0,0-.328.213,1.7,1.7,0,0,0-.26.259,1.623,1.623,0,0,0-.192.3,1.778,1.778,0,0,0-.126.344,1.648,1.648,0,0,0-.044.382,2.094,2.094,0,0,0,.043.416,2.933,2.933,0,0,0,.131.45,4.281,4.281,0,0,0,.219.485,3.991,3.991,0,0,0,.274.447,2.833,2.833,0,0,0,.3.358,2.092,2.092,0,0,0,.326.269,1.692,1.692,0,0,0,.351.179,1.809,1.809,0,0,0,.362.093,1.623,1.623,0,0,0,.358.013,1.662,1.662,0,0,0,.353-.066,1.974,1.974,0,0,0,.665-.353,1.647,1.647,0,0,0,.252-.256,1.625,1.625,0,0,0,.188-.3,1.855,1.855,0,0,0,.125-.348,1.692,1.692,0,0,0,.045-.392,2.135,2.135,0,0,0-.044-.423,2.975,2.975,0,0,0-.133-.455,4.323,4.323,0,0,0-.22-.487m0,0a4.235,4.235,0,0,0-.276-.452,2.928,2.928,0,0,0-.3-.36,2.081,2.081,0,0,0-.317-.268,1.6,1.6,0,0,0-.686-.266,1.549,1.549,0,0,0-.354-.008,1.7,1.7,0,0,0-.356.073,2.087,2.087,0,0,0-.357.152,2.011,2.011,0,0,0-.328.213,1.7,1.7,0,0,0-.26.259,1.623,1.623,0,0,0-.192.3,1.778,1.778,0,0,0-.126.344,1.648,1.648,0,0,0-.044.382,2.094,2.094,0,0,0,.043.416,2.933,2.933,0,0,0,.131.45,4.281,4.281,0,0,0,.219.485,3.991,3.991,0,0,0,.274.447,2.833,2.833,0,0,0,.3.358,2.092,2.092,0,0,0,.326.269,1.692,1.692,0,0,0,.351.179,1.809,1.809,0,0,0,.362.093,1.623,1.623,0,0,0,.358.013,1.662,1.662,0,0,0,.353-.066,1.974,1.974,0,0,0,.665-.353,1.647,1.647,0,0,0,.252-.256,1.625,1.625,0,0,0,.188-.3,1.855,1.855,0,0,0,.125-.348,1.692,1.692,0,0,0,.045-.392,2.135,2.135,0,0,0-.044-.423,2.975,2.975,0,0,0-.133-.455,4.323,4.323,0,0,0-.22-.487M48.05,59.913l-1.9-.335-5.024,8.265,1.905.336,1.088-1.888,3.549.626.421,2.154,1.95.344Zm-3.112,4.982,1.776-3.084.644,3.511Zm11.793-3.451-2.666,3.15-1.473-3.88-2.1-.37,2.343,5.713-.659,3.735,1.785.315.657-3.728L58.795,61.8l-2.062-.364Zm8.508,6.53a2.526,2.526,0,0,0-.335-.586,2.687,2.687,0,0,0-.224-.257,2.978,2.978,0,0,0-.261-.234q-.143-.109-.327-.225t-.412-.239q-.227-.123-.5-.253t-.584-.266q-.314-.133-.568-.256t-.446-.233a3.426,3.426,0,0,1-.326-.209,1.3,1.3,0,0,1-.208-.184.889.889,0,0,1-.1-.138.7.7,0,0,1-.061-.144.638.638,0,0,1-.026-.149.681.681,0,0,1,.01-.154.732.732,0,0,1,.047-.161A.629.629,0,0,1,61,64.15a.664.664,0,0,1,.112-.113.844.844,0,0,1,.143-.092,1.358,1.358,0,0,1,.266-.1,1.745,1.745,0,0,1,.3-.05,2.391,2.391,0,0,1,.339,0,3.356,3.356,0,0,1,.375.046,3.245,3.245,0,0,1,.35.081,2.2,2.2,0,0,1,.3.11,1.515,1.515,0,0,1,.245.139,1.112,1.112,0,0,1,.191.17,1.079,1.079,0,0,1,.143.206,1.308,1.308,0,0,1,.1.247,1.76,1.76,0,0,1,.059.289,2.487,2.487,0,0,1,.017.331l1.806.241a3.292,3.292,0,0,0,.031-.593,2.665,2.665,0,0,0-.08-.549A2.458,2.458,0,0,0,65.509,64a2.638,2.638,0,0,0-.3-.465,2.555,2.555,0,0,0-.42-.4,3.226,3.226,0,0,0-.538-.331,4.451,4.451,0,0,0-.656-.258,6.376,6.376,0,0,0-.775-.184q-.255-.045-.5-.067t-.465-.022a4.2,4.2,0,0,0-.436.022,3.566,3.566,0,0,0-.406.066,3.061,3.061,0,0,0-.369.114,2.619,2.619,0,0,0-.335.155,2.338,2.338,0,0,0-.3.2,2.211,2.211,0,0,0-.261.237,2.617,2.617,0,0,0-.22.272,2.339,2.339,0,0,0-.174.29,2.259,2.259,0,0,0-.128.31,2.367,2.367,0,0,0-.083.331,2.475,2.475,0,0,0-.038.516,2.24,2.24,0,0,0,.072.494,2.328,2.328,0,0,0,.182.472,2.749,2.749,0,0,0,.291.448,2.393,2.393,0,0,0,.3.31,3.974,3.974,0,0,0,.411.311q.233.155.522.31t.635.308l.487.219.39.179q.171.08.293.141t.2.1q.108.059.2.121a1.777,1.777,0,0,1,.162.124,1.237,1.237,0,0,1,.126.125.823.823,0,0,1,.089.124.808.808,0,0,1,.062.131.743.743,0,0,1,.036.137.809.809,0,0,1,.01.146,1.058,1.058,0,0,1-.086.39,1.006,1.006,0,0,1-.122.207,1.174,1.174,0,0,1-.174.182,1.558,1.558,0,0,1-.226.158,1.273,1.273,0,0,1-.274.118,1.66,1.66,0,0,1-.319.062,2.381,2.381,0,0,1-.366.006,3.539,3.539,0,0,1-.413-.05,2.781,2.781,0,0,1-.383-.095,2.164,2.164,0,0,1-.332-.139,1.783,1.783,0,0,1-.281-.182,1.6,1.6,0,0,1-.231-.224,1.565,1.565,0,0,1-.18-.275,1.834,1.834,0,0,1-.129-.325,2.36,2.36,0,0,1-.076-.376,3.2,3.2,0,0,1-.022-.429l-1.771-.135a4.734,4.734,0,0,0,.008.724,3.69,3.69,0,0,0,.117.651,3.1,3.1,0,0,0,.223.579,2.908,2.908,0,0,0,.328.507,2.732,2.732,0,0,0,.439.427,3.351,3.351,0,0,0,.555.348,4.472,4.472,0,0,0,.67.269,6.193,6.193,0,0,0,.784.189q.289.051.558.078t.519.03a4.489,4.489,0,0,0,.478-.019,3.464,3.464,0,0,0,.437-.069,2.979,2.979,0,0,0,.4-.119,2.6,2.6,0,0,0,.362-.17,2.4,2.4,0,0,0,.611-.494,2.839,2.839,0,0,0,.246-.3,2.632,2.632,0,0,0,.195-.327,2.577,2.577,0,0,0,.144-.349,2.668,2.668,0,0,0,.093-.371,3.992,3.992,0,0,0,.046-.412,3.026,3.026,0,0,0,0-.384,2.411,2.411,0,0,0-.051-.356,2.07,2.07,0,0,0-.1-.33M41.363,61.23q-.035-.226-.09-.438a4.018,4.018,0,0,0-.13-.41A3.693,3.693,0,0,0,40.974,60a3.523,3.523,0,0,0-.209-.355,3.14,3.14,0,0,0-.245-.325,2.953,2.953,0,0,0-.28-.284,2.99,2.99,0,0,0-.315-.244,3.249,3.249,0,0,0-.353-.205,3.3,3.3,0,0,0-.311-.131q-.172-.063-.379-.122t-.449-.113q-.242-.054-.519-.1l-3.28-.578L33.07,66.415l3.369.594q.249.044.475.072t.428.04q.2.012.381.007a2.927,2.927,0,0,0,.332-.027q.21-.029.4-.074a3.486,3.486,0,0,0,.364-.105,2.771,2.771,0,0,0,.326-.138,2.315,2.315,0,0,0,.289-.172,3.323,3.323,0,0,0,.348-.269,3.62,3.62,0,0,0,.321-.323,4.084,4.084,0,0,0,.293-.377,4.728,4.728,0,0,0,.264-.432q.1-.187.192-.4t.167-.438q.077-.23.14-.482t.111-.526q.06-.307.095-.594t.046-.555q.011-.267,0-.515a4.712,4.712,0,0,0-.047-.476M38.98,64.568q-.071.141-.146.26a2.291,2.291,0,0,1-.152.217,1.556,1.556,0,0,1-.159.172,1.065,1.065,0,0,1-.165.127,1.591,1.591,0,0,1-.365.165,1.673,1.673,0,0,1-.2.049,1.832,1.832,0,0,1-.22.025,1.721,1.721,0,0,1-.2,0q-.112,0-.249-.018t-.3-.038q-.162-.024-.35-.057l-1.337-.236,1.037-5.879.807.142q.275.048.5.094t.411.089q.182.043.318.083t.225.076a2.247,2.247,0,0,1,.229.11,1.823,1.823,0,0,1,.2.13,1.567,1.567,0,0,1,.176.151,1.457,1.457,0,0,1,.148.174,1.512,1.512,0,0,1,.124.2,1.834,1.834,0,0,1,.1.224,2.259,2.259,0,0,1,.078.252,2.794,2.794,0,0,1,.053.278,2.732,2.732,0,0,1,.025.319q0,.174-.008.375t-.041.43q-.029.229-.074.484t-.1.494q-.052.231-.111.431t-.123.369a3.263,3.263,0,0,1-.136.31M85.237,52.944l.943,3.478,3.441,1.061-3.013,1.972.051,3.6L83.852,60.8l-3.409,1.163L81.729,58.6,79.565,55.71l3.6.18ZM20.481,41.525,21.424,45l3.441,1.061-3.02,1.971.059,3.6L19.1,49.377,15.687,50.54l1.279-3.364-2.157-2.884,3.6.18ZM59.813,7.8a44.761,44.761,0,1,0,16.6,6.51,44.74,44.74,0,0,0-16.6-6.51M44.671,93.672a42.167,42.167,0,1,1,16.79-.415,42.155,42.155,0,0,1-16.79.415M68.345,39.351a6.179,6.179,0,0,0-.813-1.179,5.665,5.665,0,0,0-1.04-.922,6.2,6.2,0,0,0-1.268-.666,8.31,8.31,0,0,0-3.038-.537,6.206,6.206,0,0,0-1.414.188,5.617,5.617,0,0,0-1.285.5,6.06,6.06,0,0,0-1.155.817A7.594,7.594,0,0,0,57.1,38.973a11.683,11.683,0,0,0-1.037,1.906,18.65,18.65,0,0,0-.842,2.393,29.344,29.344,0,0,0-.648,2.878q-.281,1.591-.395,2.961a19.724,19.724,0,0,0-.063,2.517,11.327,11.327,0,0,0,.27,2.075,6.54,6.54,0,0,0,.6,1.633,7.119,7.119,0,0,0,.873,1.275,6.141,6.141,0,0,0,1.085.99,6.263,6.263,0,0,0,1.3.707,7.5,7.5,0,0,0,1.508.425,7.941,7.941,0,0,0,1.543.126,6.237,6.237,0,0,0,1.415-.187,5.664,5.664,0,0,0,1.286-.5,6.119,6.119,0,0,0,1.159-.812,7.635,7.635,0,0,0,1.232-1.425,11.75,11.75,0,0,0,1.038-1.914,18.783,18.783,0,0,0,.844-2.4,29.617,29.617,0,0,0,.65-2.893q.274-1.572.376-2.944a18.948,18.948,0,0,0,.03-2.543,11.71,11.71,0,0,0-.316-2.144,7.5,7.5,0,0,0-.663-1.745M63.074,53.388q-.14.3-.288.553a4.188,4.188,0,0,1-.3.45,2.729,2.729,0,0,1-.319.347,1.813,1.813,0,0,1-.333.241,2.362,2.362,0,0,1-.351.161,2.118,2.118,0,0,1-.36.1,2.092,2.092,0,0,1-.37.03,2.283,2.283,0,0,1-.381-.035,2.248,2.248,0,0,1-.366-.1,2.094,2.094,0,0,1-.335-.153,2.117,2.117,0,0,1-.3-.21A2.316,2.316,0,0,1,59.1,54.5a1.709,1.709,0,0,1-.231-.353,2.954,2.954,0,0,1-.184-.471,5.056,5.056,0,0,1-.137-.588q-.057-.323-.091-.7a7.979,7.979,0,0,1-.013-.909q.018-.528.087-1.2t.188-1.5q.12-.824.291-1.8t.346-1.8q.175-.827.352-1.509t.357-1.217a8.971,8.971,0,0,1,.361-.926q.14-.3.288-.552a4.206,4.206,0,0,1,.3-.449,2.831,2.831,0,0,1,.319-.348,1.978,1.978,0,0,1,.334-.249,2.411,2.411,0,0,1,.35-.156,2.166,2.166,0,0,1,.359-.093,2.113,2.113,0,0,1,.368-.03,2.251,2.251,0,0,1,.377.035,2.276,2.276,0,0,1,.369.1,2.089,2.089,0,0,1,.335.154,2.142,2.142,0,0,1,.3.21,2.44,2.44,0,0,1,.274.266,1.776,1.776,0,0,1,.23.357,3.026,3.026,0,0,1,.184.472,5.109,5.109,0,0,1,.138.587q.057.322.092.7a7.977,7.977,0,0,1,.013.91q-.018.529-.087,1.205t-.189,1.5q-.12.826-.292,1.8t-.351,1.8q-.176.826-.353,1.505t-.355,1.213a9.3,9.3,0,0,1-.356.924M50.653,46.376a5.227,5.227,0,0,0-.5-.756,4.979,4.979,0,0,0-.619-.644,5.24,5.24,0,0,0-.736-.534,6.036,6.036,0,0,0-.853-.423,8.262,8.262,0,0,0,1.558-.693,5.624,5.624,0,0,0,1.186-.912,4.553,4.553,0,0,0,.814-1.129,4.786,4.786,0,0,0,.442-1.344,5.135,5.135,0,0,0,.078-1.016,4.96,4.96,0,0,0-.126-1,5.4,5.4,0,0,0-.328-.978,6.493,6.493,0,0,0-.53-.959,6.278,6.278,0,0,0-.865-1.051,6.113,6.113,0,0,0-1.064-.828,6.885,6.885,0,0,0-1.263-.606,8.7,8.7,0,0,0-1.463-.385q-.454-.08-.894-.113a8.138,8.138,0,0,0-.867-.019,7.539,7.539,0,0,0-.841.073,7.23,7.23,0,0,0-.813.166,6.618,6.618,0,0,0-.759.252,5.78,5.78,0,0,0-.689.33,5.3,5.3,0,0,0-.62.409,5.139,5.139,0,0,0-.55.488,5.883,5.883,0,0,0-.5.582,7.681,7.681,0,0,0-.465.692q-.224.374-.431.8t-.4.912l3.791,1.346a5.521,5.521,0,0,1,.24-.658,4.021,4.021,0,0,1,.3-.558,3.09,3.09,0,0,1,.36-.458,2.616,2.616,0,0,1,.421-.358,2.8,2.8,0,0,1,.46-.258,2.515,2.515,0,0,1,.994-.215,2.869,2.869,0,0,1,.532.045,3.183,3.183,0,0,1,.515.134,2.54,2.54,0,0,1,.446.208,2.223,2.223,0,0,1,.377.281,2.2,2.2,0,0,1,.669,1.215,2.562,2.562,0,0,1,.042.495,3.277,3.277,0,0,1-.052.538,3.333,3.333,0,0,1-.167.613,2.745,2.745,0,0,1-.269.529,2.569,2.569,0,0,1-.37.445,2.775,2.775,0,0,1-.469.361,2.655,2.655,0,0,1-.564.252,3.248,3.248,0,0,1-.647.131,4.41,4.41,0,0,1-.73.011,6.287,6.287,0,0,1-.813-.109l-1.078,3.361q.3-.029.57-.041T43.632,45q.25,0,.476.023t.428.055a3.032,3.032,0,0,1,.584.162,2.66,2.66,0,0,1,.965.65,3.1,3.1,0,0,1,.378.49,2.956,2.956,0,0,1,.288.574,3.219,3.219,0,0,1,.164.638,3.949,3.949,0,0,1,.041.7,5.234,5.234,0,0,1-.081.769,5.559,5.559,0,0,1-.2.792,4.228,4.228,0,0,1-.294.684,3.486,3.486,0,0,1-.391.577,3.236,3.236,0,0,1-.488.472,3.366,3.366,0,0,1-.551.353,2.85,2.85,0,0,1-.581.22,2.783,2.783,0,0,1-.612.086,3.158,3.158,0,0,1-.644-.049,3.3,3.3,0,0,1-.579-.156,2.865,2.865,0,0,1-.515-.252,2.788,2.788,0,0,1-.45-.349,3.059,3.059,0,0,1-.385-.446,3.023,3.023,0,0,1-.308-.528,3.449,3.449,0,0,1-.209-.6,4.351,4.351,0,0,1-.11-.683,5.84,5.84,0,0,1-.012-.762l-4.181-.229A8.116,8.116,0,0,0,36.4,49.56a6.92,6.92,0,0,0,.258,1.278,6.558,6.558,0,0,0,.49,1.183,6.988,6.988,0,0,0,.722,1.089,6.781,6.781,0,0,0,2,1.688,7.687,7.687,0,0,0,1.251.554,9.4,9.4,0,0,0,1.418.361,8.829,8.829,0,0,0,1.539.139,7.523,7.523,0,0,0,1.456-.14,7.09,7.09,0,0,0,1.371-.418,7.482,7.482,0,0,0,1.283-.695,7.636,7.636,0,0,0,1.117-.915,6.636,6.636,0,0,0,.872-1.069,6.542,6.542,0,0,0,.627-1.223,7.345,7.345,0,0,0,.38-1.379,6.573,6.573,0,0,0,.1-.988,5.551,5.551,0,0,0-.055-.935,5.066,5.066,0,0,0-.575-1.714" transform="translate(11.007 7.7)" fill="url(#linear-gradient)"/>
</svg>
