<svg xmlns="http://www.w3.org/2000/svg" width="220.087" height="138.597" viewBox="0 0 220.087 138.597">
  <g id="SlimJOY_Logo_Footer" transform="translate(-1563.67 -9145.76)">
    <path id="Path_2692" data-name="Path 2692" d="M230.4,76.19v32.9H241V76.19l11.858-46.315H241.683l-5.815,29.214-5.815-29.214H218.54ZM202.431,93.53c0,4.514-1.368,6.413-4.447,6.413-3.191,0-4.445-1.9-4.445-6.413v-48.1c0-4.514,1.368-6.413,4.445-6.413,3.193,0,4.447,1.9,4.447,6.413Zm10.6-43.585c0-9.382-.341-11.4-2.393-14.844a15.693,15.693,0,0,0-25.311,0c-2.052,3.444-2.395,5.463-2.395,14.844V88.9c0,9.382.343,11.4,2.395,14.844a15.527,15.527,0,0,0,25.311,0c2.052-3.444,2.393-5.345,2.393-14.844Zm-48.989-20.07v61.4c0,5.343-1.368,6.887-5.929,6.887h-.8v10.926c10.376,0,14.024-1.542,16.191-7.243.913-2.257,1.139-4.632,1.139-11.758V29.875Zm-56.936,79.212h9.919V61.108c2.052-1.782,3.191-2.375,4.559-2.375,1.711,0,2.509,1.426,2.509,4.394v45.959h9.919V61.108c1.938-1.782,2.965-2.375,4.333-2.375,1.711,0,2.622,1.544,2.622,4.394v45.959h9.919V63.128c0-6.176-.341-8.433-1.595-10.45a7.4,7.4,0,0,0-6.384-3.445c-3.649,0-6.386,1.9-9.122,6.413-1.709-4.75-3.534-6.413-6.954-6.413s-5.815,1.544-9.8,6.413l-.229-5.581h-9.69Zm-7.9-79.212H89.288v10.57h9.919Zm0,20.189H89.288v59.024h9.919ZM71.492,109.087h9.919V29.874H71.492ZM33.049,86.167c-.114,1.9-.114,2.613-.114,4.276,0,6.887.8,10.213,3.307,13.776,2.963,4.157,6.954,6.056,12.655,6.056,9.919,0,15.5-5.938,15.5-16.508,0-6.769-2.736-14.844-7.638-22.327L51.4,63.365c-7.068-11.045-7.524-12.114-7.524-16.984,0-4.75,1.6-7.362,4.447-7.362,2.393,0,4.1,1.782,4.445,4.987a46.568,46.568,0,0,1,.343,7.127l10.374-1.069c0-6.533,0-6.889-.57-9.857-1.482-7.244-6.726-11.521-13.908-11.521-9.578,0-15.619,6.651-15.619,17.1,0,7.007,2.164,12.47,8.663,22.684L47.3,76.548c5.245,7.244,6.5,10.332,6.5,15.557,0,5.107-1.6,7.838-4.788,7.838-4.106,0-5.474-2.613-5.474-10.808V85.692Z" transform="translate(1530.818 9117.073)" fill="#fff"/>
    <path id="Path_2693" data-name="Path 2693" d="M245.093,105.933v11.083h3.719V105.933l4.164-15.606H249.05l-2.037,9.842-2.039-9.842h-4.044Zm-15.761,7.605V93.8h.484c2,0,2.643.64,2.643,2.682v14.371c0,2.081-.6,2.682-2.643,2.682Zm-3.716-23.212v26.69h3.957c2.609,0,3.806-.359,4.928-1.477a6.279,6.279,0,0,0,1.678-4.683V96.486A6.276,6.276,0,0,0,234.5,91.8c-1.121-1.119-2.319-1.477-4.928-1.477Zm-9.59,21.45c0,1.522-.481,2.163-1.564,2.163-1.123,0-1.564-.64-1.564-2.163V95.565c0-1.52.481-2.161,1.564-2.161,1.125,0,1.564.64,1.564,2.161Zm3.721-14.69c0-3.162-.123-3.843-.84-5a5.653,5.653,0,0,0-8.888,0c-.718,1.159-.84,1.84-.84,5v13.13c0,3.162.122,3.843.84,5a5.593,5.593,0,0,0,8.888,0c.717-1.159.84-1.8.84-5Zm-23.6,4.323V93.8h.521c2.086,0,2.607.72,2.607,3.561,0,3.364-.441,4.044-2.607,4.044Zm0,12.128v-8.647h.363c2.605,0,3.168.8,3.168,4.323s-.562,4.323-3.168,4.323Zm-3.719-23.212v26.69h3.719c2.968,0,4.688-.557,5.849-1.918,1.04-1.241,1.4-2.721,1.4-5.924,0-3.843-.72-5.363-2.879-6.2,1.842-1.161,2.4-2.562,2.4-5.924,0-2.442-.481-3.962-1.638-5.124-1.321-1.319-2.282-1.6-5.488-1.6Zm-21.944,11.6V93.8H171c2.088,0,2.609.68,2.609,3.561,0,2.442-.08,3.082-.361,3.6-.363.68-1.043.962-2.248.962Zm-3.717-11.6v26.69h3.717V105.692a8.473,8.473,0,0,0,1.323-.16l2.166,11.484h4l-2.6-12.765c1.519-1.961,1.878-3.162,1.878-6.484,0-2.522-.437-4.323-1.4-5.564-1.081-1.4-2.438-1.876-5.446-1.876Zm-12.778,0h-3.716v19.93c0,3.162.118,3.843.838,5a5.654,5.654,0,0,0,8.886,0c.72-1.159.838-1.84.838-5V90.327h-3.719v21.45c0,1.522-.441,2.163-1.564,2.163-1.083,0-1.564-.64-1.564-2.163ZM140.7,111.777c0,1.522-.481,2.163-1.564,2.163-1.123,0-1.564-.64-1.564-2.163V95.565c0-1.52.481-2.161,1.564-2.161,1.125,0,1.564.64,1.564,2.161Zm3.717-14.69c0-3.162-.118-3.843-.836-5a5.653,5.653,0,0,0-8.888,0c-.72,1.159-.84,1.84-.84,5v13.13c0,3.162.12,3.843.84,5a5.593,5.593,0,0,0,8.888,0c.718-1.159.836-1.8.836-5Zm-23.312,8.846v11.083h3.719V105.933l4.164-15.606h-3.922l-2.041,9.842-2.037-9.842h-4.046Zm-24.821,0v11.083H100V105.933l4.164-15.606h-3.924l-2.037,9.842-2.041-9.842H92.122Zm-12.744,5.844c0,1.522-.483,2.163-1.566,2.163-1.121,0-1.564-.64-1.564-2.163V95.565c0-1.52.484-2.161,1.564-2.161,1.123,0,1.566.64,1.566,2.161Zm3.717-14.69c0-3.162-.12-3.843-.838-5a5.651,5.651,0,0,0-8.886,0c-.718,1.159-.84,1.84-.84,5v13.13c0,3.162.122,3.843.84,5a5.591,5.591,0,0,0,8.886,0c.718-1.159.838-1.8.838-5Zm-20.133-6.76v20.69c0,1.8-.481,2.322-2.081,2.322h-.281v3.678c3.641,0,4.922-.517,5.681-2.437.321-.762.4-1.562.4-3.964V90.327Zm-7.613,0H55.8v15.726L50.869,90.327h-3.2v26.69h3.719V103.011L55.8,117.017h3.717Zm-26.626,0v26.69h9.324v-3.478h-5.6V104.77h3.683v-3.478H36.608V93.8h5.285V90.327Z" transform="translate(1530.781 9166.94)" fill="#fff"/>
  </g>
</svg>
