<svg id="Star" xmlns="http://www.w3.org/2000/svg" xmlns:xlink="http://www.w3.org/1999/xlink" width="19.592" height="18.752" viewBox="0 0 19.592 18.752">
  <defs>
    <linearGradient id="linear-gradient" x1="0.5" x2="0.5" y2="1" gradientUnits="objectBoundingBox">
      <stop offset="0" stop-color="#9bd33a"/>
      <stop offset="1" stop-color="#75ab18"/>
    </linearGradient>
  </defs>
  <path id="Path_138" data-name="Path 138" d="M-20.513-48.349-22.9-43.5l-5.35.78a1.172,1.172,0,0,0-.648,2l3.871,3.772-.916,5.328a1.171,1.171,0,0,0,1.7,1.234l4.786-2.516,4.786,2.516a1.172,1.172,0,0,0,1.7-1.234l-.916-5.328,3.871-3.772a1.172,1.172,0,0,0-.648-2l-5.35-.78-2.391-4.849A1.173,1.173,0,0,0-20.513-48.349Z" transform="translate(29.258 49.001)" fill="url(#linear-gradient)"/>
</svg>
