<svg xmlns="http://www.w3.org/2000/svg" xmlns:xlink="http://www.w3.org/1999/xlink" width="2078.98" height="440.23" viewBox="0 0 2078.98 440.23">
  <defs>
    <linearGradient id="linear-gradient" x1="0.5" x2="0.5" y2="1" gradientUnits="objectBoundingBox">
      <stop offset="0" stop-color="#1b2a4f"/>
      <stop offset="1" stop-color="#6c1724"/>
    </linearGradient>
  </defs>
  <g id="Transition_part_1_hexagongs" transform="translate(80.461 -1982.285)">
    <g id="Group_1607" data-name="Group 1607">
      <rect id="Rectangle_907" data-name="Rectangle 907" width="1933" height="176" transform="translate(-13 2083)" fill="url(#linear-gradient)"/>
      <path id="Path_2851" data-name="Path 2851" d="M-14227.418-17380.332l40.1-23.16,39.821,23.16v46.205l-39.892,23-40.029-23Z" transform="translate(14227.418 19455.668)" fill="none" stroke="rgba(255,255,255,0.31)" stroke-width="1"/>
      <path id="Path_2852" data-name="Path 2852" d="M-14227.418-17380.332l40.1-23.16,39.821,23.16v46.205l-39.892,23-40.029-23Z" transform="translate(14307.339 19455.668)" fill="none" stroke="rgba(255,255,255,0.31)" stroke-width="1"/>
      <path id="Path_2853" data-name="Path 2853" d="M-14227.418-17380.332l40.1-23.16,39.821,23.16v46.205l-39.892,23-40.029-23Z" transform="translate(14387.26 19455.668)" fill="none" stroke="rgba(255,255,255,0.31)" stroke-width="1"/>
      <path id="Path_2854" data-name="Path 2854" d="M-14227.418-17380.332l40.1-23.16,39.821,23.16v46.205l-39.892,23-40.029-23Z" transform="translate(14467.181 19455.668)" fill="none" stroke="rgba(255,255,255,0.31)" stroke-width="1"/>
      <path id="Path_2855" data-name="Path 2855" d="M-14227.418-17380.332l40.1-23.16,39.821,23.16v46.205l-39.892,23-40.029-23Z" transform="translate(14547.102 19455.668)" fill="none" stroke="rgba(255,255,255,0.31)" stroke-width="1"/>
      <path id="Path_2856" data-name="Path 2856" d="M-14227.418-17380.332l40.1-23.16,39.821,23.16v46.205l-39.892,23-40.029-23Z" transform="translate(14627.021 19455.668)" fill="none" stroke="rgba(255,255,255,0.31)" stroke-width="1"/>
      <path id="Path_2857" data-name="Path 2857" d="M-14227.418-17380.332l40.1-23.16,39.821,23.16v46.205l-39.892,23-40.029-23Z" transform="translate(14706.942 19455.668)" fill="none" stroke="rgba(255,255,255,0.31)" stroke-width="1"/>
      <path id="Path_2858" data-name="Path 2858" d="M-14227.418-17380.332l40.1-23.16,39.821,23.16v46.205l-39.892,23-40.029-23Z" transform="translate(14786.863 19455.668)" fill="none" stroke="rgba(255,255,255,0.31)" stroke-width="1"/>
      <path id="Path_2859" data-name="Path 2859" d="M-14227.418-17380.332l40.1-23.16,39.821,23.16v46.205l-39.892,23-40.029-23Z" transform="translate(14866.784 19455.668)" fill="none" stroke="rgba(255,255,255,0.31)" stroke-width="1"/>
      <path id="Path_2860" data-name="Path 2860" d="M-14227.418-17380.332l40.1-23.16,39.821,23.16v46.205l-39.892,23-40.029-23Z" transform="translate(14946.705 19455.668)" fill="none" stroke="rgba(255,255,255,0.31)" stroke-width="1"/>
      <path id="Path_2861" data-name="Path 2861" d="M-14227.418-17380.332l40.1-23.16,39.821,23.16v46.205l-39.892,23-40.029-23Z" transform="translate(15026.626 19455.668)" fill="none" stroke="rgba(255,255,255,0.31)" stroke-width="1"/>
      <path id="Path_2862" data-name="Path 2862" d="M-14227.418-17380.332l40.1-23.16,39.821,23.16v46.205l-39.892,23-40.029-23Z" transform="translate(15106.547 19455.668)" fill="none" stroke="rgba(255,255,255,0.31)" stroke-width="1"/>
      <path id="Path_2867" data-name="Path 2867" d="M-14227.418-17380.332l40.1-23.16,39.821,23.16v46.205l-39.892,23-40.029-23Z" transform="translate(14547.102 19455.668)" fill="none" stroke="rgba(255,255,255,0.76)" stroke-width="1"/>
      <path id="Path_2868" data-name="Path 2868" d="M-14227.418-17380.332l40.1-23.16,39.821,23.16v46.205l-39.892,23-40.029-23Z" transform="translate(14627.021 19455.668)" fill="none" stroke="rgba(255,255,255,0.31)" stroke-width="1"/>
      <path id="Path_2869" data-name="Path 2869" d="M-14227.418-17380.332l40.1-23.16,39.821,23.16v46.205l-39.892,23-40.029-23Z" transform="translate(14706.942 19455.668)" fill="none" stroke="rgba(255,255,255,0.31)" stroke-width="1"/>
      <path id="Path_2870" data-name="Path 2870" d="M-14227.418-17380.332l40.1-23.16,39.821,23.16v46.205l-39.892,23-40.029-23Z" transform="translate(14587.062 19386.668)" fill="none" stroke="rgba(255,255,255,0.76)" stroke-width="1"/>
      <path id="Path_2875" data-name="Path 2875" d="M-14227.418-17380.332l40.1-23.16,39.821,23.16v46.205l-39.892,23-40.029-23Z" transform="translate(15186.468 19455.668)" fill="none" stroke="#fff" stroke-width="1"/>
      <path id="Path_2876" data-name="Path 2876" d="M-14227.418-17380.332l40.1-23.16,39.821,23.16v46.205l-39.892,23-40.029-23Z" transform="translate(15266.388 19455.668)" fill="none" stroke="rgba(255,255,255,0.31)" stroke-width="1"/>
      <path id="Path_2877" data-name="Path 2877" d="M-14227.418-17380.332l40.1-23.16,39.821,23.16v46.205l-39.892,23-40.029-23Z" transform="translate(15346.309 19455.668)" fill="none" stroke="rgba(255,255,255,0.31)" stroke-width="1"/>
      <path id="Path_2878" data-name="Path 2878" d="M-14227.418-17380.332l40.1-23.16,39.821,23.16v46.205l-39.892,23-40.029-23Z" transform="translate(15426.229 19455.668)" fill="none" stroke="rgba(255,255,255,0.31)" stroke-width="1"/>
      <path id="Path_2879" data-name="Path 2879" d="M-14227.418-17380.332l40.1-23.16,39.821,23.16v46.205l-39.892,23-40.029-23Z" transform="translate(15506.15 19455.668)" fill="none" stroke="rgba(255,255,255,0.31)" stroke-width="1"/>
      <path id="Path_2880" data-name="Path 2880" d="M-14227.418-17380.332l40.1-23.16,39.821,23.16v46.205l-39.892,23-40.029-23Z" transform="translate(15586.071 19455.668)" fill="none" stroke="rgba(255,255,255,0.31)" stroke-width="1"/>
      <path id="Path_2881" data-name="Path 2881" d="M-14227.418-17380.332l40.1-23.16,39.821,23.16v46.205l-39.892,23-40.029-23Z" transform="translate(15665.992 19455.668)" fill="none" stroke="rgba(255,255,255,0.31)" stroke-width="1"/>
      <path id="Path_2882" data-name="Path 2882" d="M-14227.418-17380.332l40.1-23.16,39.821,23.16v46.205l-39.892,23-40.029-23Z" transform="translate(15745.913 19455.668)" fill="none" stroke="rgba(255,255,255,0.31)" stroke-width="1"/>
      <path id="Path_2883" data-name="Path 2883" d="M-14227.418-17380.332l40.1-23.16,39.821,23.16v46.205l-39.892,23-40.029-23Z" transform="translate(15825.834 19455.668)" fill="none" stroke="rgba(255,255,255,0.96)" stroke-width="1"/>
      <path id="Path_2884" data-name="Path 2884" d="M-14227.418-17380.332l40.1-23.16,39.821,23.16v46.205l-39.892,23-40.029-23Z" transform="translate(15905.754 19455.668)" fill="none" stroke="rgba(255,255,255,0.31)" stroke-width="1"/>
      <path id="Path_2885" data-name="Path 2885" d="M-14227.418-17380.332l40.1-23.16,39.821,23.16v46.205l-39.892,23-40.029-23Z" transform="translate(15985.675 19455.668)" fill="none" stroke="rgba(255,255,255,0.31)" stroke-width="1"/>
      <path id="Path_2886" data-name="Path 2886" d="M-14227.418-17380.332l40.1-23.16,39.821,23.16v46.205l-39.892,23-40.029-23Z" transform="translate(16065.596 19455.668)" fill="none" stroke="rgba(255,255,255,0.31)" stroke-width="1"/>
      <path id="Path_2895" data-name="Path 2895" d="M-14227.418-17380.332l40.1-23.16,39.821,23.16v46.205l-39.892,23-40.029-23Z" transform="translate(15865.795 19386.668)" fill="none" stroke="rgba(255,255,255,0.96)" stroke-width="1"/>
      <path id="Path_2899" data-name="Path 2899" d="M-14227.418-17380.332l40.1-23.16,39.821,23.16v46.205l-39.892,23-40.029-23Z" transform="translate(14227.378 19595.063)" fill="none" stroke="rgba(255,255,255,0.31)" stroke-width="1"/>
      <path id="Path_2900" data-name="Path 2900" d="M-14227.418-17380.332l40.1-23.16,39.821,23.16v46.205l-39.892,23-40.029-23Z" transform="translate(14307.299 19595.063)" fill="none" stroke="rgba(255,255,255,0.31)" stroke-width="1"/>
      <path id="Path_2901" data-name="Path 2901" d="M-14227.418-17380.332l40.1-23.16,39.821,23.16v46.205l-39.892,23-40.029-23Z" transform="translate(14387.22 19595.063)" fill="none" stroke="rgba(255,255,255,0.76)" stroke-width="1"/>
      <path id="Path_2902" data-name="Path 2902" d="M-14227.418-17380.332l40.1-23.16,39.821,23.16v46.205l-39.892,23-40.029-23Z" transform="translate(14467.141 19595.063)" fill="none" stroke="rgba(255,255,255,0.76)" stroke-width="1"/>
      <path id="Path_2903" data-name="Path 2903" d="M-14227.418-17380.332l40.1-23.16,39.821,23.16v46.205l-39.892,23-40.029-23Z" transform="translate(14547.062 19595.063)" fill="none" stroke="rgba(255,255,255,0.76)" stroke-width="1"/>
      <path id="Path_2904" data-name="Path 2904" d="M-14227.418-17380.332l40.1-23.16,39.821,23.16v46.205l-39.892,23-40.029-23Z" transform="translate(14626.982 19595.063)" fill="none" stroke="rgba(255,255,255,0.31)" stroke-width="1"/>
      <path id="Path_2905" data-name="Path 2905" d="M-14227.418-17380.332l40.1-23.16,39.821,23.16v46.205l-39.892,23-40.029-23Z" transform="translate(14706.903 19595.063)" fill="none" stroke="rgba(255,255,255,0.31)" stroke-width="1"/>
      <path id="Path_2906" data-name="Path 2906" d="M-14227.418-17380.332l40.1-23.16,39.821,23.16v46.205l-39.892,23-40.029-23Z" transform="translate(14786.824 19595.063)" fill="none" stroke="rgba(255,255,255,0.31)" stroke-width="1"/>
      <path id="Path_2907" data-name="Path 2907" d="M-14227.418-17380.332l40.1-23.16,39.821,23.16v46.205l-39.892,23-40.029-23Z" transform="translate(14866.744 19595.063)" fill="none" stroke="rgba(255,255,255,0.31)" stroke-width="1"/>
      <path id="Path_2908" data-name="Path 2908" d="M-14227.418-17380.332l40.1-23.16,39.821,23.16v46.205l-39.892,23-40.029-23Z" transform="translate(14946.665 19595.063)" fill="none" stroke="rgba(255,255,255,0.31)" stroke-width="1"/>
      <path id="Path_2909" data-name="Path 2909" d="M-14227.418-17380.332l40.1-23.16,39.821,23.16v46.205l-39.892,23-40.029-23Z" transform="translate(15026.586 19595.063)" fill="none" stroke="rgba(255,255,255,0.31)" stroke-width="1"/>
      <path id="Path_2922" data-name="Path 2922" d="M-14227.418-17380.332l40.1-23.16,39.821,23.16v46.205l-39.892,23-40.029-23Z" transform="translate(15107.457 19595.063)" fill="#fff" stroke="#fff" stroke-width="1"/>
      <path id="Path_2923" data-name="Path 2923" d="M-14227.418-17380.332l40.1-23.16,39.821,23.16v46.205l-39.892,23-40.029-23Z" transform="translate(15186.428 19595.063)" fill="none" stroke="#fff" stroke-width="1"/>
      <path id="Path_2924" data-name="Path 2924" d="M-14227.418-17380.332l40.1-23.16,39.821,23.16v46.205l-39.892,23-40.029-23Z" transform="translate(15266.349 19595.063)" fill="none" stroke="rgba(255,255,255,0.31)" stroke-width="1"/>
      <path id="Path_2925" data-name="Path 2925" d="M-14227.418-17380.332l40.1-23.16,39.821,23.16v46.205l-39.892,23-40.029-23Z" transform="translate(15346.27 19595.063)" fill="none" stroke="#fff" stroke-width="1"/>
      <path id="Path_2926" data-name="Path 2926" d="M-14227.418-17380.332l40.1-23.16,39.821,23.16v46.205l-39.892,23-40.029-23Z" transform="translate(15426.19 19595.063)" fill="none" stroke="rgba(255,255,255,0.31)" stroke-width="1"/>
      <path id="Path_2927" data-name="Path 2927" d="M-14227.418-17380.332l40.1-23.16,39.821,23.16v46.205l-39.892,23-40.029-23Z" transform="translate(15506.111 19595.063)" fill="none" stroke="rgba(255,255,255,0.31)" stroke-width="1"/>
      <path id="Path_2928" data-name="Path 2928" d="M-14227.418-17380.332l40.1-23.16,39.821,23.16v46.205l-39.892,23-40.029-23Z" transform="translate(15586.031 19595.063)" fill="none" stroke="rgba(255,255,255,0.31)" stroke-width="1"/>
      <path id="Path_2929" data-name="Path 2929" d="M-14227.418-17380.332l40.1-23.16,39.821,23.16v46.205l-39.892,23-40.029-23Z" transform="translate(15665.952 19595.063)" fill="none" stroke="rgba(255,255,255,0.86)" stroke-width="1"/>
      <path id="Path_2930" data-name="Path 2930" d="M-14227.418-17380.332l40.1-23.16,39.821,23.16v46.205l-39.892,23-40.029-23Z" transform="translate(15745.873 19595.063)" fill="none" stroke="rgba(255,255,255,0.86)" stroke-width="1"/>
      <path id="Path_2931" data-name="Path 2931" d="M-14227.418-17380.332l40.1-23.16,39.821,23.16v46.205l-39.892,23-40.029-23Z" transform="translate(15825.794 19595.063)" fill="none" stroke="rgba(255,255,255,0.86)" stroke-width="1"/>
      <path id="Path_2932" data-name="Path 2932" d="M-14227.418-17380.332l40.1-23.16,39.821,23.16v46.205l-39.892,23-40.029-23Z" transform="translate(15905.715 19595.063)" fill="none" stroke="rgba(255,255,255,0.86)" stroke-width="1"/>
      <path id="Path_2933" data-name="Path 2933" d="M-14227.418-17380.332l40.1-23.16,39.821,23.16v46.205l-39.892,23-40.029-23Z" transform="translate(15985.636 19595.063)" fill="none" stroke="rgba(255,255,255,0.31)" stroke-width="1"/>
      <path id="Path_2934" data-name="Path 2934" d="M-14227.418-17380.332l40.1-23.16,39.821,23.16v46.205l-39.892,23-40.029-23Z" transform="translate(16065.557 19595.063)" fill="none" stroke="rgba(255,255,255,0.31)" stroke-width="1"/>
      <path id="Path_2948" data-name="Path 2948" d="M-14227.418-17380.332l40.1-23.16,39.821,23.16v46.205l-39.892,23-40.029-23Z" transform="translate(16145.517 19455.668)" fill="none" stroke="rgba(255,255,255,0.31)" stroke-width="1"/>
      <path id="Path_2949" data-name="Path 2949" d="M-14227.418-17380.332l40.1-23.16,39.821,23.16v46.205l-39.892,23-40.029-23Z" transform="translate(16105.557 19386.355)" fill="none" stroke="rgba(255,255,255,0.31)" stroke-width="1"/>
      <path id="Path_2952" data-name="Path 2952" d="M-14227.418-17380.332l40.1-23.16,39.821,23.16v46.205l-39.892,23-40.029-23Z" transform="translate(14187.418 19664.063)" fill="none" stroke="rgba(255,255,255,0.31)" stroke-width="1"/>
      <path id="Path_2954" data-name="Path 2954" d="M-14227.418-17380.332l40.1-23.16,39.821,23.16v46.205l-39.892,23-40.029-23Z" transform="translate(14347.258 19664.063)" fill="none" stroke="rgba(255,255,255,0.31)" stroke-width="1"/>
      <path id="Path_2956" data-name="Path 2956" d="M-14227.418-17380.332l40.1-23.16,39.821,23.16v46.205l-39.892,23-40.029-23Z" transform="translate(14227.379 19733.063)" fill="none" stroke="rgba(255,255,255,0.92)" stroke-width="1"/>
      <path id="Path_2958" data-name="Path 2958" d="M-14227.418-17380.332l40.1-23.16,39.821,23.16v46.205l-39.892,23-40.029-23Z" transform="translate(14267.378 19386.668)" fill="none" stroke="rgba(255,255,255,0.31)" stroke-width="1"/>
      <path id="Path_2959" data-name="Path 2959" d="M-14227.418-17380.332l40.1-23.16,39.821,23.16v46.205l-39.892,23-40.029-23Z" transform="translate(15945.675 19664.063)" fill="none" stroke="rgba(255,255,255,0.86)" stroke-width="1"/>
      <path id="Path_2947" data-name="Path 2947" d="M8452.259,2082.214l15.09,15.094,14.538-15.094" transform="translate(-7547.586 150.98)" fill="none" stroke="red" stroke-width="5"/>
      <path id="Path_2960" data-name="Path 2960" d="M-14227.418-17380.332l40.1-23.16,39.821,23.16v46.205l-39.892,23-40.029-23Z" transform="translate(14267.378 19525.063)" fill="none" stroke="rgba(255,255,255,0.31)" stroke-width="1"/>
      <path id="Path_2961" data-name="Path 2961" d="M-14227.418-17380.332l40.1-23.16,39.821,23.16v46.205l-39.892,23-40.029-23Z" transform="translate(14347.299 19525.063)" fill="none" stroke="rgba(255,255,255,0.31)" stroke-width="1"/>
      <path id="Path_2962" data-name="Path 2962" d="M-14227.418-17380.332l40.1-23.16,39.821,23.16v46.205l-39.892,23-40.029-23Z" transform="translate(14427.22 19525.063)" fill="none" stroke="rgba(255,255,255,0.76)" stroke-width="1"/>
      <path id="Path_2963" data-name="Path 2963" d="M-14227.418-17380.332l40.1-23.16,39.821,23.16v46.205l-39.892,23-40.029-23Z" transform="translate(14507.141 19525.063)" fill="none" stroke="rgba(255,255,255,0.76)" stroke-width="1"/>
      <path id="Path_2964" data-name="Path 2964" d="M-14227.418-17380.332l40.1-23.16,39.821,23.16v46.205l-39.892,23-40.029-23Z" transform="translate(14587.062 19525.063)" fill="none" stroke="rgba(255,255,255,0.76)" stroke-width="1"/>
      <path id="Path_2965" data-name="Path 2965" d="M-14227.418-17380.332l40.1-23.16,39.821,23.16v46.205l-39.892,23-40.029-23Z" transform="translate(14666.982 19525.063)" fill="none" stroke="rgba(255,255,255,0.31)" stroke-width="1"/>
      <path id="Path_2966" data-name="Path 2966" d="M-14227.418-17380.332l40.1-23.16,39.821,23.16v46.205l-39.892,23-40.029-23Z" transform="translate(14746.903 19525.063)" fill="none" stroke="rgba(255,255,255,0.31)" stroke-width="1"/>
      <path id="Path_2967" data-name="Path 2967" d="M-14227.418-17380.332l40.1-23.16,39.821,23.16v46.205l-39.892,23-40.029-23Z" transform="translate(14826.824 19525.063)" fill="none" stroke="rgba(255,255,255,0.31)" stroke-width="1"/>
      <path id="Path_2968" data-name="Path 2968" d="M-14227.418-17380.332l40.1-23.16,39.821,23.16v46.205l-39.892,23-40.029-23Z" transform="translate(14906.744 19525.063)" fill="none" stroke="rgba(255,255,255,0.31)" stroke-width="1"/>
      <path id="Path_2969" data-name="Path 2969" d="M-14227.418-17380.332l40.1-23.16,39.821,23.16v46.205l-39.892,23-40.029-23Z" transform="translate(14986.665 19525.063)" fill="none" stroke="rgba(255,255,255,0.31)" stroke-width="1"/>
      <path id="Path_2970" data-name="Path 2970" d="M-14227.418-17380.332l40.1-23.16,39.821,23.16v46.205l-39.892,23-40.029-23Z" transform="translate(15066.586 19525.063)" fill="none" stroke="rgba(255,255,255,0.31)" stroke-width="1"/>
      <path id="Path_2972" data-name="Path 2972" d="M-14227.418-17380.332l40.1-23.16,39.821,23.16v46.205l-39.892,23-40.029-23Z" transform="translate(15226.428 19525.063)" fill="none" stroke="#fff" stroke-width="1"/>
      <path id="Path_2973" data-name="Path 2973" d="M-14227.418-17380.332l40.1-23.16,39.821,23.16v46.205l-39.892,23-40.029-23Z" transform="translate(15306.349 19525.063)" fill="none" stroke="rgba(255,255,255,0.31)" stroke-width="1"/>
      <path id="Path_2974" data-name="Path 2974" d="M-14227.418-17380.332l40.1-23.16,39.821,23.16v46.205l-39.892,23-40.029-23Z" transform="translate(15386.27 19525.063)" fill="none" stroke="#fff" stroke-width="1"/>
      <path id="Path_2975" data-name="Path 2975" d="M-14227.418-17380.332l40.1-23.16,39.821,23.16v46.205l-39.892,23-40.029-23Z" transform="translate(15466.19 19525.063)" fill="none" stroke="rgba(255,255,255,0.31)" stroke-width="1"/>
      <path id="Path_2976" data-name="Path 2976" d="M-14227.418-17380.332l40.1-23.16,39.821,23.16v46.205l-39.892,23-40.029-23Z" transform="translate(15546.111 19525.063)" fill="none" stroke="rgba(255,255,255,0.31)" stroke-width="1"/>
      <path id="Path_2977" data-name="Path 2977" d="M-14227.418-17380.332l40.1-23.16,39.821,23.16v46.205l-39.892,23-40.029-23Z" transform="translate(15626.031 19525.063)" fill="none" stroke="rgba(255,255,255,0.31)" stroke-width="1"/>
      <path id="Path_2978" data-name="Path 2978" d="M-14227.418-17380.332l40.1-23.16,39.821,23.16v46.205l-39.892,23-40.029-23Z" transform="translate(15705.952 19525.063)" fill="none" stroke="rgba(255,255,255,0.86)" stroke-width="1"/>
      <path id="Path_2979" data-name="Path 2979" d="M-14227.418-17380.332l40.1-23.16,39.821,23.16v46.205l-39.892,23-40.029-23Z" transform="translate(15785.873 19525.063)" fill="none" stroke="rgba(255,255,255,0.86)" stroke-width="1"/>
      <path id="Path_2980" data-name="Path 2980" d="M-14227.418-17380.332l40.1-23.16,39.821,23.16v46.205l-39.892,23-40.029-23Z" transform="translate(15865.794 19525.063)" fill="none" stroke="rgba(255,255,255,0.86)" stroke-width="1"/>
      <path id="Path_2981" data-name="Path 2981" d="M-14227.418-17380.332l40.1-23.16,39.821,23.16v46.205l-39.892,23-40.029-23Z" transform="translate(15945.715 19525.063)" fill="none" stroke="rgba(255,255,255,0.86)" stroke-width="1"/>
      <path id="Path_2982" data-name="Path 2982" d="M-14227.418-17380.332l40.1-23.16,39.821,23.16v46.205l-39.892,23-40.029-23Z" transform="translate(16025.636 19525.063)" fill="none" stroke="rgba(255,255,255,0.31)" stroke-width="1"/>
      <path id="Path_2983" data-name="Path 2983" d="M-14227.418-17380.332l40.1-23.16,39.821,23.16v46.205l-39.892,23-40.029-23Z" transform="translate(16105.557 19525.063)" fill="none" stroke="rgba(255,255,255,0.31)" stroke-width="1"/>
      <path id="Path_2984" data-name="Path 2984" d="M-14227.418-17380.332l40.1-23.16,39.821,23.16v46.205l-39.892,23-40.029-23Z" transform="translate(14187.457 19525.063)" fill="none" stroke="rgba(255,255,255,0.31)" stroke-width="1"/>
      <path id="Path_2985" data-name="Path 2985" d="M-14227.418-17380.332l40.1-23.16,39.821,23.16v46.205l-39.892,23-40.029-23Z" transform="translate(15146.586 19525.063)" fill="none" stroke="rgba(255,255,255,0.31)" stroke-width="1"/>
      <path id="Path_2950" data-name="Path 2950" d="M-14227.418-17380.332l40.1-23.16,39.821,23.16v46.205l-39.892,23-40.029-23Z" transform="translate(14147.457 19595.063)" fill="none" stroke="rgba(255,255,255,0.31)" stroke-width="1"/>
    </g>
  </g>
</svg>
