<svg id="truck-fast" xmlns="http://www.w3.org/2000/svg" width="29" height="23.2" viewBox="0 0 29 23.2">
  <path id="truck-fast-2" data-name="truck-fast" d="M2.9,2.175A2.175,2.175,0,0,1,5.075,0h11.6A2.175,2.175,0,0,1,18.85,2.175V11.6h8.7v4.35a1.45,1.45,0,1,1,0,2.9H26.1a4.35,4.35,0,1,1-8.7,0H11.6a4.35,4.35,0,1,1-8.7,0v-5.8H9.425a.725.725,0,1,0,0-1.45H.725a.725.725,0,1,1,0-1.45h10.15a.725.725,0,1,0,0-1.45h-8.7a.725.725,0,1,1,0-1.45h10.15a.725.725,0,1,0,0-1.45H.725a.725.725,0,0,1,0-1.45H2.9Zm4.35,18.85A2.175,2.175,0,1,0,5.075,18.85,2.176,2.176,0,0,0,7.25,21.025Zm14.5-4.35a2.175,2.175,0,1,0,2.175,2.175A2.176,2.176,0,0,0,21.75,16.675Zm-.6-9.425H18.125V4.35h3.022A2.973,2.973,0,0,1,23.2,5.2l3.5,3.5a2.9,2.9,0,0,1,.847,2.053v2.3h-2.9v-2.3Z" fill="#97ce36"/>
</svg>
