<svg xmlns="http://www.w3.org/2000/svg" xmlns:xlink="http://www.w3.org/1999/xlink" width="47.688" height="37.207" viewBox="0 0 47.688 37.207">
  <defs>
    <clipPath id="clip-path">
      <rect id="Rectangle_649" data-name="Rectangle 649" width="47.688" height="37.207" fill="#75ab18"/>
    </clipPath>
  </defs>
  <g id="Vegan_icon_small" clip-path="url(#clip-path)">
    <path id="Path_2563" data-name="Path 2563" d="M120.5,72.932a.981.981,0,0,0,.98-.976c0-.183.215-18.379,11.155-24.56a.981.981,0,1,0-.965-1.707C126.7,48.5,123.027,53.947,121.04,61.45a45.94,45.94,0,0,0-1.518,10.5.98.98,0,0,0,.976.984Z" transform="translate(-97.029 -36.988)" fill="#75ab18"/>
    <path id="Path_2564" data-name="Path 2564" d="M133.954.612c-.635-.12-15.626-2.849-22.692,4.275a13.961,13.961,0,0,0-3.946,11.445,18.492,18.492,0,0,0,1.515,5.879.981.981,0,0,0,1.765-.855c-.042-.087-4.163-8.816,2.058-15.088,5.028-5.069,15.177-4.457,19.22-3.975-1.094,1.42-2.477,3.642-2.154,5.485.2,1.148.4,8.368-3.522,12.715-2.166,2.4-5.244,3.473-9.149,3.192a.98.98,0,1,0-.14,1.956q.687.049,1.345.049a12.084,12.084,0,0,0,9.4-3.883c4.508-4.991,4.238-13,4-14.368s1.607-3.912,2.828-5.184a.981.981,0,0,0-.525-1.643" transform="translate(-87.064 0)" fill="#75ab18"/>
    <path id="Path_2565" data-name="Path 2565" d="M46.117,93.377a.981.981,0,0,0-.9,1.742c7.759,4.016,8.379,16.735,8.385,16.863a.98.98,0,0,0,.979.94h.04a.981.981,0,0,0,.94-1.019c-.023-.569-.668-13.983-9.442-18.525" transform="translate(-36.276 -75.715)" fill="#75ab18"/>
    <path id="Path_2566" data-name="Path 2566" d="M2.351,67.191c-.223,1.622.141,7.077,3.283,10.31a8.713,8.713,0,0,0,6.515,2.6,13.212,13.212,0,0,0,1.43-.08.98.98,0,1,0-.212-1.949,7.273,7.273,0,0,1-6.328-1.938c-2.815-2.9-2.856-7.88-2.746-8.676A5.447,5.447,0,0,0,2.88,63.8c3.068-.432,9.568-.882,12.984,2.317,4.4,4.121,1.893,10.055,1.782,10.311a.98.98,0,0,0,1.8.788,13.42,13.42,0,0,0,.944-4.3A10.172,10.172,0,0,0,17.2,64.684C11.9,59.719,1.215,62.073.763,62.176A.981.981,0,0,0,.3,63.836c.895.868,2.166,2.534,2.053,3.355" transform="translate(0 -49.95)" fill="#75ab18"/>
  </g>
</svg>
